<svg xmlns="http://www.w3.org/2000/svg" id="&#x421;&#x43B;&#x43E;&#x439;_1" viewBox="0 0 260 260"><style id="style4536">.st0{fill:#71982d;}</style><path class="st0" d="M161.9 117.3c.6.1 1.1.3 1.6.4-2.1 2.4-4.2 4.7-6.6 6.8-2.1 1.8-4.4 3.4-6.8 4.5-2.4 1.1-4.9 1.5-6.4.5-.2-.1-.4-.2-.6-.4l-.5-.6-.3-.3-.1-.1v-.1l-.5-1c-.2-.4-.1-.4-.2-.7-.1-.2-.1-.4-.1-.6-.1-.5 0-.9.1-1.4.5-1.9 2.5-3.7 4.8-4.9 4.5-2.2 10.3-2.9 15.6-2.1z" id="path4538" fill="#7a9a01"/><path class="st0" d="M130.4 2C59.8 2 2.6 59.2 2.6 129.8s57.2 127.8 127.8 127.8 127.8-57.2 127.8-127.8S201 2 130.4 2zm59.4 82c-2.4 12.2-8.8 22.7-16.3 32.1-.1.1-.1.2-.2.2 2.2 1.2 4.3 2.7 6.1 4.5 4.5 4.5 7.1 10.5 8.3 16.2 1.3 5.8 1.3 11.7.8 17.2-.6 5.8-1.9 11.1-3.9 16.1-4 10-10.2 18.6-17.9 24.4-7.6 6.1-16.6 8.8-24.4 9.3-1.1.1-1.8.2-3.1.2-.9 0-1.7-.1-2.6-.1-1.7-.1-3.9-.4-5.6-.9-3.5-.8-6.5-2.3-9.1-3.9-5.1-3.3-7.9-7.3-9.5-10-1.6-2.8-2.2-4.5-2.2-4.6-.7-2.2.5-4.6 2.6-5.3s4.5.5 5.3 2.6c.1.1.5 1.2 1.5 3 1.2 2 3.3 4.9 6.9 7.3 1.8 1.1 4 2.3 6.5 2.9.6.2 1.2.3 1.9.4.7.1 1.2.3 2.1.3.8 0 1.7.1 2.6.1.7 0 1.5-.1 2.2-.1 6.5-.4 13.8-2.4 20.3-7.4 6.5-4.8 12.2-12.2 15.8-21 1.9-4.4 3.2-9.2 3.9-14.1.7-5 .8-10.3-.1-15.3-.8-5-2.7-10-6.2-13.8-1.6-1.7-3.5-3.2-5.6-4.4-2.9 3.1-6.1 6.1-9.6 8.7-2.5 1.8-5.2 3.6-8.2 4.8-.8.3-1.6.5-2.4.8-.8.2-1.8.3-2.6.4-.9 0-1.9 0-2.8-.2-1-.3-2-.5-2.8-1.1l-1.3-.9-1-1.1-.5-.6-.1-.1c-.1-.1 0 .1-.2-.3l-.1-.2-.5-1c-.8-1.8-1.2-4.1-.6-6 1.2-3.9 4.2-6.1 7-7.6 5.8-3 12.2-3.8 18.5-3.1 1.4.2 2.8.5 4.2.8.4-.6.8-1.1 1.2-1.7 6.3-9.2 11-19.6 12.3-29.4.6-4.9.2-9.5-1.5-13.2-.5-.9-.9-1.8-1.5-2.5l-.9-1.2-.9-.9c-.4-.5-1.7-1.4-2.7-2.1l-.6-.5-.3.3-.3-.2-1.4-.8c-7.6-4.2-16.6-4-24.4-1.8-.4.1-.8.3-1.2.4-1 5.5-2.5 12.9-4.4 21.7-2.1 9.5-4.7 20.5-7.9 32.1-3.2 11.7-7.1 24.1-11.8 36.2-4.7 12.1-10.2 24.1-17.1 34.5-3.5 5.2-7.4 10-12.1 14-4.7 3.9-10.1 6.8-16.4 7.4-.6 0-1.2.1-1.8.1h-2c-1.5 0-2.8-.2-4.1-.5-2.6-.6-5.1-1.5-7.2-2.9-4.2-2.7-6.8-6.4-8.2-9.5-1.4-3.2-2-5.8-2.2-7.6-.3-1.8-.3-2.8-.3-2.8v-.3c-.1-2.8 2-5.3 4.9-5.4 2.8-.1 5.2 2 5.4 4.9v.8s-.1.6-.1 1.8c0 1.2.2 3 .9 5s2 4.3 4.3 6c1.1.8 2.6 1.4 4.3 1.8.9.2 1.7.3 2.5.4l.6.1h2.7c3.4-.3 7.7-2.3 11.3-5.5 3.7-3.2 7.3-7.4 10.3-12.3 3-4.9 5.9-10.2 8.5-15.8 2.5-5.6 4.9-11.4 7.1-17.4 2.2-5.9 4.1-11.9 5.9-17.9 1.8-6 3.5-11.9 5-17.6 3.1-11.5 5.6-22.3 7.6-31.7 1.2-5.6 2.2-10.6 3-15-3 1.5-5.8 3.1-8.3 4.7-5.9 3.7-10.7 7.5-14.6 10.7-3.9 3.2-6.8 6-8.7 7.8-2 1.9-2.9 2.9-2.9 2.9-1.6 1.7-4.2 1.8-5.9.2-1.7-1.6-1.8-4.2-.3-5.9 0 0 1.1-1.2 3.1-3.2s5.1-4.9 9.1-8.4c4-3.4 9.1-7.5 15.4-11.6 4.3-2.8 9.4-5.6 15-8 .6-3.6 1.1-5.6 1.1-5.6l.3-.1c.5-2.8 3.7-4.7 6.5-4.2s5.3 3.1 5.3 5.9c3.2-.8 5.9-1.2 9.7-1.2 5.4 0 11.1 1.1 16.4 3.7l2 1 .5.3.2.1.1.1s.1 0 .4.2l.8.5c1.1.8 2 1.3 3.4 2.7l1.9 1.9 1.5 2c1.1 1.3 1.7 2.8 2.5 4.3 3 6.2 2.9 13 1.9 19z" id="path4540" fill="#7a9a01"/></svg>