<?xml version="1.0" encoding="utf-8"?>
<!-- Generator: Adobe Illustrator 21.1.0, SVG Export Plug-In . SVG Version: 6.00 Build 0)  -->
<svg version="1.1" id="Слой_1" xmlns="http://www.w3.org/2000/svg" xmlns:xlink="http://www.w3.org/1999/xlink" x="0px" y="0px"
	 viewBox="0 0 36.9 36.9" style="enable-background:new 0 0 36.9 36.9;" xml:space="preserve">
<style type="text/css">
	.st0{fill:#5DADBD;}
	.st1{fill:#FFFFFF;}
	.st2{fill:#7BB8C7;}
	.st3{fill:#EA5154;}
	.st4{fill:#70ADBC;}
	.st5{fill:#EF962D;}
	.st6{fill:#EEA923;}
	.st7{fill:#72AE96;}
	.st8{fill:#9786BD;}
	.st9{fill:#F25851;}
	.st10{fill:#8CAD26;}
	.st11{fill:none;}
</style>
<circle class="st0" cx="18.4" cy="18.4" r="18.4"/>
<g>
	<path class="st1" d="M17.8,7.8l-0.2,0.2l-0.2-0.2c-1.2-1.2-3.3-1.2-4.5,0C12.3,8.5,12,9.3,12,10.2c0,0.9,0.3,1.7,0.9,2.3l4.2,4.3
		c0.1,0.1,0.3,0.2,0.5,0.2c0.2,0,0.3-0.1,0.5-0.2l4.2-4.3c1.2-1.3,1.2-3.3,0-4.6C21.1,6.6,19,6.6,17.8,7.8z M21.9,10.2
		c0,0.5-0.2,1-0.5,1.3l-3.7,3.9l-3.7-3.9c-0.3-0.4-0.5-0.8-0.5-1.3c0-0.5,0.2-1,0.5-1.3c0.3-0.4,0.8-0.6,1.3-0.6
		c0.5,0,0.9,0.2,1.3,0.6l0.7,0.7c0.1,0.1,0.3,0.2,0.5,0.2c0.2,0,0.3-0.1,0.5-0.2l0.7-0.7c0.7-0.7,1.9-0.7,2.6,0
		C21.7,9.2,21.9,9.7,21.9,10.2z"/>
	<path class="st1" d="M30.7,23.5c-1.3-0.7-4.2-2.4-4.4-2.5l-0.1-0.2c-0.9-1-3.1-3.8-8.9-1.8c0,0-1.6,0.6-3,0.4
		c-0.2,0-0.4-0.1-0.8-0.1c-0.8-0.1-1.4-0.1-1.9,0.1c-0.3,0.1-0.3,0.1-0.5,0.2c0,0-1.5-1.4-2-1.9c-0.3-0.3-1-0.9-1.3-1.2
		c-0.4-0.3-1.4-0.7-2.2-0.2c-0.4,0.3-0.7,0.7-0.8,1.1c-0.1,0.6,0.1,1.3,0.6,2.1c0.1,0.2,3.5,5.1,8,7.2c0.9,0.4,2.4,0.7,3.7,0.6
		l5.7-0.8c0.5-0.1,1.4,0,1.6,0.2l3.1,2.4c0.2,0.2,0.5,0.2,0.7,0.2c0.1,0,0.2,0,0.2,0c0.3-0.1,0.6-0.3,0.8-0.6l2-3.7
		C31.5,24.5,31.3,23.8,30.7,23.5z M28.1,28.2L25,25.9c-0.5-0.4-1.4-0.5-2-0.5c-0.2,0-0.4,0-0.5,0l-5.7,0.8c-1,0.1-2.3-0.1-3-0.5
		c-4.2-2-7.4-6.6-7.5-6.8c-0.4-0.6-0.4-1-0.4-1.2c0-0.2,0.1-0.3,0.3-0.4c0.2-0.1,0.6,0,0.9,0.1l3.2,2.8c-0.1,0.2-0.2,0.4-0.2,0.6
		c-0.1,0.9,0.7,1.6,2.1,2c2.6,0.8,7,0.8,7.2,0.8c0.3,0,0.6-0.3,0.6-0.6c0-0.3-0.3-0.6-0.6-0.6c0,0-4.4-0.1-6.9-0.8
		c-0.9-0.3-1.2-0.7-1.2-0.8c0-0.1,0.3-0.5,1.3-0.6c0.2,0,0.6,0,0.9,0.1c0.2,0,0.5,0.1,0.8,0.1c1.7,0.2,3.5-0.5,3.6-0.5
		c5-1.7,6.8,0.5,7.6,1.5l0.1,0.2c0.3,0.3,4.7,2.8,4.7,2.8L28.1,28.2z"/>
</g>
</svg>
