<?xml version="1.0" encoding="utf-8"?>
<!-- Generator: Adobe Illustrator 21.1.0, SVG Export Plug-In . SVG Version: 6.00 Build 0)  -->
<svg version="1.1" id="Слой_1" xmlns="http://www.w3.org/2000/svg" xmlns:xlink="http://www.w3.org/1999/xlink" x="0px" y="0px"
	 viewBox="0 0 16 16" style="enable-background:new 0 0 16 16;" xml:space="preserve">
<style type="text/css">
	.st0{fill:none;stroke:#000000;stroke-width:1.5;stroke-linecap:round;stroke-linejoin:round;stroke-miterlimit:10;}
	.st1{fill:none;stroke:#000000;stroke-width:1.75;stroke-linecap:round;stroke-linejoin:round;stroke-miterlimit:10;}
	.st2{fill:none;stroke:#000000;stroke-width:1.5;stroke-linecap:round;stroke-miterlimit:10;}
	.st3{fill:none;stroke:#CCCCCC;stroke-width:2.100000e-02;stroke-linecap:round;stroke-linejoin:round;stroke-miterlimit:10;}
	.st4{clip-path:url(#SVGID_2_);fill:none;stroke:#000000;stroke-width:1.5;stroke-linecap:round;stroke-miterlimit:10;}
	.st5{fill:none;stroke:#000000;stroke-linecap:round;stroke-linejoin:round;stroke-miterlimit:10;}
</style>
<g>
	<path d="M13.8,1.5c0.2,0,0.4,0.2,0.4,0.4v12.2c0,0.2-0.2,0.4-0.4,0.4c-0.1,0-0.2,0-0.2-0.1L11.4,13c-1.3-0.9-2.8-1.6-4.3-2.1
		c-0.4-0.1-0.8-0.2-1.2-0.3c-0.1,0-0.1,0-0.2,0c-0.4,0-0.8,0.3-0.8,0.8v2.3c0,0.2-0.1,0.3-0.2,0.4c-0.1,0.1-0.2,0.2-0.4,0.2
		c0,0,0,0-0.1,0c-0.3,0-0.5-0.3-0.5-0.6V11c0-0.4-0.3-0.7-0.7-0.8c-0.2,0-0.5,0-0.7,0c-0.5,0-0.8-0.4-0.8-0.8V6.7
		c0-0.5,0.4-0.8,0.8-0.8h0.1c3.1,0,6.1-0.9,8.7-2.7l2.4-1.6C13.6,1.5,13.7,1.5,13.8,1.5 M13.8,0L13.8,0c-0.4,0-0.7,0.1-1.1,0.3
		l-2.4,1.6C8,3.5,5.3,4.3,2.5,4.3l-0.1,0c-1.3,0-2.3,1-2.3,2.3v2.7c0,1.3,1,2.3,2.3,2.3v1.9c0,1.1,0.8,2,1.9,2.1c0.1,0,0.1,0,0.2,0
		c0.6,0,1.1-0.2,1.5-0.6c0.4-0.4,0.6-0.9,0.6-1.4v-1.3c0.1,0,0.1,0,0.2,0.1c1.4,0.4,2.7,1.1,3.9,1.9l2.1,1.5
		c0.3,0.2,0.7,0.3,1.1,0.3c1.1,0,1.9-0.9,1.9-1.9V1.9C15.7,0.9,14.8,0,13.8,0L13.8,0z"/>
</g>
</svg>
