<?xml version="1.0" encoding="utf-8"?>
<!-- Generator: Adobe Illustrator 21.1.0, SVG Export Plug-In . SVG Version: 6.00 Build 0)  -->
<svg version="1.1" id="Слой_1" xmlns="http://www.w3.org/2000/svg" xmlns:xlink="http://www.w3.org/1999/xlink" x="0px" y="0px"
	 viewBox="0 0 48 48" style="enable-background:new 0 0 48 48;" xml:space="preserve">
<style type="text/css">
	.st0{fill:none;stroke:#565B66;stroke-width:4;stroke-miterlimit:10;}
</style>
<path class="st0" d="M46.5,48v-5.1c0-1.7-1.1-3.2-2.6-3.6l0,0c-2.9-0.9-6.6-4-9.1-6.4c-1.5-1.4-1.6-3.9-0.2-5.4
	c2.8-2.9,4.1-7,4.6-11C40.3,7.8,33.6,0.1,24.9,0c-0.1,0-0.2,0-0.4,0c-0.1,0-0.3,0-0.4,0C15.4,0.1,8.7,7.8,9.8,16.4
	c0.5,3.9,1.7,8.1,4.3,11.2c1.3,1.5,1.3,3.7,0,5.2c-2.8,3-6.2,5.4-10,6.5l0,0c-1.5,0.4-2.6,1.9-2.6,3.6V48"/>
</svg>
