<?xml version="1.0" encoding="utf-8"?>
<!-- Generator: Adobe Illustrator 21.1.0, SVG Export Plug-In . SVG Version: 6.00 Build 0)  -->
<svg version="1.1" id="Слой_1" xmlns="http://www.w3.org/2000/svg" xmlns:xlink="http://www.w3.org/1999/xlink" x="0px" y="0px"
	 viewBox="0 0 32 32" style="enable-background:new 0 0 32 32;" xml:space="preserve">
<g>
	<path d="M30.7,11.8c0-4.4-3.6-8-8-8c-3.4,0-6.3,2.1-7.5,5.1c-0.6,0.1-1.1,0.2-1.6,0.5h0c-0.5,0.2-0.9,0.4-1.4,0.4
		c-0.5-3.6-2.6-4.5-2.7-4.5L9.2,6.2c0,0,1.6,0.7,2.1,3.7c-0.6,0-1.2-0.2-1.7-0.4C8.4,8.9,7,8.8,5.5,9c-3.3,0.5-5.2,3.5-5.3,8
		C0,22.1,2.4,28.4,5.8,29c1.4,0.3,2.6,0.3,3.6,0c1.4-0.4,2.9-0.4,4.3,0c0.5,0.1,1.1,0.2,1.7,0.2c0.6,0,1.2,0,1.9-0.2
		c2.9-0.6,4.9-5,5.5-9.2c1.6,0,3.2-0.6,4.4-1.5l4,5.3l0.7-0.5l-3.9-5.3C29.7,16.4,30.7,14.2,30.7,11.8z M17.2,28.2
		c-1.2,0.2-2.3,0.2-3.2,0c-1.6-0.5-3.2-0.5-4.8,0c-0.9,0.3-2,0.3-3.2,0C3.4,27.6,1,22.2,1,17.1c0-2,0.6-6.5,4.6-7.2
		C7,9.7,8.2,9.8,9.2,10.3c1.5,0.7,3.3,0.7,4.8,0h0c0.3-0.1,0.6-0.2,0.9-0.3c-0.1,0.6-0.2,1.2-0.2,1.9c0,4.2,3.2,7.6,7.3,8
		C21.4,24.1,19.3,27.8,17.2,28.2z M22.7,18.9c-3.9,0-7.1-3.2-7.1-7.1s3.2-7.1,7.1-7.1s7.1,3.2,7.1,7.1S26.7,18.9,22.7,18.9z"/>
	<path d="M27.6,7.9c-1.1-1.3-2.6-2.1-4.3-2.2C21.6,5.5,20,6,18.6,7.1l0.6,0.7c1.1-0.9,2.5-1.4,3.9-1.2c1.4,0.1,2.7,0.8,3.7,1.9
		c1.9,2.3,1.6,5.7-0.7,7.6l0.6,0.7C29.5,14.5,29.8,10.5,27.6,7.9z"/>
</g>
</svg>
