<?xml version="1.0" encoding="utf-8"?>
<!-- Generator: Adobe Illustrator 21.1.0, SVG Export Plug-In . SVG Version: 6.00 Build 0)  -->
<svg version="1.1" id="Слой_1" xmlns="http://www.w3.org/2000/svg" xmlns:xlink="http://www.w3.org/1999/xlink" x="0px" y="0px"
	 viewBox="0 0 32 32" style="enable-background:new 0 0 32 32;" xml:space="preserve">
<g>
	<path d="M21.5,4H5.4C2.4,4,0.1,6.4,0.1,9.4V12v0.9v11.3l0.4,0.4h3.2c0,0.1,0,0.2,0,0.3c0,1.9,1.5,3.5,3.5,3.5s3.5-1.5,3.5-3.5
		c0-0.1,0-0.2,0-0.3h10.6c0,0.1,0,0.2,0,0.3c0,1.9,1.5,3.5,3.5,3.5s3.5-1.5,3.5-3.5c0-0.1,0-0.2,0-0.3h3.2l0.4-0.4v-7.9l-1.7-6
		C29,6.6,25.5,4,21.5,4z M7.2,27.6c-1.5,0-2.6-1.2-2.6-2.6c0-1.5,1.2-2.6,2.6-2.6c1.5,0,2.6,1.2,2.6,2.6C9.8,26.4,8.6,27.6,7.2,27.6
		z M15.1,23.8h-4.6c-0.5-1.4-1.8-2.4-3.3-2.4s-2.8,1-3.3,2.4H1v-7.4h6.6v-0.9H1V13h10.6v-0.9H1V9.4C1,7,3,4.9,5.4,4.9h9.7V23.8z
		 M24.8,27.6c-1.5,0-2.6-1.2-2.6-2.6c0-1.5,1.2-2.6,2.6-2.6s2.6,1.1,2.6,2.6C27.4,26.4,26.2,27.6,24.8,27.6z M31,16.4v3.5h-2.6v0.9
		H31v3.1h-2.9c-0.5-1.4-1.8-2.4-3.3-2.4s-2.8,1-3.3,2.4H16v-19h5.6c2.3,0,4.5,1,6,2.6h-3.7c-2.4,0-4.5,2-4.5,4.5
		c0,2.4,2,4.3,4.5,4.3L31,16.4L31,16.4z M23.8,15.4c-2,0-3.6-1.5-3.6-3.4c0-1.9,1.6-3.6,3.6-3.6h4.4c0.5,0.7,0.8,1.4,1.1,2.2
		l1.4,4.8H23.8z"/>
	<path d="M7.2,23.2c-1,0-1.8,0.8-1.8,1.8c0,1,0.8,1.8,1.8,1.8S8.9,26,8.9,25C8.9,24,8.1,23.2,7.2,23.2z M7.2,25.8
		c-0.5,0-0.9-0.4-0.9-0.9c0-0.5,0.4-0.9,0.9-0.9S8,24.5,8,25C8,25.4,7.6,25.8,7.2,25.8z"/>
	<path d="M24.8,23.2c-1,0-1.8,0.8-1.8,1.8c0,1,0.8,1.8,1.8,1.8c1,0,1.8-0.8,1.8-1.8C26.5,24,25.7,23.2,24.8,23.2z M24.8,25.8
		c-0.5,0-0.9-0.4-0.9-0.9c0-0.5,0.4-0.9,0.9-0.9c0.5,0,0.9,0.4,0.9,0.9C25.6,25.4,25.2,25.8,24.8,25.8z"/>
</g>
</svg>
