<?xml version="1.0" encoding="utf-8"?>
<!-- Generator: Adobe Illustrator 21.1.0, SVG Export Plug-In . SVG Version: 6.00 Build 0)  -->
<svg version="1.1" id="Слой_1" xmlns="http://www.w3.org/2000/svg" xmlns:xlink="http://www.w3.org/1999/xlink" x="0px" y="0px"
	 viewBox="0 0 32 32" style="enable-background:new 0 0 32 32;" xml:space="preserve">
<g>
	<path d="M23,26c0,1,0.8,1.8,1.8,1.8s1.8-0.8,1.8-1.8s-0.8-1.8-1.8-1.8S23,25.1,23,26z M24.8,25.2c0.5,0,0.9,0.4,0.9,0.9
		s-0.4,0.9-0.9,0.9s-0.9-0.4-0.9-0.9S24.3,25.2,24.8,25.2z"/>
	<path d="M10.7,24.3c-1,0-1.8,0.8-1.8,1.8s0.8,1.8,1.8,1.8s1.8-0.8,1.8-1.8S11.6,24.3,10.7,24.3z M10.7,26.9c-0.5,0-0.9-0.4-0.9-0.9
		c0-0.5,0.4-0.9,0.9-0.9s0.9,0.4,0.9,0.9C11.5,26.5,11.1,26.9,10.7,26.9z"/>
	<path d="M31.2,5.3l-2.8,14.5c-0.3,1.5-1.5,2.5-3,2.5H10.3c-1.6,0-2.9-1.2-3.1-2.7L5.9,8C5.7,6,4,4.5,2,4.5H0.1v0.9H2
		c1.6,0,2.9,1.2,3.1,2.7l1.3,11.5C6.6,21.2,7.6,22.4,9,23c-1.1,0.6-1.8,1.8-1.8,3c0,1.9,1.5,3.5,3.5,3.5s3.5-1.5,3.5-3.5
		c0-1.1-0.6-2.2-1.5-2.8h10c-0.9,0.6-1.5,1.7-1.5,2.8c0,1.9,1.5,3.5,3.5,3.5s3.5-1.5,3.5-3.5c0-1.3-0.7-2.4-1.7-3
		c1.4-0.4,2.4-1.6,2.7-3l2.8-14.5L31.2,5.3z M13.3,26c0,1.5-1.2,2.6-2.6,2.6c-1.5,0-2.6-1.2-2.6-2.6c0-1.5,1.2-2.6,2.6-2.6
		C12.1,23.4,13.3,24.6,13.3,26z M27.4,26c0,1.5-1.2,2.6-2.6,2.6c-1.4,0-2.6-1.2-2.6-2.6c0-1.5,1.2-2.6,2.6-2.6
		C26.2,23.4,27.4,24.6,27.4,26z"/>
	<path d="M11.3,19.4c0.4,0.9,1.4,1.5,2.3,1.5c0.2,0,0.4,0,0.6,0c1.2-0.3,2-1.4,2-2.6l0-1.6c-0.1-3.5-1-7-2.5-10.1l-0.2-0.4
		C13,5,11.8,4.5,10.6,4.7l-0.2,0C9.3,5,8.5,6,8.5,7.1c-0.1,3.8,0.7,7.6,2.3,11.1L11.3,19.4z M9.3,7.1c0-0.7,0.5-1.3,1.2-1.5l0.2,0
		l0,0c0.1,0,0.3,0,0.4,0c0.6,0,1.2,0.4,1.5,1l0.2,0.4c0.2,0.4,0.4,0.7,0.5,1.1l-2.8,0.7l0.2,0.8l2.9-0.7c0.3,0.8,0.6,1.6,0.8,2.4
		l-3.2,0.7l0.2,0.8l3.2-0.7c0.2,0.8,0.4,1.7,0.4,2.5l-3,0.7l0.2,0.8l3-0.7c0,0.4,0,0.8,0,1.2l0,1.6c0,0.8-0.5,1.5-1.3,1.7
		c-0.8,0.2-1.6-0.2-1.9-0.9l-0.6-1.2C10,14.5,9.2,10.8,9.3,7.1z"/>
	<path d="M25.9,13.9l-1,1.6c-0.3-0.1-0.7-0.2-1.1-0.2c-1.6,0-3,1.3-3,3s1.3,3,3,3c1.6,0,3-1.3,3-3c0-0.9-0.4-1.8-1.1-2.3l1-1.6
		L25.9,13.9z M25.9,18.3c0,1.1-0.9,2.1-2.1,2.1s-2.1-0.9-2.1-2.1s0.9-2.1,2.1-2.1S25.9,17.1,25.9,18.3z"/>
	<path d="M20.9,14.3c1.3,0,2.3-1.1,2.3-2.3c0-0.9,0.4-1.8,1.1-2.4l0.6-0.5c0,0,0.1-0.1,0.2-0.1h0.8C26.5,9,27,8.5,27,7.9V7.5
		c0-0.6-0.5-1.1-1.1-1.1h-0.3c-0.1,0-0.3-0.1-0.3-0.3c0-0.6-0.5-1.1-1.1-1.1h-0.4c-0.6,0-1.1,0.5-1.1,1.1v0.4c0,0.1,0,0.1-0.1,0.2
		L22.2,7c-0.7,0.7-1.7,1.1-2.8,1.1c-1.3,0-2.3,1.1-2.3,2.3v0.1C17.2,12.6,18.8,14.3,20.9,14.3z M22.9,7.6l0.4-0.4
		c0.2-0.2,0.4-0.5,0.4-0.8V6.1c0-0.1,0.1-0.3,0.3-0.3h0.4c0.1,0,0.3,0.1,0.3,0.3c0,0.6,0.5,1.1,1.1,1.1h0.3c0.1,0,0.3,0.1,0.3,0.3
		v0.4c0,0.1-0.1,0.3-0.3,0.3h-0.8c-0.3,0-0.6,0.1-0.7,0.3l-0.5,0.5l-1.1-1.1C22.7,7.8,22.8,7.7,22.9,7.6z M18.1,10.4
		c0-0.8,0.7-1.4,1.5-1.4c0.9,0,1.7-0.2,2.4-0.7l1.2,1.2c-0.5,0.7-0.8,1.5-0.8,2.4c0,0.8-0.7,1.4-1.4,1.4c-1.6,0-2.9-1.3-2.9-2.9
		L18.1,10.4L18.1,10.4z"/>
</g>
</svg>
