<?xml version="1.0" encoding="utf-8"?>
<!-- Generator: Adobe Illustrator 21.1.0, SVG Export Plug-In . SVG Version: 6.00 Build 0)  -->
<svg version="1.1" id="Слой_1" xmlns="http://www.w3.org/2000/svg" xmlns:xlink="http://www.w3.org/1999/xlink" x="0px" y="0px"
	 viewBox="0 0 32 32" style="enable-background:new 0 0 32 32;" xml:space="preserve">
<g>
	<g>
		<path d="M20.4,9.7c-0.5,0-0.9-0.2-1.3-0.6c-0.7-0.7-0.7-1.9,0-2.6c0.7-0.7,1.9-0.7,2.6,0c0.7,0.7,0.7,1.9,0,2.6l0,0
			C21.3,9.5,20.8,9.7,20.4,9.7z M20.4,6.9c-0.2,0-0.5,0.1-0.6,0.3c-0.4,0.4-0.4,0.9,0,1.3c0.4,0.4,0.9,0.4,1.3,0
			c0.4-0.4,0.4-0.9,0-1.3C20.8,7,20.6,6.9,20.4,6.9z"/>
	</g>
	<g>
		<path d="M9.8,27.9c-0.6,0-1.2-0.2-1.6-0.7l-7.5-7.4c-0.9-0.9-0.9-2.4,0-3.3L14.4,2.9c0.4-0.4,1-0.7,1.6-0.7h4
			c0.6,0,1.3,0.3,1.7,0.7l3.5,3.6c0.4,0.4,0.6,1,0.6,1.6V12c0,0.6-0.2,1.2-0.7,1.6L11.5,27.3C11.1,27.7,10.4,27.9,9.8,27.9z
			 M8.9,26.7c0.6,0.6,1.4,0.6,1.9,0L24.4,13c0.3-0.3,0.4-0.6,0.4-1V8.2c0-0.4-0.1-0.7-0.4-1L21,3.6c-0.3-0.3-0.6-0.4-1-0.4h-4
			c-0.4,0-0.7,0.1-1,0.4L1.4,17.2c-0.6,0.6-0.6,1.4,0,1.9L8.9,26.7z"/>
	</g>
	<g>
		<path d="M6.6,16.8c0.5,0,0.9,0.4,0.9,0.9c0,0.5-0.4,0.9-0.9,0.9s-0.9-0.4-0.9-0.9C5.6,17.2,6.1,16.8,6.6,16.8 M6.6,15.9
			c-1,0-1.9,0.8-1.9,1.9s0.8,1.9,1.9,1.9s1.9-0.8,1.9-1.9C8.4,16.7,7.6,15.9,6.6,15.9L6.6,15.9z"/>
	</g>
	<g>
		<path d="M13.9,16.8c0.5,0,0.9,0.4,0.9,0.9c0,0.5-0.4,0.9-0.9,0.9c-0.5,0-0.9-0.4-0.9-0.9C13,17.3,13.5,16.8,13.9,16.8 M13.9,15.9
			c-1,0-1.8,0.8-1.8,1.8c0,1,0.8,1.8,1.8,1.8c1,0,1.8-0.8,1.8-1.8C15.7,16.7,14.9,15.9,13.9,15.9L13.9,15.9z"/>
	</g>
	<g>
		<rect x="9.8" y="12.1" width="0.9" height="11.1"/>
	</g>
	<g>
		<path d="M21.8,7l-0.9-0.3c0-0.1,0.8-2.6,3.5-3.3c1.1-0.3,2.1,0,3,0.3c1.3,0.4,2.4,0.7,3.8-0.8l0.7,0.6c-1.9,2-3.4,1.5-4.8,1.1
			c-0.8-0.3-1.6-0.6-2.5-0.3C22.5,4.8,21.8,6.9,21.8,7z"/>
	</g>
</g>
</svg>
