<?xml version="1.0" encoding="utf-8"?>
<!-- Generator: Adobe Illustrator 21.1.0, SVG Export Plug-In . SVG Version: 6.00 Build 0)  -->
<svg version="1.1" id="Слой_1" xmlns="http://www.w3.org/2000/svg" xmlns:xlink="http://www.w3.org/1999/xlink" x="0px" y="0px"
	 viewBox="0 0 32 32" style="enable-background:new 0 0 32 32;" xml:space="preserve">
<g>
	<path d="M10.7,15.5L10.3,16v13.3l0.4,0.4h20.7l0.4-0.4V16l-0.4-0.4H10.7z M11.2,20.1h9.2c-0.5,0.6-0.9,1.6-0.9,2.7s0.3,2,0.8,2.7
		h-9.2V20.1z M30.9,28.8H11.2v-2.4H31L30.9,28.8L30.9,28.8z M20.4,22.8c0-1.4,0.6-2.4,1.1-2.4c0.5,0,1.1,1,1.1,2.4
		c0,1.4-0.6,2.4-1.1,2.4C21,25.2,20.4,24.2,20.4,22.8z M30.9,25.5h-8.2c0.5-0.6,0.8-1.5,0.8-2.7s-0.3-2.1-0.8-2.7h8.3V25.5z
		 M30.9,19.3H11.2v-2.8H31L30.9,19.3L30.9,19.3z"/>
	<rect x="19.7" y="11.6" width="5.3" height="0.9"/>
	<path d="M11.2,10.7c0-1.2-1-2.2-2.2-2.2c-0.7,0-1.4,0.4-1.8,0.9C6.8,8.8,6.1,8.5,5.4,8.5c-1.2,0-2.2,1-2.2,2.2s1,2.2,2.2,2.2
		c0.7,0,1.4-0.4,1.8-0.9c0.4,0.5,1.1,0.9,1.8,0.9C10.2,12.9,11.2,11.9,11.2,10.7z M5.4,12c-0.8,0-1.3-0.6-1.3-1.3s0.6-1.3,1.3-1.3
		s1.3,0.6,1.3,1.3S6.1,12,5.4,12z M9,12c-0.8,0-1.3-0.6-1.3-1.3S8.2,9.3,9,9.3s1.3,0.6,1.3,1.3S9.7,12,9,12z"/>
	<path d="M1,15.5v-6c0-2,1.6-3.6,3.6-3.6h9.6c1.7,0,3.1,1.1,3.5,2.7h-3.4v0.9h3.5c0,0,0,0,0,0.1v5.2h0.9V9.4c0,0,0,0,0-0.1h5.7V8.5
		h-5.9c-0.4-2-2.3-3.5-4.4-3.5H4.6c-2.5,0-4.5,2-4.5,4.5v6c0,2.5,2,4.5,4.5,4.5H9v-0.9H4.6C2.6,19.1,1,17.4,1,15.5z"/>
</g>
</svg>
