<?xml version="1.0" encoding="utf-8"?>
<!-- Generator: Adobe Illustrator 21.1.0, SVG Export Plug-In . SVG Version: 6.00 Build 0)  -->
<svg version="1.1" id="Слой_1" xmlns="http://www.w3.org/2000/svg" xmlns:xlink="http://www.w3.org/1999/xlink" x="0px" y="0px"
	 viewBox="0 0 32 32" style="enable-background:new 0 0 32 32;" xml:space="preserve">
<g>
	<g>
		<path d="M1.7,31.8c-0.3,0-0.6-0.1-0.8-0.2c-1.3-0.9-0.7-3.4-0.2-5.5C0.8,25.5,1,24.9,1,24.7l-0.1-20c0-2.2,1.8-4,4.1-4h22.7
			c2.3,0,4.1,1.8,4.1,4v19.2c0,2.2-1.8,4-4.1,4l0,0L8.3,27.9c-0.2,0.1-1.2,0.8-1.9,1.3C4.4,30.7,2.8,31.8,1.7,31.8z M5,2
			C3.5,2,2.2,3.2,2.2,4.7l0.1,20.1c0,0.3-0.1,0.8-0.3,1.7c-0.2,1-1,3.8-0.4,4.2C2.1,31,4.7,29,5.7,28.3c1.4-1,2.1-1.6,2.6-1.6
			l19.4,0.1c1.6,0,2.9-1.2,2.9-2.8V4.7c0-1.5-1.3-2.8-2.9-2.8H5z"/>
	</g>
	<g>
		<rect x="7.7" y="6.8" width="17.5" height="1.2"/>
	</g>
	<g>
		<rect x="7.7" y="13.2" width="17.5" height="1.2"/>
	</g>
	<g>
		<rect x="7.7" y="19.6" width="17.5" height="1.2"/>
	</g>
</g>
</svg>
