<?xml version="1.0" encoding="utf-8"?>
<!-- Generator: Adobe Illustrator 21.1.0, SVG Export Plug-In . SVG Version: 6.00 Build 0)  -->
<svg version="1.1" id="Слой_1" xmlns="http://www.w3.org/2000/svg" xmlns:xlink="http://www.w3.org/1999/xlink" x="0px" y="0px"
	 viewBox="0 0 32 32" style="enable-background:new 0 0 32 32;" xml:space="preserve">
<g>
	<path d="M19.4,15.8h-6.6c-1.1,0-2,0.9-2,2s0.9,2,2,2h6.6c1.1,0,2-0.9,2-2.1C21.4,16.7,20.5,15.8,19.4,15.8z M19.4,18.8h-6.6
		c-0.5,0-1-0.4-1-1.1c0-0.5,0.4-1,1-1h6.6c0.5,0,1,0.4,1,1C20.4,18.4,20,18.8,19.4,18.8z"/>
	<path d="M30.4,11.7c0.3-0.5,0.6-1.2,0.8-2.1c0.2-1.5-0.7-4.4-0.7-4.5l-0.1-0.3L27,4.7l-0.1,0.4c0,0-0.5,1.8-1.1,2.9
		c-0.7,1.2-2.3,2.4-3.1,3c0.1-0.4,0.1-0.8,0.1-1.2c0-3-2.3-5.5-5.4-6.4c0.2-0.3,0.4-0.7,0.4-1.1V1.7h-1v0.7c0,0.3-0.3,0.7-0.5,0.9
		c-0.4,0-0.8-0.1-1.3-0.1c-3.5,0-6.6,2-7.4,4.9C7,7.8,6.3,7.6,5.6,7.6c-2.3,0-4.2,1.8-4.5,4.1H0.1v11.1c0,3.2,2.6,5.8,5.8,5.8h20.2
		c3.2,0,5.8-2.6,5.8-5.8V11.7H30.4z M29.6,5.9c0.1,0.3,0.2,0.8,0.3,1.3c-0.3,0-0.7,0-1.1,0c-0.7,0-1.2-0.1-1.4-0.3
		c0.1-0.4,0.3-0.9,0.4-1.2L29.6,5.9z M26.6,8.6c0.1-0.2,0.2-0.4,0.3-0.7c0.3,0.1,0.9,0.3,1.7,0.3c0,0,0.1,0,0.1,0c0.5,0,1,0,1.3-0.1
		c0.1,0.5,0.1,1,0,1.4c-0.2,1-0.7,1.9-1,2.3h-5.9C24.3,11,25.8,9.8,26.6,8.6z M21.8,9.9c0,0.6-0.1,1.3-0.4,1.9h-1.3
		c0-0.5,0-1.4-0.1-3C19.9,7.4,19.2,6,18.5,5C20.5,6,21.8,7.8,21.8,9.9z M15.6,4.7C15.4,5.9,15,8,14.8,8.8c-0.2,0.9-0.5,2.3-0.7,3H11
		c0.2-0.8,0.7-2.4,1.5-3.9C13.2,6.5,14.7,5.3,15.6,4.7z M15.7,9c0.2-1,0.8-3.7,1-4.6c0,0,0,0,0.1,0c0.5,0.5,2.1,2.4,2.2,4.5
		c0.1,1.6,0.1,2.4,0.1,2.9h-4C15.3,11,15.5,9.8,15.7,9z M14.6,4.2c-1.1,0.8-2.4,2-3,3.2c-0.9,1.6-1.4,3.4-1.6,4.2
		c-0.1-1.1-0.7-2.2-1.6-2.8C9.1,6.2,11.6,4.4,14.6,4.2z M5.6,8.6c0.7,0,1.4,0.2,2,0.6l0,0c0.8,0.6,1.3,1.5,1.4,2.4H2.1
		C2.3,10,3.8,8.6,5.6,8.6z M30.9,22.8c0,2.6-2.2,4.8-4.8,4.8H5.9c-2.6,0-4.8-2.2-4.8-4.8V12.7h0h8h0.5h12.5h8.9V22.8z"/>
</g>
</svg>
