<?xml version="1.0" encoding="utf-8"?>
<!-- Generator: Adobe Illustrator 21.1.0, SVG Export Plug-In . SVG Version: 6.00 Build 0)  -->
<svg version="1.1" id="Слой_1" xmlns="http://www.w3.org/2000/svg" xmlns:xlink="http://www.w3.org/1999/xlink" x="0px" y="0px"
	 viewBox="0 0 32 32" style="enable-background:new 0 0 32 32;" xml:space="preserve">
<g>
	<g>
		<g>
			<g>
				<path d="M14.6,28.7H0.7c-0.4,0-0.6-0.3-0.6-0.6V16.6C0,16.2,0.3,16,0.7,16h13.9c0.4,0,0.6,0.3,0.6,0.6v11.5
					C15.2,28.4,14.9,28.7,14.6,28.7z M1,27.7h13.2V16.9H1V27.7z"/>
			</g>
			<g>
				<path d="M9.7,20.9c-0.1,0-0.2,0-0.3-0.1l-1.8-1.2l-1.9,1.1c-0.2,0.1-0.3,0.1-0.5,0C5.1,20.7,5,20.5,5,20.4v-4.1h1v3.2l1.4-0.8
					c0.2-0.1,0.4-0.1,0.5,0l1.3,0.8V16h1v4.4c0,0.2-0.1,0.3-0.3,0.4C9.9,20.9,9.8,20.9,9.7,20.9z"/>
			</g>
		</g>
		<g>
			<g>
				<path d="M31.3,28.7H17.4c-0.4,0-0.6-0.3-0.6-0.6V16.6c0-0.4,0.3-0.6,0.6-0.6h13.9c0.4,0,0.6,0.3,0.6,0.6v11.5
					C32,28.4,31.6,28.7,31.3,28.7z M17.8,27.7H31V16.9H17.8V27.7z"/>
			</g>
			<g>
				<path d="M26.5,20.9c-0.1,0-0.2,0-0.3-0.1l-1.8-1.2l-1.9,1.1c-0.2,0.1-0.3,0.1-0.5,0c-0.2-0.1-0.2-0.2-0.2-0.4v-4.1h1v3.2
					l1.4-0.8c0.2-0.1,0.4-0.1,0.5,0l1.3,0.8V16h1v4.4c0,0.2-0.1,0.3-0.3,0.4C26.6,20.9,26.5,20.9,26.5,20.9z"/>
			</g>
		</g>
	</g>
	<g>
		<g>
			<path d="M22.9,16.8H9c-0.4,0-0.6-0.3-0.6-0.6V4.6C8.4,4.3,8.7,4,9,4h13.9c0.4,0,0.6,0.3,0.6,0.6v11.5
				C23.6,16.5,23.3,16.8,22.9,16.8z M9.4,15.8h13.2V5H9.4V15.8z"/>
		</g>
		<g>
			<path d="M18.1,9c-0.1,0-0.2,0-0.3-0.1L16,7.7l-1.9,1.1C14,9,13.8,9,13.7,8.9c-0.2-0.1-0.2-0.2-0.2-0.4V4.4h1v3.2l1.4-0.8
				c0.2-0.1,0.4-0.1,0.5,0l1.3,0.8V4h1v4.5c0,0.2-0.1,0.3-0.3,0.4C18.3,9,18.2,9,18.1,9z"/>
		</g>
	</g>
</g>
</svg>
