<?xml version="1.0" encoding="utf-8"?>
<!-- Generator: Adobe Illustrator 21.1.0, SVG Export Plug-In . SVG Version: 6.00 Build 0)  -->
<svg version="1.1" id="Слой_1" xmlns="http://www.w3.org/2000/svg" xmlns:xlink="http://www.w3.org/1999/xlink" x="0px" y="0px"
	 viewBox="0 0 32 32" style="enable-background:new 0 0 32 32;" xml:space="preserve">
<g>
	<path d="M24.1,31c-1.9,0-3.5-1.6-3.5-3.5s1.6-3.5,3.5-3.5s3.5,1.6,3.5,3.5S26.1,31,24.1,31z M24.1,25.9c-0.9,0-1.6,0.7-1.6,1.6
		s0.7,1.6,1.6,1.6c0.9,0,1.6-0.7,1.6-1.6S25,25.9,24.1,25.9z"/>
</g>
<g>
	<path d="M12,31c-1.9,0-3.5-1.6-3.5-3.5s1.6-3.5,3.5-3.5s3.5,1.6,3.5,3.5S13.9,31,12,31z M12,25.9c-0.9,0-1.6,0.7-1.6,1.6
		s0.7,1.6,1.6,1.6s1.6-0.7,1.6-1.6S12.8,25.9,12,25.9z"/>
</g>
<g>
	<path d="M25.1,22.7H11.6c-1.7,0-3.2-1.2-3.5-2.9L4.8,2.5c0-0.2-0.2-0.3-0.3-0.3H1.1c-0.5,0-1-0.4-1-1s0.4-1,1-1h3.4
		c1.1,0,2,0.8,2.2,1.8l3.2,17.3c0.1,0.8,0.8,1.4,1.6,1.4h13.5c0.8,0,1.5-0.6,1.6-1.4l2.2-11.9C29,6.9,29.5,6.6,30,6.7
		c0.5,0.1,0.9,0.6,0.8,1.1l-2.2,11.9C28.3,21.4,26.8,22.7,25.1,22.7z"/>
</g>
</svg>
