<?xml version="1.0" encoding="utf-8"?>
<!-- Generator: Adobe Illustrator 21.1.0, SVG Export Plug-In . SVG Version: 6.00 Build 0)  -->
<svg version="1.1" id="Слой_1" xmlns="http://www.w3.org/2000/svg" xmlns:xlink="http://www.w3.org/1999/xlink" x="0px" y="0px"
	 viewBox="0 0 32 32" style="enable-background:new 0 0 32 32;" xml:space="preserve">
<g>
	<g>
		<path d="M29.8,31c-0.3,0-0.6-0.1-0.8-0.3L1.7,3.4c-0.4-0.4-0.4-1.1,0-1.6s1.1-0.4,1.6,0l27.3,27.3c0.4,0.4,0.4,1.1,0,1.6
			C30.4,30.9,30.1,31,29.8,31z"/>
	</g>
	<g>
		<path d="M2.1,31c-0.3,0-0.6-0.1-0.8-0.3c-0.4-0.4-0.4-1.1,0-1.6L28.6,1.8c0.4-0.4,1.1-0.4,1.6,0s0.4,1.1,0,1.6L2.8,30.7
			C2.6,30.9,2.3,31,2.1,31z"/>
	</g>
</g>
</svg>
