<?xml version="1.0" encoding="utf-8"?>
<!-- Generator: Adobe Illustrator 21.1.0, SVG Export Plug-In . SVG Version: 6.00 Build 0)  -->
<svg version="1.1" id="Слой_1" xmlns="http://www.w3.org/2000/svg" xmlns:xlink="http://www.w3.org/1999/xlink" x="0px" y="0px"
	 viewBox="0 0 32 32" style="enable-background:new 0 0 32 32;" xml:space="preserve">
<g>
	<g>
		<g>
			<path d="M15.7,25.6c-9.8,0-14.4-9.5-14.5-9.9L1,15.3l0.2-0.4C1.4,14.5,5.9,5,15.7,5c9.8,0,14.9,9.4,15.1,9.8l0.2,0.5l-0.2,0.5
				C30.6,16.2,25.5,25.6,15.7,25.6z M3.3,15c-0.1,0.2-0.1,0.4,0,0.6c1.2,2.1,5.3,8.1,12.4,8.1c7.1,0,11.6-5.9,13-8
				c0.1-0.2,0.1-0.4,0-0.6c-1.4-2.1-5.9-8-13-8C8.6,6.9,4.5,12.9,3.3,15z"/>
		</g>
	</g>
	<g>
		<path d="M15.7,18.1c-1.6,0-2.8-1.3-2.8-2.8s1.3-2.8,2.8-2.8s2.8,1.3,2.8,2.8S17.3,18.1,15.7,18.1z M15.7,14.4
			c-0.5,0-0.9,0.4-0.9,0.9s0.4,0.9,0.9,0.9c0.5,0,0.9-0.4,0.9-0.9S16.2,14.4,15.7,14.4z"/>
	</g>
</g>
</svg>
