<?xml version="1.0" encoding="utf-8"?>
<!-- Generator: Adobe Illustrator 21.1.0, SVG Export Plug-In . SVG Version: 6.00 Build 0)  -->
<svg version="1.1" id="Слой_1" xmlns="http://www.w3.org/2000/svg" xmlns:xlink="http://www.w3.org/1999/xlink" x="0px" y="0px"
	 viewBox="0 0 252 73" style="enable-background:new 0 0 252 73;" xml:space="preserve">
<style type="text/css">
	.st0{fill:#7A9A01;}
	.st1{fill:#FFFFFF;}
</style>
<g>
	<path class="st0" d="M249.2632446,40.2272339c-0.6713867-0.4909058-1.5432129-0.7235718-2.4265137-0.565979l-0.0217285,0.0039062
		c-0.8654785,0.1543579-0.7092285,0.5419312-0.847168,0.8630371l-0.2854004,0.9928589l-0.5524902,1.9933472
		c-0.3371582,1.3393555-0.7009277,2.675293-1.020752,4.0282593c-0.6489258,2.7053223-1.3395996,5.4152832-1.9504395,8.1998901
		c-0.1122437,0.5379639-0.2224121,1.0794678-0.3284912,1.6239014c-0.7492065,1.6835327-1.6379395,3.3218994-2.6646729,4.7938843
		c-1.6455078,2.3599243-3.7785645,4.3388672-6.1760254,5.2525635c-1.199707,0.4491577-2.4492188,0.6099854-3.7111816,0.5376587
		c-0.6308594-0.0351562-1.267334-0.1414185-1.8994141-0.31073c-0.6416016-0.1439209-1.199707-0.3563232-1.7419434-0.6254883
		c-2.1564941-1.0518799-3.5454102-3.2592773-4.239502-5.8894043c-0.6860352-2.6293335-0.854248-5.5463867-0.7033691-8.4638062
		c0.1435547-2.9277954,0.6113281-5.8743286,1.190918-8.8060303c0.2763062-1.3712769,0.59552-2.7375488,0.9457397-4.0982666
		c1.5161743-1.0963135,2.9502563-2.2529907,4.3655396-3.4385376c4.7661133-4.0695801,9.1921387-8.4663696,13.2705078-13.2283325
		c2.0327148-2.387146,3.9802246-4.8621826,5.7302246-7.5435181c0.871582-1.3443604,1.6940918-2.7403564,2.4008789-4.2573242
		c0.6748047-1.5310059,1.3527832-3.1497803,1.3642578-5.2349243c-0.0185547-1.0317383-0.2697754-2.2896118-1.0834961-3.3099365
		c-0.376709-0.5062256-0.8996582-0.9165649-1.3652344-1.190979c-0.4599609-0.2754517-0.9677734-0.5076294-1.5046387-0.6533813
		c-1.0734863-0.3021851-2.2067871-0.2752686-3.1755371-0.0354614c-0.9804688,0.2320557-1.8354492,0.6327515-2.6010742,1.0888062
		c-1.5310059,0.9206543-2.7885742,2.0192261-3.9318848,3.1901245c-1.1452637,1.1655884-2.192627,2.3839111-3.1635742,3.649292
		c-1.9472656,2.526062-3.6108398,5.2078857-5.1708984,7.9348145c-1.5546875,2.730835-2.9567871,5.5377197-4.2351074,8.399231
		c-1.8878784,4.2172852-3.5043945,8.5593872-4.7750854,13.0245361c-0.3987427,0.2617188-0.7965088,0.5302734-1.1990356,0.767395
		c-2.623291,1.5157471-5.3376465,2.8824463-8.0869141,4.1333008c-1.2279663,0.5563354-2.46698,1.0849609-3.7126465,1.5819702
		c-0.7113647-1.5284424-1.8649292-2.9189453-3.3310547-3.8126221c-1.5734863-0.9615479-3.3771973-1.3373413-5.1118164-1.3508911
		c-1.7436523,0.0076294-3.467041,0.3607788-5.083252,1.1390381c-0.8032227,0.4001465-1.5891113,0.9017334-2.2800293,1.6231689
		c-0.6806641,0.7069702-1.2978516,1.7010498-1.4174805,2.9060059c-0.060791,0.5924072,0.0117188,1.2022095,0.184082,1.7455444
		c0.1589355,0.5039673,0.3920898,1.0018311,0.7145996,1.4609985c0.6418457,0.9317627,1.6235352,1.5826416,2.5629883,1.9279175
		c1.9104004,0.6816406,3.6767578,0.5882568,5.3347168,0.4158936c1.6616211-0.1973877,3.2424316-0.5631104,4.7854004-0.9971313
		c0.5014648-0.151062,0.9925537-0.3204346,1.4859619-0.4857178c-0.0115967,0.2459106-0.0220947,0.4918823-0.0467529,0.7390747
		c-0.2941895,2.7619629-0.9404297,5.6809692-2.081543,8.28125c-1.1264648,2.6170044-2.7258301,5.027771-4.7543945,6.8165283
		c-2.0273438,1.7852783-4.5068359,2.8174438-7.0141602,2.6864014c-0.6220703-0.0130615-1.263916-0.1317139-1.8664551-0.2642822
		c-0.578125-0.1326294-1.1228027-0.3479004-1.6323242-0.6311646c-1.0175781-0.5656738-1.9089355-1.4055786-2.6064453-2.46698
		c-1.4118652-2.1178589-2.1157227-4.8974609-2.3222656-7.701416c-0.2009277-2.8168945,0.0830078-5.7416992,0.7629395-8.5288086
		c0.6518555-2.7612915,1.7729492-5.3915405,3.4504395-7.5979004c1.6591797-2.2114258,3.8659668-4.0046387,6.4387207-5.0333862
		c2.5783691-0.968689,5.4511719-1.2799683,8.2321777-0.5452271c0.5112305,0.1356201,1.0561523-0.1254272,1.2624512-0.6278687
		c0.2241211-0.5463257-0.0368652-1.1710205-0.583252-1.3952026l-0.0212402-0.008728
		c-1.5063477-0.6182251-3.2172852-0.9892578-4.887207-1.0073853c-1.6855469-0.0604858-3.3901367,0.161499-5.0144043,0.6645508
		c-3.2250977,1.0412598-6.1855469,3.0134277-8.3117676,5.6533203c-2.1977539,2.5957642-3.6032715,5.7316284-4.451416,8.9244995
		c-0.8305664,3.1737671-1.1828613,6.4487915-0.9958496,9.7739868c0.2070312,3.3015137,0.9523926,6.7362061,2.9841309,9.7627563
		c0.998291,1.5028076,2.3896484,2.8582764,4.0700684,3.7758789c0.8369141,0.4595947,1.7409668,0.8071899,2.6628418,1.0180054
		c0.8967285,0.2027588,1.782959,0.3256836,2.7004395,0.338501c1.8225098,0.0571899,3.6672363-0.3135376,5.3266602-1.0064087
		c1.6696777-0.6897583,3.1455078-1.7010498,4.4299316-2.8567505c2.5488281-2.3465576,4.34375-5.2496338,5.5915527-8.2952881
		c0.6201172-1.5281982,1.1140137-3.0996094,1.4665527-4.7003174c0.345459-1.6032104,0.5878906-3.2119141,0.5588379-4.9226074
		c-0.0153809-0.6604614-0.0789795-1.3311157-0.1767578-2.0016479c1.4104004-0.5629272,2.7966309-1.1680908,4.1660156-1.8013916
		c2.2485962-1.0458374,4.4385986-2.1905518,6.6131592-3.3652344c-0.0068359,0.0305176-0.0148315,0.0606079-0.0216064,0.0911255
		c-0.6921387,3.0876465-1.1518555,6.2446289-1.3347168,9.4646606c-0.1484375,3.2144165-0.0700684,6.5346069,0.8991699,9.848877
		c0.4846191,1.6486816,1.1972656,3.3032227,2.2802734,4.8005371c1.0803223,1.4902954,2.5683594,2.7884521,4.2734375,3.585144
		c0.8422852,0.3981323,1.7429199,0.7127686,2.6088867,0.8775635c0.861084,0.1951294,1.7565918,0.3136597,2.6611328,0.3321533
		c1.8115234,0.0617676,3.6594238-0.3299561,5.3007812-1.0634155c2.9658203-1.3609619,5.1338501-3.6462402,6.8029175-6.0741577
		c0.1490479,1.5349121,0.5385132,3.2246094,1.5598755,4.7821655c1.0744629,1.6253052,2.9829102,2.6431885,4.6774902,2.6941528
		c0.5073242,0.0118408,1.0227051-0.2116089,1.3525391-0.6470947c0.545166-0.7198486,0.4035645-1.7453613-0.3161621-2.2905884
		l-0.1491699-0.112854c-0.9589844-0.7263794-1.5375977-1.2746582-1.9724121-2.0099487
		c-0.4577637-0.7265625-0.7348633-1.7629395-0.8044434-2.9390869c-0.199707-2.3554688,0.1416016-5.0427856,0.604248-7.6859131
		c0.4692383-2.6604614,1.1306152-5.3363647,1.8293457-8.0146484c0.357666-1.3383179,0.6730957-2.6931763,1.0041504-4.0474243
		c0.1472168-0.6825562,0.3015137-1.362915,0.4331055-2.0510254l0.1960449-1.0321045
		C249.6570435,41.036438,249.9707642,40.7484131,249.2632446,40.2272339z M201.2957153,46.286377
		c-1.4038086,0.4470215-2.8210449,0.8189697-4.2109375,1.0304565c-1.3735352,0.2051392-2.7797852,0.2537231-3.800293-0.0758667
		c-0.5058594-0.1663208-0.8666992-0.4008789-1.1230469-0.7272949c-0.1293945-0.1635742-0.239502-0.3637085-0.3242188-0.5890503
		c-0.0708008-0.1864014-0.098877-0.3556519-0.0915527-0.5299683c-0.017334-0.6868896,0.840332-1.6797485,1.9758301-2.265564
		c2.2629395-1.2207031,5.4086914-1.4089355,7.5258789-0.0634766c0.9602661,0.583313,1.6690063,1.4873047,2.0770874,2.5582275
		C202.6499634,45.8587036,201.9736938,46.081543,201.2957153,46.286377z M227.1990356,26.6119995
		c2.2976074-5.5739136,5.0383301-11.0366211,8.579834-15.817627c1.7502441-2.3533325,3.7895508-4.6403198,6.105957-5.8968506
		c1.1535645-0.6087646,2.2883301-0.8126831,3.0627441-0.5036011c0.2026367,0.069519,0.3937988,0.1775513,0.5839844,0.31073
		c0.1865234,0.1314697,0.2624512,0.2244873,0.3430176,0.338501c0.1542969,0.1976929,0.2375488,0.5300903,0.2414551,1.0229492
		c-0.0373535,1.010498-0.4555664,2.3502197-1.0332031,3.6105347c-0.5844727,1.2775269-1.3151855,2.5471191-2.1098633,3.7884521
		c-1.5979004,2.4848633-3.4455566,4.8723755-5.3874512,7.1812134c-3.9064941,4.604187-8.182373,8.9656372-12.7316895,12.9400024
		c-0.0866089,0.074646-0.1757812,0.1474609-0.2626343,0.2219849
		C225.3755493,31.3822021,226.2322388,28.9758911,227.1990356,26.6119995z"/>
	<path class="st0" d="M93.8347778,36.0861816c0.5512695,0.456665,1.3691406,0.3898315,1.8383789-0.1547852
		c0.4750977-0.5512695,0.4135742-1.3833618-0.1376953-1.8584595c-0.5549316-0.4783325-0.9882812-0.7402344-1.5126953-1.0258179
		c-0.5078125-0.2683716-1.0314941-0.5-1.5727539-0.6758423c-1.0793457-0.3621826-2.2124023-0.5449219-3.3374023-0.5598145
		c-1.1254883-0.0197144-2.2446289,0.1242065-3.3060913,0.409668c-1.0666504,0.2756958-2.0461426,0.6196289-3.0314941,1.0366211
		c-1.958252,0.8253784-3.7785645,1.9404297-5.4321289,3.2503662c-0.1658936,0.1295166-0.3218384,0.270813-0.4841309,0.4046631
		l0.3317261-1.6714478c0.1374512-0.7821655,0.4624023-1.5222168-0.2524414-2.4956055
		c-0.5600586-0.7645874-1.612793-1.0178833-2.4699707-0.5541992c-1.0620117,0.574646-1.0844727,1.3826294-1.2941895,2.1484985
		l-0.5788574,2.3091431c-0.3696289,1.5430908-0.7546387,3.0827026-1.0922852,4.6328735
		c-0.699707,3.0949707-1.3769531,6.1949463-2.032959,9.2998047c-1.3415527,6.2028809-2.765625,12.3873291-4.2463379,18.559021
		c-0.0041504,0.0177002-0.010498,0.0452881-0.0144043,0.0632324c-0.2480469,1.187561,0.5134277,2.3514404,1.7011719,2.5995483
		c1.1875,0.2481079,2.3513184-0.5134277,2.5996094-1.7009888c1.2978516-6.2127075,2.6525879-12.4126587,4.0898438-18.5941162
		c0.699646-2.944397,1.3768311-5.8937378,2.0365601-8.8471069c0.437561-0.6168213,1.0093994-1.298584,1.5716553-1.9009399
		c0.6337891-0.6812134,1.3115234-1.3272095,2.0292969-1.9221191c1.4262695-1.2020874,2.9973145-2.2294922,4.6831055-2.9990234
		c1.7016602-0.7694702,3.4452515-1.3561401,5.1661987-1.3189697c0.8613281,0.0009766,1.7145996,0.1293945,2.5231934,0.3894043
		c0.40625,0.124939,0.7963867,0.2941284,1.1691895,0.4845581c0.3554688,0.1752319,0.7661133,0.451355,0.9675293,0.6184692
		L93.8347778,36.0861816z"/>
	
		<ellipse transform="matrix(0.2211705 -0.9752352 0.9752352 0.2211705 160.7531281 270.1092834)" class="st0" cx="249.4893494" cy="34.4086761" rx="1.8791791" ry="2.1910691"/>
	<path class="st0" d="M176.7002563,33.0621338c-1.2841797-0.7129517-2.7224121-1.1142578-4.142334-1.2540283
		c-1.4165039-0.1394043-2.845459-0.0574341-4.2438965,0.2402344c-2.7998047,0.6067505-5.3461914,2.1022949-7.3659668,4.0224609
		c-2.0366211,1.9227905-3.5859375,4.2527466-4.7670898,6.6970825c-1.1772461,2.4539795-2.0119629,5.0332031-2.5380859,7.6622314
		c-0.5065918,2.6422119-0.7861328,5.392395-0.4729004,8.2036133c0.2875977,2.7907715,1.1643066,5.6879883,2.9851074,8.1351929
		c1.777832,2.4547729,4.5593262,4.3078613,7.6240234,4.9156494c3.0666504,0.6134033,6.2922363-0.0023193,8.9345703-1.4968872
		l0.0019531-0.0011597c1.1225586-0.6359863,1.5168457-2.0614624,0.8808594-3.1838379s-2.0615234-1.5166626-3.1838379-0.8806763
		c-1.762207,0.9984741-3.8195801,1.3782349-5.737793,1.0050659c-1.9143066-0.3720093-3.6716309-1.4483032-4.8994141-3.0783081
		c-1.2429199-1.6177979-1.9914551-3.7094727-2.2824707-5.934082c-0.3171387-2.2260742-0.1574707-4.5859375,0.2243652-6.9212036
		c0.8022461-4.677063,2.5478516-9.3001709,5.7124023-12.6112671c1.5600586-1.6503296,3.487793-2.9111938,5.6269531-3.4995117
		c2.1230469-0.5950317,4.5175781-0.6057739,6.440918,0.3032837l0.0119629,0.0057983
		c0.6179199,0.2902832,1.3637695,0.0556641,1.6999512-0.5500488
		C177.5603638,34.2097168,177.3323364,33.4129639,176.7002563,33.0621338z"/>
	<path class="st0" d="M154.2893677,34.8417358c0.3508301-0.632019,0.1228027-1.428772-0.5092773-1.7796021
		c-1.2841797-0.7129517-2.7224121-1.1142578-4.142334-1.2540283c-1.416748-0.1394043-2.8457031-0.0574341-4.2438965,0.2402344
		c-2.7998047,0.6067505-5.3461914,2.1022949-7.3659668,4.0224609c-0.7717896,0.7285156-1.4527588,1.5294189-2.0910034,2.3589478
		c-0.0178833,0.0092163-0.0255737,0.0081177-0.0461426,0.0200195c-2.4672852,1.4263306-6.6865845,3.5028687-9.2698364,4.6860962
		c-1.3015137,0.571167-2.612793,1.1137695-3.9331055,1.6173706c-0.1118164,0.039856-0.2226562,0.0825806-0.3340454,0.1237183
		c-0.4915771-1.0864258-1.1591797-2.1171265-2.0609741-2.9484863c-1.2592773-1.199585-2.8898926-1.9255371-4.5148926-2.2119751
		c-1.6333008-0.3096924-3.2856445-0.2130737-4.871582,0.1732788c-1.5786133,0.4058228-3.1467285,1.0756226-4.4567871,2.4094849
		c-0.6374512,0.6687622-1.217041,1.5778198-1.3823242,2.6916504c-0.0827637,0.5490723-0.0517578,1.1239624,0.076416,1.6520996
		c0.1408691,0.5317383,0.2575684,0.9761963,0.4963379,1.4703369c0.439209,0.9782715,1.3381348,1.7791748,2.2653809,2.1607056
		c0.934082,0.3837891,1.8376465,0.5216064,2.6875,0.6387939c1.7106934,0.1853638,3.2915039,0.0184326,4.8198242-0.2289429
		c0.7648926-0.1223755,1.5129395-0.2863159,2.244873-0.4879761c0.729248-0.2070312,1.4699707-0.3677368,2.1411133-0.7266846
		c0.100769-0.0592651,0.2051392-0.1049194,0.3069458-0.1603394c-0.0232544,0.4877319-0.0637207,0.9786987-0.130188,1.4716797
		c-0.1774902,1.2938843-0.4265137,2.6564941-0.7714844,3.9494019c-0.6887207,2.6038208-1.7797852,5.1029663-3.2702637,7.2672119
		c-1.4814453,2.1594849-3.3984375,3.977356-5.5922852,4.980896c-1.0996094,0.4797363-2.2509766,0.7857056-3.423584,0.8135986
		c-1.1469727,0.050415-2.4194336-0.1494141-3.4128418-0.5219116c-2.0463867-0.7729492-3.6081543-2.666748-4.519043-4.9992065
		c-0.9221191-2.3309326-1.3037109-4.9995117-1.2641602-7.6700439c0.1196289-5.3684692,1.5412598-10.8596802,4.9250488-14.8052368
		c1.6745605-1.9715576,3.8359375-3.5269165,6.2802734-4.3867798c1.2172852-0.4363403,2.503418-0.7161865,3.809082-0.760376
		c1.3232422-0.097229,2.6044922,0.0476074,3.9318848,0.3745728c0.5083008,0.1251831,1.0461426-0.1381226,1.248291-0.6375732
		c0.2219238-0.5480347-0.0422363-1.1722412-0.590332-1.3942261c-1.4104004-0.572998-3.0075684-0.9536743-4.5715332-1.005188
		c-1.5793457-0.0957031-3.1826172,0.0701294-4.7165527,0.4924927c-3.0898438,0.7931519-5.9057617,2.5649414-8.0839844,4.8733521
		c-2.2260742,2.2910767-3.746582,5.1454468-4.7597656,8.0874023c-1.0080566,2.9738159-1.4655762,5.9770508-1.5710449,9.0800171
		c-0.0656738,3.0844727,0.2727051,6.2591553,1.4802246,9.305603c0.6101074,1.5132446,1.4414062,2.9985352,2.6000977,4.2954712
		c1.1374512,1.3057861,2.6464844,2.3792725,4.3193359,3.022644c1.7148438,0.6294556,3.3583984,0.8230591,5.090332,0.7394409
		c1.715332-0.0762939,3.3984375-0.5504761,4.9228516-1.256958c3.0500488-1.4655762,5.3847656-3.8599243,7.0991211-6.4775391
		c1.7250977-2.6326904,2.9006348-5.5314941,3.6237793-8.5179443c0.355957-1.5043335,0.6235352-2.9904175,0.6879883-4.5715942
		c0.0372925-1.0314941-0.0245972-2.0861206-0.1958618-3.1394653c0.2070312-0.0866699,0.4150391-0.1706543,0.6194458-0.2641602
		c1.3510742-0.586731,2.6804199-1.2088013,3.9931641-1.8572998c1.786377-0.852417,3.5286865-1.7797241,5.2622681-2.7224121
		c-1.1018066,2.3626709-1.8986816,4.8345947-2.4031372,7.3553467c-0.5065918,2.6422119-0.7861328,5.392395-0.4729004,8.2036133
		c0.2875977,2.7907715,1.1643066,5.6879883,2.9851074,8.1351929c1.777832,2.4547729,4.5593262,4.3078613,7.6240234,4.9156494
		c3.0666504,0.6134033,6.2922363-0.0023193,8.9345703-1.4968872l0.0019531-0.0011597
		c1.1225586-0.6359863,1.5168457-2.0614624,0.8808594-3.1838379c-0.6362305-1.1223755-2.0615234-1.5166626-3.1838379-0.8806763
		c-1.762207,0.9984741-3.8198242,1.3782349-5.737793,1.0050659c-1.9143066-0.3720093-3.6716309-1.4483032-4.8996582-3.0783081
		c-1.2426758-1.6177979-1.9912109-3.7094727-2.2822266-5.934082c-0.3171387-2.2260742-0.1577148-4.5859375,0.2241211-6.9212036
		c0.8024902-4.677063,2.5480957-9.3001709,5.7126465-12.6112671c1.5600586-1.6503296,3.4875488-2.9111938,5.6269531-3.4995117
		c2.1228027-0.5950317,4.5175781-0.6057739,6.4406738,0.3032837l0.012207,0.0057983
		C153.2073364,35.6820679,153.9529419,35.4474487,154.2893677,34.8417358z M116.6404419,46.4584351
		c-0.6599121,0.1769409-1.3149414,0.3517456-1.9648438,0.5111084c-1.296875,0.3053589-2.6096191,0.5075684-3.7800293,0.4561157
		c-0.5849609-0.0049438-1.114502-0.1656494-1.4960938-0.3800659c-0.3842773-0.2163696-0.6384277-0.3822632-0.9436035-0.6435547
		c-0.1369629-0.1209717-0.307373-0.3473511-0.3452148-0.5143433c-0.0498047-0.1703491-0.0666504-0.3276978-0.0517578-0.493103
		c0.0256348-0.3253784,0.2089844-0.72052,0.5454102-1.1050415c0.6821289-0.7744751,1.8222656-1.3977051,3.0117188-1.7439575
		c1.1992188-0.3530273,2.4946289-0.4429932,3.704834-0.2489014c1.2126465,0.2008667,2.3217773,0.7255249,3.1428223,1.5391846
		c0.5404053,0.5320435,0.9313354,1.2014771,1.2011108,1.9358521c-0.3344116,0.0771484-0.6738892,0.1366577-1.0216675,0.1668091
		C117.9431763,46.0282593,117.3032837,46.2865601,116.6404419,46.4584351z"/>
	<path class="st0" d="M61.7869263,36.8897095c-0.8867188-1.8362427-2.1975098-3.538208-3.8476562-4.8286743
		c-0.3510742-0.274292-0.722168-0.5184326-1.0982056-0.7529297c0.6055298-0.9291992,1.1712036-1.8829956,1.6897583-2.8632202
		c1.737793-3.3464355,3.1010742-6.963623,3.4907227-10.8856201c0.1967773-1.9497681,0.137207-3.9906616-0.3703613-5.9900513
		c-0.4880371-1.9974976-1.4829102-3.937561-2.8820801-5.4880371c-0.6953125-0.7767944-1.4785156-1.4667358-2.3208008-2.0369873
		c-0.8293457-0.5693359-1.689209-1.0543213-2.5976562-1.477356c-1.8193359-0.8291626-3.8056641-1.2966919-5.7770996-1.3887939
		c-3.9699707-0.206543-7.7355957,0.9627686-11.0717773,2.583313c-3.3569336,1.6370239-6.3840332,3.7540283-9.1984863,6.0725098
		c-2.8068848,2.3512573-5.4353027,4.8024902-7.8796387,7.5984497c-0.5131836,0.5872192-0.4584961,1.4801025,0.1252441,1.9996338
		c0.5871582,0.522522,1.4865723,0.4702148,2.0090332-0.1168823l0.0393066-0.0440674
		c4.0604248-4.5620117,8.8624878-8.7606201,14.184082-11.6988525l-4.354187,18.8268433
		c-1.6577148,7.0406494-3.3330078,14.0806274-5.3310547,20.9638672c-1,3.4365845-2.0756836,6.8449707-3.4155273,10.0653076
		c-1.3430176,3.1880493-2.9316406,6.3203735-5.2043457,8.3261108c-1.1391602,0.9777832-2.4155273,1.690918-3.9123535,2.029541
		c-0.7492676,0.1616211-1.5253906,0.2879639-2.3439941,0.3068848c-0.8300781,0.0532837-1.4899902,0.0317383-2.2070312-0.1253662
		c-1.3935547-0.2878418-2.6889648-1.0079346-3.7182617-2.135376c-1.0327148-1.12146-1.7734375-2.5968018-2.2717285-4.2116699
		l-0.0090332-0.0298462c-0.1335449-0.4329834-0.5498047-0.7351074-1.0219727-0.7061768
		c-0.5541992,0.0339966-0.9758301,0.5106812-0.9418945,1.0648193c0.1193848,1.9476318,0.6818848,3.9708862,1.8994141,5.7097778
		c1.1611328,1.7651367,3.052002,3.1625366,5.1743164,3.760437c1.0351562,0.3104248,2.2028809,0.4416504,3.1821289,0.4116821
		c0.994873,0.0160522,2.0251465-0.0906372,3.0537109-0.2722168c2.0637207-0.3693237,4.1206055-1.3425903,5.7519531-2.6950684
		c1.6408691-1.3585815,2.8625488-3.00354,3.9008789-4.6608276c1.0380859-1.6687622,1.8291016-3.4015503,2.5722656-5.1316528
		c1.4631348-3.4693604,2.5915527-6.9817505,3.6320801-10.4996338c2.0534668-7.0418091,3.7434082-14.1135864,5.4189453-21.1834717
		c1.6726074-7.0682373,3.2541504-14.1470337,4.8144531-21.2277222c0.0534058-0.2427979,0.0547485-0.4838257,0.0253296-0.7177734
		c2.2719727-0.7808228,4.6135254-1.2108154,6.8945312-1.0439453c1.5854492,0.131897,3.1140137,0.5529785,4.5178223,1.2504272
		c1.402832,0.7218018,2.6950684,1.6716309,3.6003418,2.819519c1.8928223,2.291687,2.3498535,5.4658203,1.9289551,8.6281738
		c-0.4353027,3.1745605-1.6196289,6.3567505-3.232666,9.2838745c-0.6201782,1.1126709-1.3080444,2.1929932-2.0307007,3.2457275
		c-0.104248-0.0220337-0.206604-0.0576172-0.3110962-0.0769653c-1.9929199-0.3822632-4.0129395-0.3430176-5.9592285,0.0383301
		c-1.9448242,0.3986816-3.8359375,1.123291-5.5300293,2.4746704c-0.8186035,0.6935425-1.6398926,1.6259155-1.9626465,2.9589233
		c-0.1582031,0.6561279-0.1362305,1.3890381,0.0539551,2.0332031c0.1809082,0.6452026,0.5209961,1.2110596,0.8598633,1.6588745
		c0.6669922,0.9470825,1.8295898,1.7790527,3.0949707,2.050293c1.2612305,0.2845459,2.4736328,0.1074219,3.5175781-0.1907959
		c2.1262207-0.6026001,3.765625-1.8162842,5.2097168-3.1069336c1.0979614-0.9900513,2.1028442-2.0494385,3.0253296-3.1651611
		c0.3134155,0.2108154,0.612793,0.4386597,0.8943481,0.6848755c2.2353516,1.9456177,3.3769531,4.9637451,3.6914062,8.1643066
		c0.3337402,3.2438965,0.0126953,6.5341187-0.8588867,9.7092285c-0.8928223,3.1591797-2.354248,6.1831055-4.3830566,8.7016602
		c-2.0053711,2.5219116-4.5578613,4.5941772-7.5292969,5.6466064c-1.4775391,0.5338745-3.0395508,0.8516235-4.6357422,0.8935547
		c-1.6032715,0.0836182-3.168457-0.0684204-4.6386719-0.5498047c-1.4604492-0.4835205-2.8483887-1.2237549-4.0273438-2.2817993
		c-0.5900879-0.5238647-1.1379395-1.1099243-1.6367188-1.7420044c-0.487793-0.6165771-0.9492188-1.3646851-1.2634277-1.9862061
		L30.210022,61.430542c-0.2468262-0.4898682-0.8173828-0.7459106-1.3601074-0.5808105
		c-0.6071777,0.1847534-0.949707,0.8267212-0.7648926,1.4338989c0.3178711,1.0454102,0.7226562,1.8695068,1.2280273,2.7310181
		c0.498291,0.8442383,1.0842285,1.6453247,1.7685547,2.3674927c1.3510742,1.4539795,3.0471191,2.6607056,4.9387207,3.3884888
		c3.8120117,1.4737549,7.9191895,1.3892212,11.7224121,0.1831055c1.9008789-0.6027222,3.6945801-1.522644,5.3037109-2.6707153
		c1.6132812-1.1430664,3.0720215-2.4877319,4.2937012-4.0060425c2.4772949-3.0164795,4.2089844-6.5272217,5.2937012-10.2077026
		c1.0800781-3.6798706,1.4121094-7.6273804,0.8535156-11.4633179
		C63.1948853,40.6773071,62.6895142,38.7275391,61.7869263,36.8897095z M48.7507935,34.3468018
		c-1.1730957,1.1089478-2.4279785,2.0943604-3.6342773,2.7906494c-1.2573242,0.656189-2.2895508,0.8132935-3.0480957-0.1620483
		c-0.4055176-0.5062256-0.4760742-0.8979492-0.380127-1.3013306c0.0991211-0.4168701,0.4760742-0.9335327,1.0185547-1.3664551
		c1.0952148-0.8907471,2.670166-1.4165649,4.2177734-1.6405029c1.1367188-0.1726685,2.2887573-0.1647339,3.4025269,0.0002441
		C49.8197632,33.2505493,49.296936,33.8153687,48.7507935,34.3468018z"/>
</g>
</svg>
