<?xml version="1.0" encoding="utf-8"?>
<!-- Generator: Adobe Illustrator 21.1.0, SVG Export Plug-In . SVG Version: 6.00 Build 0)  -->
<svg version="1.1" id="Слой_1" xmlns="http://www.w3.org/2000/svg" xmlns:xlink="http://www.w3.org/1999/xlink" x="0px" y="0px"
	 viewBox="0 0 32 32" style="enable-background:new 0 0 32 32;" xml:space="preserve">
<g>
	<g>
		<path d="M21,3.3c4.3,0,7.8,3.5,7.8,7.8s-3.5,7.8-7.8,7.8c-4.3,0-7.8-3.5-7.8-7.8S16.7,3.3,21,3.3 M21,1.1c-5.5,0-10,4.5-10,10
			s4.5,10,10,10c5.5,0,10-4.5,10-10S26.5,1.1,21,1.1L21,1.1z"/>
	</g>
	<g>
		<path d="M2.7,30.5c-0.3,0-0.6-0.1-0.8-0.3c-0.4-0.4-0.4-1.1,0-1.5L13.5,17c0.4-0.4,1.1-0.4,1.5,0c0.4,0.4,0.4,1.1,0,1.5L3.5,30.2
			C3.2,30.4,3,30.5,2.7,30.5z"/>
	</g>
</g>
</svg>
