<?xml version="1.0" encoding="utf-8"?>
<!-- Generator: Adobe Illustrator 21.1.0, SVG Export Plug-In . SVG Version: 6.00 Build 0)  -->
<svg version="1.1" id="Слой_1" xmlns="http://www.w3.org/2000/svg" xmlns:xlink="http://www.w3.org/1999/xlink" x="0px" y="0px"
	 viewBox="0 0 64 64" style="enable-background:new 0 0 64 64;" xml:space="preserve">
<style type="text/css">
	.st0{fill:#FFFFFF;stroke:#000000;stroke-width:3;stroke-miterlimit:10;}
	.st1{fill:none;stroke:#000000;stroke-width:3;stroke-miterlimit:10;}
	.st2{fill:none;stroke:#000000;stroke-width:3;stroke-linecap:round;stroke-miterlimit:10;}
	.st3{fill:none;stroke:#000000;stroke-width:3;stroke-linecap:round;stroke-linejoin:round;stroke-miterlimit:10;}
	.st4{fill:none;stroke:#FFFFFF;stroke-width:3;stroke-linecap:round;stroke-linejoin:round;stroke-miterlimit:10;}
	.st5{fill:#FFFFFF;}
</style>
<g>
	<path class="st3" d="M22,29.3c-6.4-8.9-8.8-17.3-5.3-20.9c4.6-4.6,17.6,0.9,29.1,12.3s16.9,24.4,12.3,29.1
		C54.5,53.3,46,50.8,37,44.3"/>
	<path class="st3" d="M10,55.6c8.5,8.5,15.9,6.2,20.3,1.8c5.1-5.1,2.4-12.7,7.2-17.5l0,0c3.3-3.3,3.3-8.5,0-11.8l0,0"/>
	<path class="st3" d="M10,55.6c-8.5-8.5-6.2-15.9-1.8-20.3c5.1-5.1,12.7-2.4,17.5-7.2l0,0c3.3-3.3,8.5-3.3,11.8,0l0,0"/>
	<path class="st3" d="M39.5,14.3c0,0,1.1-16.6,14.7-2.9"/>
	<path class="st3" d="M51.3,26.1c0,0,16.6-1.1,2.9-14.7"/>
	<path class="st3" d="M11.8,40.6c0,0-3.3,5.4,1.4,8.6"/>
</g>
</svg>
