<?xml version="1.0" encoding="utf-8"?>
<!-- Generator: Adobe Illustrator 21.1.0, SVG Export Plug-In . SVG Version: 6.00 Build 0)  -->
<svg version="1.1" id="Слой_1" xmlns="http://www.w3.org/2000/svg" xmlns:xlink="http://www.w3.org/1999/xlink" x="0px" y="0px"
	 viewBox="0 0 64 64" style="enable-background:new 0 0 64 64;" xml:space="preserve">
<style type="text/css">
	.st0{fill:#FFFFFF;stroke:#000000;stroke-width:3;stroke-miterlimit:10;}
	.st1{fill:none;stroke:#000000;stroke-width:3;stroke-miterlimit:10;}
	.st2{fill:none;stroke:#000000;stroke-width:3;stroke-linecap:round;stroke-miterlimit:10;}
	.st3{fill:none;stroke:#000000;stroke-width:3;stroke-linecap:round;stroke-linejoin:round;stroke-miterlimit:10;}
	.st4{fill:none;stroke:#FFFFFF;stroke-width:3;stroke-linecap:round;stroke-linejoin:round;stroke-miterlimit:10;}
	.st5{fill:#FFFFFF;}
</style>
<g>
	<path class="st3" d="M34.7,4.8c0.2,1.6-0.1,3.2-0.8,4.7c-0.6,1.4-1.6,2.6-2.8,3.7l0,0c-4.6,3.8-4.9,10.1-0.8,14.2"/>
	<path class="st3" d="M38,17c-1.8,2.1-1.5,5.1,0.8,6.8l0,0c2.3,1.7,2.6,4.7,0.8,6.8"/>
</g>
<path class="st3" d="M24.9,37.5c0,0-3.6,3.2-3.6,6.2"/>
<path class="st3" d="M33.2,37.5c0,0-3.6,3.2-3.6,6.2"/>
<path class="st3" d="M42.1,37.5c0,0-3.6,3.2-3.6,6.2"/>
<path class="st3" d="M32.2,36c16.9,0,25.4,10.3,28.2,14.4c0.7,1,1,2.1,1,3.3v0c0,3.4-2.7,6.1-6.1,6.1H33.9h-3.4H9.1
	c-3.4,0-6.1-2.7-6.1-6.1v0c0-1.2,0.3-2.3,1-3.3C6.8,46.3,15.3,36,32.2,36"/>
</svg>
