<?xml version="1.0" encoding="utf-8"?>
<!-- Generator: Adobe Illustrator 21.1.0, SVG Export Plug-In . SVG Version: 6.00 Build 0)  -->
<svg version="1.1" id="Слой_1" xmlns="http://www.w3.org/2000/svg" xmlns:xlink="http://www.w3.org/1999/xlink" x="0px" y="0px"
	 viewBox="0 0 64 64" style="enable-background:new 0 0 64 64;" xml:space="preserve">
<style type="text/css">
	.st0{fill:#FFFFFF;stroke:#000000;stroke-width:3;stroke-miterlimit:10;}
	.st1{fill:none;stroke:#000000;stroke-width:3;stroke-miterlimit:10;}
	.st2{fill:none;stroke:#000000;stroke-width:3;stroke-linecap:round;stroke-miterlimit:10;}
	.st3{fill:none;stroke:#000000;stroke-width:3;stroke-linecap:round;stroke-linejoin:round;stroke-miterlimit:10;}
	.st4{fill:none;stroke:#FFFFFF;stroke-width:3;stroke-linecap:round;stroke-linejoin:round;stroke-miterlimit:10;}
	.st5{fill:#FFFFFF;}
</style>
<g>
	<path class="st3" d="M10.1,23.8c0,0-8.1,37,19.7,37s19.4-36.5,19.4-36.5L10.1,23.8z"/>
	<path class="st3" d="M50.1,32c0,0,2.5-2.4,6.3-1.8c6.3,1,5.8,14.9-5.8,14.9"/>
	<path class="st3" d="M27.6,3.2c-2.2,2-2.2,5.3,0,7.4l0,0c2.2,2,2.2,5.3,0,7.4"/>
	<path class="st3" d="M18.7,11.9c-2.2,2.2-2.2,5.8,0,8.1c1.1,1.1,1.7,2.5,1.7,4"/>
	<path class="st3" d="M39,11.9c-2.2,2.2-2.2,5.8,0,8.1c1.1,1.1,1.7,2.6,1.7,4c0,0.1,0,0.1,0,0.2"/>
</g>
</svg>
