<?xml version="1.0" encoding="utf-8"?>
<!-- Generator: Adobe Illustrator 21.1.0, SVG Export Plug-In . SVG Version: 6.00 Build 0)  -->
<svg version="1.1" id="Слой_1" xmlns="http://www.w3.org/2000/svg" xmlns:xlink="http://www.w3.org/1999/xlink" x="0px" y="0px"
	 viewBox="0 0 64 64" style="enable-background:new 0 0 64 64;" xml:space="preserve">
<style type="text/css">
	.st0{fill:#FFFFFF;stroke:#000000;stroke-width:3;stroke-miterlimit:10;}
	.st1{fill:none;stroke:#000000;stroke-width:3;stroke-miterlimit:10;}
	.st2{fill:none;stroke:#000000;stroke-width:3;stroke-linecap:round;stroke-miterlimit:10;}
	.st3{fill:none;stroke:#000000;stroke-width:3;stroke-linecap:round;stroke-linejoin:round;stroke-miterlimit:10;}
	.st4{fill:none;stroke:#FFFFFF;stroke-width:3;stroke-linecap:round;stroke-linejoin:round;stroke-miterlimit:10;}
	.st5{fill:#FFFFFF;}
</style>
<g>
	<g>
		<line class="st3" x1="32.2" y1="23.7" x2="32.2" y2="10.8"/>
		<polyline class="st3" points="38.9,3.2 32.2,9.9 25.6,3.2 		"/>
	</g>
	<g>
		<line class="st3" x1="25" y1="28.1" x2="13.7" y2="21.5"/>
		<polyline class="st3" points="10.4,11.9 12.9,21 3.8,23.5 		"/>
	</g>
	<g>
		<line class="st3" x1="25.5" y1="36.1" x2="13.7" y2="42.9"/>
		<polyline class="st3" points="3.8,41 12.9,43.4 10.4,52.5 		"/>
	</g>
	<g>
		<line class="st3" x1="32.2" y1="53.6" x2="32.2" y2="39.8"/>
		<polyline class="st3" points="25.6,61.3 32.2,54.6 38.9,61.3 		"/>
	</g>
	<g>
		<line class="st3" x1="50.8" y1="42.9" x2="39" y2="36.1"/>
		<polyline class="st3" points="54,52.5 51.6,43.4 60.7,41 		"/>
	</g>
	<g>
		<line class="st3" x1="50.8" y1="21.5" x2="39.4" y2="28.1"/>
		<polyline class="st3" points="60.7,23.5 51.6,21 54,11.9 		"/>
	</g>
	<circle class="st3" cx="32.2" cy="31.7" r="8"/>
</g>
</svg>
