<?xml version="1.0" encoding="utf-8"?>
<!-- Generator: Adobe Illustrator 22.0.0, SVG Export Plug-In . SVG Version: 6.00 Build 0)  -->
<svg version="1.1" id="Слой_1" xmlns="http://www.w3.org/2000/svg" xmlns:xlink="http://www.w3.org/1999/xlink" x="0px" y="0px"
	 viewBox="0 0 32 32" style="enable-background:new 0 0 32 32;" xml:space="preserve">
<style type="text/css">
	.st0{fill-rule:evenodd;clip-rule:evenodd;fill:#B0B8C1;}
	.st1{fill:#B0B8C1;}
	.st2{fill:#FFFFFF;}
	.st3{fill:#C15044;}
</style>
<g>
	<path class="st1" d="M4.4,15.8c0.1-3.9,3.6-7.3,7.5-7.1c1.9-0.1,3.6,0.7,5,1.9c-0.6,0.7-1.2,1.4-1.9,2c-1.7-1.2-4.1-1.5-5.8-0.2
		C6.7,14,6.6,18,9,19.8c2.3,2.1,6.6,1,7.2-2.1c-1.4,0-2.9,0-4.3,0c0-0.9,0-1.7,0-2.6c2.4,0,4.8,0,7.2,0c0.1,2-0.1,4.1-1.4,5.8
		c-1.9,2.6-5.6,3.4-8.5,2.3C6.2,22.1,4.1,18.9,4.4,15.8z"/>
	<path class="st1" d="M23.7,12.9c0.7,0,1.4,0,2.1,0c0,0.7,0,1.4,0,2.1c0.7,0,1.4,0,2.1,0c0,0.7,0,1.4,0,2.1c-0.7,0-1.4,0-2.1,0
		c0,0.7,0,1.4,0,2.1c-0.7,0-1.4,0-2.1,0c0-0.7,0-1.4,0-2.1c-0.7,0-1.4,0-2.1,0c0-0.7,0-1.4,0-2.1c0.7,0,1.4,0,2.1,0
		C23.7,14.4,23.7,13.6,23.7,12.9z"/>
</g>
</svg>
