<?xml version="1.0" encoding="utf-8"?>
<!-- Generator: Adobe Illustrator 21.1.0, SVG Export Plug-In . SVG Version: 6.00 Build 0)  -->
<svg version="1.1" id="Слой_1" xmlns="http://www.w3.org/2000/svg" xmlns:xlink="http://www.w3.org/1999/xlink" x="0px" y="0px"
	 viewBox="0 0 64 64" style="enable-background:new 0 0 64 64;" xml:space="preserve">
<style type="text/css">
	.st0{fill:#FFFFFF;stroke:#000000;stroke-width:3;stroke-miterlimit:10;}
	.st1{fill:none;stroke:#000000;stroke-width:3;stroke-miterlimit:10;}
	.st2{fill:none;stroke:#000000;stroke-width:3;stroke-linecap:round;stroke-miterlimit:10;}
	.st3{fill:none;stroke:#000000;stroke-width:3;stroke-linecap:round;stroke-linejoin:round;stroke-miterlimit:10;}
	.st4{fill:none;stroke:#FFFFFF;stroke-width:3;stroke-linecap:round;stroke-linejoin:round;stroke-miterlimit:10;}
	.st5{fill:#FFFFFF;}
</style>
<g>
	<polyline class="st3" points="36.9,33.7 57.8,33.7 57.8,44 36.9,44 	"/>
	<polyline class="st3" points="26.6,44 6.2,44 6.2,33.7 26.6,33.7 	"/>
	<path class="st3" d="M53.8,17.5H10.2c-2.2,0-4,1.8-4,4v35.9c0,2.2,1.8,4,4,4h43.6c2.2,0,4-1.8,4-4V21.5
		C57.8,19.3,56,17.5,53.8,17.5z"/>
	<line class="st3" x1="26.6" y1="18.5" x2="26.6" y2="61"/>
	<line class="st3" x1="36.9" y1="18.5" x2="36.9" y2="61"/>
	<path class="st3" d="M27.7,17.5l-11.1-4.2c-3.5-1.3-5-5.5-3.1-8.7l0,0c2.2-3.6,7.3-3.8,9.8-0.4L32,16.1"/>
	<path class="st3" d="M36.3,17.5l11.1-4.2c3.5-1.3,5-5.5,3.1-8.7l0,0c-2.2-3.6-7.3-3.8-9.8-0.4L32,16.1"/>
</g>
</svg>
