<?xml version="1.0" encoding="utf-8"?>
<!-- Generator: Adobe Illustrator 22.0.0, SVG Export Plug-In . SVG Version: 6.00 Build 0)  -->
<svg version="1.1" id="Слой_1" xmlns="http://www.w3.org/2000/svg" xmlns:xlink="http://www.w3.org/1999/xlink" x="0px" y="0px"
	 viewBox="0 0 32 32" style="enable-background:new 0 0 32 32;" xml:space="preserve">
<style type="text/css">
	.st0{fill-rule:evenodd;clip-rule:evenodd;fill:#B0B8C1;}
	.st1{fill:#B0B8C1;}
	.st2{fill:#FFFFFF;}
	.st3{fill:#C15044;}
</style>
<g>
	<path class="st1" d="M20.4,6.7h-8.9c-3,0-5.5,2.5-5.5,5.5v8.9c0,3,2.5,5.5,5.5,5.5h8.9c3,0,5.5-2.5,5.5-5.5v-8.9
		C25.9,9.2,23.4,6.7,20.4,6.7L20.4,6.7z M24.1,21.1c0,2.1-1.7,3.7-3.7,3.7h-8.9c-2.1,0-3.7-1.7-3.7-3.7v-8.9c0-2.1,1.7-3.7,3.7-3.7
		h8.9c2.1,0,3.7,1.7,3.7,3.7V21.1z M24.1,21.1"/>
	<path class="st1" d="M15.9,11.6c-2.8,0-5.1,2.3-5.1,5.1c0,2.8,2.3,5.1,5.1,5.1c2.8,0,5.1-2.3,5.1-5.1
		C21.1,13.9,18.8,11.6,15.9,11.6L15.9,11.6z M15.9,20c-1.9,0-3.4-1.5-3.4-3.4c0-1.9,1.5-3.4,3.4-3.4s3.4,1.5,3.4,3.4
		C19.3,18.5,17.8,20,15.9,20L15.9,20z M15.9,20"/>
	<path class="st1" d="M21.3,10.1c-0.3,0-0.7,0.1-0.9,0.4C20.1,10.7,20,11,20,11.4c0,0.3,0.1,0.7,0.4,0.9c0.2,0.2,0.6,0.4,0.9,0.4
		c0.3,0,0.7-0.1,0.9-0.4c0.2-0.2,0.4-0.6,0.4-0.9c0-0.3-0.1-0.7-0.4-0.9C21.9,10.2,21.6,10.1,21.3,10.1L21.3,10.1z M21.3,10.1"/>
</g>
</svg>
