<?xml version="1.0" encoding="utf-8"?>
<!-- Generator: Adobe Illustrator 22.0.0, SVG Export Plug-In . SVG Version: 6.00 Build 0)  -->
<svg version="1.1" id="Слой_1" xmlns="http://www.w3.org/2000/svg" xmlns:xlink="http://www.w3.org/1999/xlink" x="0px" y="0px"
	 viewBox="0 0 32 32" style="enable-background:new 0 0 32 32;" xml:space="preserve">
<style type="text/css">
	.st0{fill-rule:evenodd;clip-rule:evenodd;fill:#B0B8C1;}
	.st1{fill:#B0B8C1;}
	.st2{fill:#FFFFFF;}
	.st3{fill:#C15044;}
</style>
<path class="st0" d="M20.3,21.7c0.3,0.2,0.4,0.6,0.4,0.9c0,0.4-0.1,0.6-0.4,0.9c-0.3,0.2-0.6,0.4-0.9,0.4c-0.4,0-0.7-0.1-0.9-0.4
	L16,21.1l-2.4,2.4c-0.3,0.2-0.6,0.4-0.9,0.4s-0.7-0.1-0.9-0.4c-0.3-0.2-0.4-0.5-0.4-0.9c0-0.4,0.1-0.7,0.4-0.9l2.5-2.4
	c-0.9-0.2-1.8-0.6-2.6-1.1c-0.3-0.2-0.5-0.5-0.6-0.8c-0.1-0.4,0-0.7,0.2-1c0.2-0.3,0.4-0.5,0.8-0.6c0.3-0.1,0.7,0,1,0.2
	c0.9,0.6,1.9,0.8,3,0.8s2.1-0.3,3-0.8c0.3-0.2,0.6-0.2,1-0.2c0.4,0.1,0.6,0.3,0.8,0.6c0.2,0.3,0.2,0.6,0.1,1
	c-0.1,0.4-0.3,0.6-0.6,0.8c-0.8,0.5-1.7,0.9-2.6,1.1L20.3,21.7z M11.6,11.2c0-1.2,0.4-2.2,1.3-3.1c0.9-0.8,1.9-1.3,3.2-1.3
	s2.3,0.4,3.1,1.3C20,9,20.5,10,20.5,11.2c0,1.2-0.4,2.2-1.3,3.1c-0.9,0.8-1.9,1.3-3.1,1.3s-2.3-0.4-3.2-1.3
	C12,13.5,11.6,12.4,11.6,11.2z M14.2,11.2c0,0.5,0.2,0.9,0.6,1.3c0.4,0.4,0.8,0.5,1.3,0.5c0.5,0,0.9-0.2,1.3-0.5
	c0.4-0.4,0.5-0.8,0.5-1.3c0-0.5-0.2-0.9-0.5-1.3c-0.4-0.4-0.8-0.5-1.3-0.5c-0.5,0-0.9,0.2-1.3,0.5C14.3,10.3,14.2,10.7,14.2,11.2z"
	/>
</svg>
