<?xml version="1.0" encoding="utf-8"?>
<!-- Generator: Adobe Illustrator 21.1.0, SVG Export Plug-In . SVG Version: 6.00 Build 0)  -->
<svg version="1.1" id="Слой_1" xmlns="http://www.w3.org/2000/svg" xmlns:xlink="http://www.w3.org/1999/xlink" x="0px" y="0px"
	 viewBox="0 0 64 64" style="enable-background:new 0 0 64 64;" xml:space="preserve">
<style type="text/css">
	.st0{fill:#FFFFFF;stroke:#000000;stroke-width:3;stroke-miterlimit:10;}
	.st1{fill:none;stroke:#000000;stroke-width:3;stroke-miterlimit:10;}
	.st2{fill:none;stroke:#000000;stroke-width:3;stroke-linecap:round;stroke-miterlimit:10;}
	.st3{fill:none;stroke:#000000;stroke-width:3;stroke-linecap:round;stroke-linejoin:round;stroke-miterlimit:10;}
	.st4{fill:none;stroke:#FFFFFF;stroke-width:3;stroke-linecap:round;stroke-linejoin:round;stroke-miterlimit:10;}
	.st5{fill:#FFFFFF;}
</style>
<g>
	<path class="st3" d="M15.1,13.9l-2.7-4c-0.4-0.5-0.7-1.1-0.7-1.8c0-0.7,0.3-1.4,0.8-1.8c0.5-0.5,1.1-0.8,1.8-0.8h18"/>
	<path class="st3" d="M10.3,25c0,0.2,0,0.3,0,0.5v24.9c0,4.6,3.8,8.4,8.4,8.4h13.7"/>
	<path class="st3" d="M32.3,5.5h18c0.7,0,1.4,0.3,1.8,0.8c0.5,0.5,0.8,1.1,0.8,1.8c0,0.7-0.2,1.3-0.7,1.8l-2.7,4l0.5,0.5"/>
	<path class="st3" d="M54.4,25c0,0.2,0,0.3,0,0.5v24.9c0,4.6-3.8,8.4-8.4,8.4H32.3"/>
	<path class="st3" d="M49.2,13.9l9,8.3C59.6,23,59,25,57.5,25h-50c-1.5,0-2-2-0.8-2.7l8.4-8.4H49.2"/>
	<path class="st3" d="M10.7,33.1c0,0,2.2,6.4,15,6.5c12.9,0.1,13.9-6.2,27.3-6.5"/>
</g>
</svg>
