<?xml version="1.0" encoding="utf-8"?>
<!-- Generator: Adobe Illustrator 21.1.0, SVG Export Plug-In . SVG Version: 6.00 Build 0)  -->
<svg version="1.1" id="Слой_1" xmlns="http://www.w3.org/2000/svg" xmlns:xlink="http://www.w3.org/1999/xlink" x="0px" y="0px"
	 viewBox="0 0 64 64" style="enable-background:new 0 0 64 64;" xml:space="preserve">
<style type="text/css">
	.st0{fill:#FFFFFF;stroke:#000000;stroke-width:3;stroke-miterlimit:10;}
	.st1{fill:none;stroke:#000000;stroke-width:3;stroke-miterlimit:10;}
	.st2{fill:none;stroke:#000000;stroke-width:3;stroke-linecap:round;stroke-miterlimit:10;}
	.st3{fill:none;stroke:#000000;stroke-width:3;stroke-linecap:round;stroke-linejoin:round;stroke-miterlimit:10;}
	.st4{fill:none;stroke:#FFFFFF;stroke-width:3;stroke-linecap:round;stroke-linejoin:round;stroke-miterlimit:10;}
	.st5{fill:#FFFFFF;}
</style>
<path class="st3" d="M32,4h-6.8c-4,0-7.3,3.6-7.3,8v8.2L9.7,49.5c-1.4,5.1,2,10.4,6.9,10.4H32"/>
<path class="st3" d="M32,4h6.8c4,0,7.3,3.6,7.3,8v8.2l8.2,29.3c1.4,5.1-2,10.4-6.9,10.4H32"/>
<line class="st3" x1="23.6" y1="20.3" x2="46.1" y2="20.3"/>
<circle cx="26.4" cy="9.9" r="2.1"/>
<circle cx="36.8" cy="6" r="2.1"/>
<circle cx="34.9" cy="14.2" r="2.1"/>
<path class="st3" d="M13.1,37.3c0,0,4.1,6.8,11.3,6.8c9.2,0,10.5-8.4,21.1-8.4c2,0,3.7,0.2,5.1,0.6"/>
</svg>
