<?xml version="1.0" encoding="utf-8"?>
<!-- Generator: Adobe Illustrator 21.1.0, SVG Export Plug-In . SVG Version: 6.00 Build 0)  -->
<svg version="1.1" id="Слой_1" xmlns="http://www.w3.org/2000/svg" xmlns:xlink="http://www.w3.org/1999/xlink" x="0px" y="0px"
	 viewBox="0 0 64 64" style="enable-background:new 0 0 64 64;" xml:space="preserve">
<style type="text/css">
	.st0{fill:#FFFFFF;stroke:#000000;stroke-width:3;stroke-miterlimit:10;}
	.st1{fill:none;stroke:#000000;stroke-width:3;stroke-miterlimit:10;}
	.st2{fill:none;stroke:#000000;stroke-width:3;stroke-linecap:round;stroke-miterlimit:10;}
	.st3{fill:none;stroke:#000000;stroke-width:3;stroke-linecap:round;stroke-linejoin:round;stroke-miterlimit:10;}
	.st4{fill:none;stroke:#FFFFFF;stroke-width:3;stroke-linecap:round;stroke-linejoin:round;stroke-miterlimit:10;}
	.st5{fill:#FFFFFF;}
</style>
<g>
	<path class="st3" d="M55.8,41.3c-5.7,2.1-14.2,3.4-23.5,3.4c-9.7,0-18.3-1.4-24.1-3.6l0,0L14,54.5c1.5,3.6,5.1,5.9,9,5.9h18.6
		c4,0,7.6-2.5,9.1-6.2L55.8,41.3L55.8,41.3z"/>
	<path class="st3" d="M8.2,41.1c-0.8-1-9.7-11.5-2.2-18.8c3.4-3.2,7.5-3.6,11.2-2.9c5.9,1.1,10.9,5,10.9,5"/>
	<path class="st3" d="M19.7,19.2C22.6,5.3,35.9,4.7,35.9,4.7s-1,4.7,2.6,8.4"/>
	<path class="st3" d="M45.8,17.3c6.8,2.2,13.4,4,14.9,11.2c1.6,7.4-5,12.8-5,12.8"/>
	
		<ellipse transform="matrix(4.802959e-02 -0.9988 0.9988 4.802959e-02 18.005 57.9869)" class="st3" cx="39.4" cy="19.5" rx="6.6" ry="6.6"/>
	<path class="st3" d="M47.2,3.5c0,0,2.1,4.4-3.2,11.2"/>
</g>
</svg>
