<?xml version="1.0" encoding="utf-8"?>
<!-- Generator: Adobe Illustrator 21.1.0, SVG Export Plug-In . SVG Version: 6.00 Build 0)  -->
<svg version="1.1" id="Слой_1" xmlns="http://www.w3.org/2000/svg" xmlns:xlink="http://www.w3.org/1999/xlink" x="0px" y="0px"
	 viewBox="0 0 64 64" style="enable-background:new 0 0 64 64;" xml:space="preserve">
<style type="text/css">
	.st0{fill:#FFFFFF;stroke:#000000;stroke-width:3;stroke-miterlimit:10;}
	.st1{fill:none;stroke:#000000;stroke-width:3;stroke-miterlimit:10;}
	.st2{fill:none;stroke:#000000;stroke-width:3;stroke-linecap:round;stroke-miterlimit:10;}
	.st3{fill:none;stroke:#000000;stroke-width:3;stroke-linecap:round;stroke-linejoin:round;stroke-miterlimit:10;}
	.st4{fill:none;stroke:#FFFFFF;stroke-width:3;stroke-linecap:round;stroke-linejoin:round;stroke-miterlimit:10;}
	.st5{fill:#FFFFFF;}
</style>
<path class="st3" d="M21.3,62h21.4c6.7,0,12.2-5.5,12.2-12.2V29.6c0-2.8-0.7-5.6-2.1-8L46.5,9.9V3.2H18.4v6.7l-6.8,11.4
	C10,24,9.1,26.9,9.1,30v19.8C9.1,56.5,14.6,62,21.3,62z"/>
<line class="st3" x1="18.4" y1="9.9" x2="46.2" y2="9.9"/>
<path class="st3" d="M31.2,55.3c14.3,0.8,17.3-10.6,13.3-15.9s-12-0.7-12-0.7l0.1,0c0,0-7.5-5.5-12-0.7S17.7,54.5,32,55.3"/>
<path class="st3" d="M34.7,31.2c0,0-3.4,1.9-2.2,7.6"/>
</svg>
