<svg xmlns="http://www.w3.org/2000/svg" xmlns:xlink="http://www.w3.org/1999/xlink" width="0" height="0" style="position:absolute">
	
		<symbol id="FB" viewBox="0 0 32 32">
			<style>.st0{fill-rule:evenodd;clip-rule:evenodd}.st0,.st1{fill:#b0b8c1}.st2{fill:#fff}.st3{fill:#c15044}</style><path class="st1" d="M12.8 28.6V16.9h-3v-4.2h3.1V9.1c0-2.8 1.8-5.4 6-5.4 1.7 0 2.9.2 2.9.2l-.1 4H19c-1.5 0-1.8.7-1.8 1.9v3.1h4.5l-.2 4.2h-4.3v11.7h-4.4z"></path>
		</symbol>
	
		<symbol id="G" viewBox="0 0 32 32">
			<style>.st0{fill-rule:evenodd;clip-rule:evenodd}.st0,.st1{fill:#b0b8c1}.st2{fill:#fff}.st3{fill:#c15044}</style><path class="st1" d="M4.4 15.8c.1-3.9 3.6-7.3 7.5-7.1 1.9-.1 3.6.7 5 1.9-.6.7-1.2 1.4-1.9 2-1.7-1.2-4.1-1.5-5.8-.2C6.7 14 6.6 18 9 19.8c2.3 2.1 6.6 1 7.2-2.1h-4.3v-2.6h7.2c.1 2-.1 4.1-1.4 5.8-1.9 2.6-5.6 3.4-8.5 2.3-3-1.1-5.1-4.3-4.8-7.4zm19.3-2.9h2.1V15h2.1v2.1h-2.1v2.1h-2.1v-2.1h-2.1V15h2.1v-2.1z"></path>
		</symbol>
	
		<symbol id="INST" viewBox="0 0 32 32">
			<style>.st0{fill-rule:evenodd;clip-rule:evenodd}.st0,.st1{fill:#b0b8c1}.st2{fill:#fff}.st3{fill:#c15044}</style><path class="st1" d="M20.4 6.7h-8.9c-3 0-5.5 2.5-5.5 5.5v8.9c0 3 2.5 5.5 5.5 5.5h8.9c3 0 5.5-2.5 5.5-5.5v-8.9c0-3-2.5-5.5-5.5-5.5zm3.7 14.4c0 2.1-1.7 3.7-3.7 3.7h-8.9c-2.1 0-3.7-1.7-3.7-3.7v-8.9c0-2.1 1.7-3.7 3.7-3.7h8.9c2.1 0 3.7 1.7 3.7 3.7v8.9zm0 0"></path><path class="st1" d="M15.9 11.6c-2.8 0-5.1 2.3-5.1 5.1s2.3 5.1 5.1 5.1 5.1-2.3 5.1-5.1c.1-2.8-2.2-5.1-5.1-5.1zm0 8.4c-1.9 0-3.4-1.5-3.4-3.4s1.5-3.4 3.4-3.4 3.4 1.5 3.4 3.4-1.5 3.4-3.4 3.4zm5.4-9.9c-.3 0-.7.1-.9.4-.3.2-.4.5-.4.9 0 .3.1.7.4.9.2.2.6.4.9.4.3 0 .7-.1.9-.4.2-.2.4-.6.4-.9 0-.3-.1-.7-.4-.9-.3-.3-.6-.4-.9-.4zm0 0"></path>
		</symbol>
	
		<symbol id="O" viewBox="0 0 32 32">
			<style>.st0{fill-rule:evenodd;clip-rule:evenodd}.st0,.st1{fill:#b0b8c1}.st2{fill:#fff}.st3{fill:#c15044}</style><path class="st0" d="M20.3 21.7c.3.2.4.6.4.9 0 .4-.1.6-.4.9-.3.2-.6.4-.9.4-.4 0-.7-.1-.9-.4L16 21.1l-2.4 2.4c-.3.2-.6.4-.9.4s-.7-.1-.9-.4c-.3-.2-.4-.5-.4-.9s.1-.7.4-.9l2.5-2.4c-.9-.2-1.8-.6-2.6-1.1-.3-.2-.5-.5-.6-.8-.1-.4 0-.7.2-1 .2-.3.4-.5.8-.6.3-.1.7 0 1 .2.9.6 1.9.8 3 .8s2.1-.3 3-.8c.3-.2.6-.2 1-.2.4.1.6.3.8.6.2.3.2.6.1 1s-.3.6-.6.8c-.8.5-1.7.9-2.6 1.1l2.5 2.4zm-8.7-10.5c0-1.2.4-2.2 1.3-3.1.9-.8 1.9-1.3 3.2-1.3s2.3.4 3.1 1.3c.8.9 1.3 1.9 1.3 3.1 0 1.2-.4 2.2-1.3 3.1-.9.8-1.9 1.3-3.1 1.3s-2.3-.4-3.2-1.3c-.9-.8-1.3-1.9-1.3-3.1zm2.6 0c0 .5.2.9.6 1.3.4.4.8.5 1.3.5s.9-.2 1.3-.5c.4-.4.5-.8.5-1.3s-.2-.9-.5-1.3c-.4-.4-.8-.5-1.3-.5s-.9.2-1.3.5c-.5.4-.6.8-.6 1.3z"></path>
		</symbol>
	
		<symbol id="VK" viewBox="0 0 32 32">
			<style>.st0{fill-rule:evenodd;clip-rule:evenodd}.st0,.st1{fill:#b0b8c1}.st2{fill:#fff}.st3{fill:#c15044}</style><path class="st0" d="M15 23.7h1.3s.4 0 .6-.2c.2-.2.2-.6.2-.6s0-1.7.8-1.9c.8-.2 1.9 1.6 3 2.4.8.6 1.5.4 1.5.4h2.9s1.5-.1.8-1.2c-.1-.1-.4-.9-2.2-2.4-1.8-1.6-1.6-1.4.6-4.2 1.4-1.7 1.9-2.8 1.7-3.2-.2-.4-1.2-.3-1.2-.3h-3.3s-.2 0-.4.1-.3.3-.3.3-.5 1.3-1.2 2.5c-1.5 2.4-2.1 2.5-2.3 2.4-.6-.4-.4-1.4-.4-2.1 0-2.3.4-3.3-.7-3.5-.4-.1-.6-.1-1.5-.1-1.2 0-2.2 0-2.8.3-.4.2-.7.6-.5.6.2 0 .7.1 1 .5.3.4.3 1.4.3 1.4s.2 2.7-.5 3.1c-.4.2-1-.2-2.4-2.4-.7-1.1-1.2-2.3-1.2-2.3s-.1-.2-.3-.4c-.2-.1-.5-.2-.5-.2H4.9s-.5 0-.6.2c-.2.2 0 .5 0 .5s2.5 5.5 5.3 8.3c2.5 2.2 5.4 2 5.4 2z"></path>
		</symbol>
	
		<symbol id="YOUTUBE" viewBox="0 0 32 32">
			<style>.st0{fill-rule:evenodd;clip-rule:evenodd}.st0,.st1{fill:#b0b8c1}.st2{fill:#fff}.st3{fill:#c15044}</style><path class="st0" d="M10.2 9.8c-1.5 0-3.7 1.2-3.7 2.7V21c0 1.5 2.2 2.7 3.7 2.7h12.6c1.5 0 3.7-1.2 3.7-2.7v-8.6c0-1.5-2.2-2.7-3.7-2.7H10.2zm4.3 10v-6l6 3-6 3z"></path>
		</symbol>
	
		<symbol id="baby" viewBox="0 0 64 64">
			<style>.st0{fill:#fff;stroke-width:3;stroke-miterlimit:10}.st0,.st1,.st2,.st3{stroke:#000}.st1,.st2,.st3,.st4{stroke-width:3;stroke-miterlimit:10}.st1,.st2,.st3,.st4{fill:none}.st2,.st3,.st4{stroke-linecap:round}.st3,.st4{stroke-linejoin:round}.st4{stroke:#fff}.st5{fill:#fff}</style><path class="st3" d="M22 29.3c-6.4-8.9-8.8-17.3-5.3-20.9 4.6-4.6 17.6.9 29.1 12.3s16.9 24.4 12.3 29.1c-3.6 3.5-12.1 1-21.1-5.5"></path><path class="st3" d="M10 55.6c8.5 8.5 15.9 6.2 20.3 1.8 5.1-5.1 2.4-12.7 7.2-17.5 3.3-3.3 3.3-8.5 0-11.8"></path><path class="st3" d="M10 55.6c-8.5-8.5-6.2-15.9-1.8-20.3 5.1-5.1 12.7-2.4 17.5-7.2 3.3-3.3 8.5-3.3 11.8 0m2-13.8s1.1-16.6 14.7-2.9m-2.9 14.7s16.6-1.1 2.9-14.7M11.8 40.6s-3.3 5.4 1.4 8.6"></path>
		</symbol>
	
		<symbol id="baking" viewBox="0 0 64 64">
			<style>.st0{fill:#fff;stroke-width:3;stroke-miterlimit:10}.st0,.st1,.st2,.st3{stroke:#000}.st1,.st2,.st3,.st4{stroke-width:3;stroke-miterlimit:10}.st1,.st2,.st3,.st4{fill:none}.st2,.st3,.st4{stroke-linecap:round}.st3,.st4{stroke-linejoin:round}.st4{stroke:#fff}.st5{fill:#fff}</style><path class="st3" d="M25 2.8c-2.6 2.6-2.6 6.9 0 9.6 2.6 2.6 2.6 6.9 0 9.6m7 5.6H7.8c-2.3 0-4.1 1.9-4 4.2.8 15.7 5.7 22.7 9.1 25.7 1.5 1.3 3.5 2 5.5 2h27.2c2 0 4-.7 5.5-2 3.4-3 8.4-10 9.1-25.7.1-2.3-1.7-4.2-4-4.2H32m4.7 0l6.7-9.5 7.5-10.6c.4-.6.6-1.2.6-1.8 0-1.1-.5-2.1-1.5-2.7-1.5-.9-3.4-.4-4.3 1.1L38.6 16l-7.3 11"></path>
		</symbol>
	
		<symbol id="beauty" viewBox="0 0 64 64">
			<style>.st0{fill:#fff;stroke-width:3;stroke-miterlimit:10}.st0,.st1,.st2,.st3{stroke:#000}.st1,.st2,.st3,.st4{stroke-width:3;stroke-miterlimit:10}.st1,.st2,.st3,.st4{fill:none}.st2,.st3,.st4{stroke-linecap:round}.st3,.st4{stroke-linejoin:round}.st4{stroke:#fff}.st5{fill:#fff}</style><path class="st3" d="M40.4 2.3l-5.3 5.3-23.9 33c-1.1 1.6-1 3.8.4 5.1l6.7 6.7c1.4 1.4 3.6 1.6 5.2.4l32.9-23.9 5.3-5.3L40.4 2.3zm-5.3 5.3l21.3 21.3"></path><path class="st3" d="M21.2 53.9l-6.6 6.6C13 62 10.5 62 9 60.5L3.5 55c-1.5-1.5-1.5-4 0-5.6l6.6-6.6"></path><circle class="st3" cx="36" cy="27.6" r="7.2"></circle>
		</symbol>
	
		<symbol id="bread" viewBox="0 0 64 64">
			<style>.st0{fill:#fff;stroke-width:3;stroke-miterlimit:10}.st0,.st1,.st2,.st3{stroke:#000}.st1,.st2,.st3,.st4{stroke-width:3;stroke-miterlimit:10}.st1,.st2,.st3,.st4{fill:none}.st2,.st3,.st4{stroke-linecap:round}.st3,.st4{stroke-linejoin:round}.st4{stroke:#fff}.st5{fill:#fff}</style><path class="st3" d="M34.7 4.8c.2 1.6-.1 3.2-.8 4.7-.6 1.4-1.6 2.6-2.8 3.7-4.6 3.8-4.9 10.1-.8 14.2M38 17c-1.8 2.1-1.5 5.1.8 6.8 2.3 1.7 2.6 4.7.8 6.8m-14.7 6.9s-3.6 3.2-3.6 6.2m11.9-6.2s-3.6 3.2-3.6 6.2m12.5-6.2s-3.6 3.2-3.6 6.2"></path><path class="st3" d="M32.2 36c16.9 0 25.4 10.3 28.2 14.4.7 1 1 2.1 1 3.3 0 3.4-2.7 6.1-6.1 6.1H9.1c-3.4 0-6.1-2.7-6.1-6.1 0-1.2.3-2.3 1-3.3C6.8 46.3 15.3 36 32.2 36"></path>
		</symbol>
	
		<symbol id="chemicals" viewBox="0 0 64 64">
			<style>.st0{fill:#fff;stroke-width:3;stroke-miterlimit:10}.st0,.st1,.st2,.st3{stroke:#000}.st1,.st2,.st3,.st4{stroke-width:3;stroke-miterlimit:10}.st1,.st2,.st3,.st4{fill:none}.st2,.st3,.st4{stroke-linecap:round}.st3,.st4{stroke-linejoin:round}.st4{stroke:#fff}.st5{fill:#fff}</style><path class="st3" d="M7.6 55.8V44.2c0-12.7 6.1-24.6 16.3-32.1V4.6h16v7.5c9.9 7.5 15.8 19.2 15.8 31.7v12c0 2.2-1.8 4-4 4H11.6c-2.2 0-4-1.8-4-4zM24 12h15.4"></path><circle class="st3" cx="25.7" cy="43.4" r="8.2"></circle><circle class="st3" cx="39.2" cy="27.2" r="3.8"></circle>
		</symbol>
	
		<symbol id="coffeetea" viewBox="0 0 64 64">
			<style>.st0{fill:#fff;stroke-width:3;stroke-miterlimit:10}.st0,.st1,.st2,.st3{stroke:#000}.st1,.st2,.st3,.st4{stroke-width:3;stroke-miterlimit:10}.st1,.st2,.st3,.st4{fill:none}.st2,.st3,.st4{stroke-linecap:round}.st3,.st4{stroke-linejoin:round}.st4{stroke:#fff}.st5{fill:#fff}</style><path class="st3" d="M10.1 23.8s-8.1 37 19.7 37 19.4-36.5 19.4-36.5l-39.1-.5zm40 8.2s2.5-2.4 6.3-1.8c6.3 1 5.8 14.9-5.8 14.9m-23-41.9c-2.2 2-2.2 5.3 0 7.4 2.2 2 2.2 5.3 0 7.4"></path><path class="st3" d="M18.7 11.9c-2.2 2.2-2.2 5.8 0 8.1 1.1 1.1 1.7 2.5 1.7 4M39 11.9c-2.2 2.2-2.2 5.8 0 8.1 1.1 1.1 1.7 2.6 1.7 4v.2"></path>
		</symbol>
	
		<symbol id="cook" viewBox="0 0 64 64">
			<style>.st0{fill:#fff;stroke-width:3;stroke-miterlimit:10}.st0,.st1,.st2,.st3{stroke:#000}.st1,.st2,.st3,.st4{stroke-width:3;stroke-miterlimit:10}.st1,.st2,.st3,.st4{fill:none}.st2,.st3,.st4{stroke-linecap:round}.st3,.st4{stroke-linejoin:round}.st4{stroke:#fff}.st5{fill:#fff}</style><path class="st4" d="M25 2.8c-2.6 2.6-2.6 6.9 0 9.6 2.6 2.6 2.6 6.9 0 9.6m7 5.6H7.8c-2.3 0-4.1 1.9-4 4.2.8 15.7 5.7 22.7 9.1 25.7 1.5 1.3 3.5 2 5.5 2h27.2c2 0 4-.7 5.5-2 3.4-3 8.4-10 9.1-25.7.1-2.3-1.7-4.2-4-4.2H32m4.7 0l6.7-9.5 7.5-10.6c.4-.6.6-1.2.6-1.8 0-1.1-.5-2.1-1.5-2.7-1.5-.9-3.4-.4-4.3 1.1L38.6 16l-7.3 11"></path>
		</symbol>
	
		<symbol id="down-arrow" viewBox="0 0 35.414 35.414">
			<path d="M34 8.354L17.707 24.646 1.414 8.354 0 9.915l17 17.146h1.414l17-17.146z"></path>
		</symbol>
	
		<symbol id="drinks" viewBox="0 0 64 64">
			<style>.st0{fill:#fff;stroke-width:3;stroke-miterlimit:10}.st0,.st1,.st2,.st3{stroke:#000}.st1,.st2,.st3,.st4{stroke-width:3;stroke-miterlimit:10}.st1,.st2,.st3,.st4{fill:none}.st2,.st3,.st4{stroke-linecap:round}.st3,.st4{stroke-linejoin:round}.st4{stroke:#fff}.st5{fill:#fff}</style><path class="st3" d="M18.5 25.2L3.9 39.9c-1.6 1.6-1.7 4.3-.1 5.9l8.4 8.4 6.3 6.3c1.6 1.6 4.2 1.6 5.9-.1l14.8-14.8M29.5 24l-2.3-2.3c-1.6-1.6-1.6-4.3 0-5.9l3.4-3.4c2.7-2.7 6.5-4.3 10.3-4.3h4.6l5.3-5.3c.6-.6 1.6-.6 2.2 0l8 8c.6.6.6 1.6 0 2.2l-5.3 5.3v5c0 3.9-1.5 7.6-4.3 10.3l-3.2 3.2c-1.6 1.6-4.3 1.6-5.9 0l-6.6-6.6m9.7-22.1l10.2 10.2"></path><path class="st3" d="M26.7 21.2c-1.4-1.4-3.7-1.4-5.1.1L19.8 23c-1.4 1.4-1.4 3.7-.1 5.1l2.7 2.7m20.5 6.6c1.4 1.4 1.4 3.7-.1 5.1L41 44.3c-1.4 1.4-3.7 1.4-5.1.1l-7.1-7.1"></path>
		</symbol>
	
		<symbol id="frozen" viewBox="0 0 64 64">
			<style>.st0{fill:#fff;stroke-width:3;stroke-miterlimit:10}.st0,.st1,.st2,.st3{stroke:#000}.st1,.st2,.st3,.st4{stroke-width:3;stroke-miterlimit:10}.st1,.st2,.st3,.st4{fill:none}.st2,.st3,.st4{stroke-linecap:round}.st3,.st4{stroke-linejoin:round}.st4{stroke:#fff}.st5{fill:#fff}</style><path class="st3" d="M32.2 23.7V10.8m6.7-7.6l-6.7 6.7-6.6-6.7M25 28.1l-11.3-6.6m-3.3-9.6l2.5 9.1-9.1 2.5m21.7 12.6l-11.8 6.8M3.8 41l9.1 2.4-2.5 9.1m21.8 1.1V39.8m-6.6 21.5l6.6-6.7 6.7 6.7M50.8 42.9L39 36.1m15 16.4l-2.4-9.1 9.1-2.4M50.8 21.5l-11.4 6.6m21.3-4.6L51.6 21l2.4-9.1"></path><circle class="st3" cx="32.2" cy="31.7" r="8"></circle>
		</symbol>
	
		<symbol id="fruits" viewBox="0 0 64 64">
			<style>.st0{fill:#fff;stroke-width:3;stroke-miterlimit:10}.st0,.st1,.st2,.st3{stroke:#000}.st1,.st2,.st3,.st4{stroke-width:3;stroke-miterlimit:10}.st1,.st2,.st3,.st4{fill:none}.st2,.st3,.st4{stroke-linecap:round}.st3,.st4{stroke-linejoin:round}.st4{stroke:#fff}.st5{fill:#fff}</style><path class="st3" d="M11.5 58.7c-15-6.7-6.2-23.4.5-23.9 4-.3 5.9 2 6.7 3.4.3.5.9.7 1.5.5 1.5-.5 4.4-1 7.3 1.9 4.8 4.7.5 23.1-15.2 18.4m40.8-1C38 64.5 31.6 46.7 35.8 41.5c2.6-3.3 5.8-3 7.2-2.6.4.1.9-.1 1.1-.5.5-1.4 2.1-4.1 6.4-4.3 6.7-.4 17.4 15.2 3.3 23.6m-19.7-47c.2 3.6 1.4 17.1 9 26.5m-23.1.9s4.7-21.5 18.7-32.2"></path><path class="st3" d="M8.6 10.6C23.1-2.9 33.7 9.3 33.7 9.3s-4.3 6.7-12.3 6.9c-8 .2-12.8-5.6-12.8-5.6z"></path>
		</symbol>
	
		<symbol id="gastoromy" viewBox="0 0 64 64">
			<style>.st0{fill:#fff;stroke-width:3;stroke-miterlimit:10}.st0,.st1,.st2,.st3{stroke:#000}.st1,.st2,.st3,.st4{stroke-width:3;stroke-miterlimit:10}.st1,.st2,.st3,.st4{fill:none}.st2,.st3,.st4{stroke-linecap:round}.st3,.st4{stroke-linejoin:round}.st4{stroke:#fff}.st5{fill:#fff}</style><path class="st3" d="M4 32.9S34-7 53 11.9 30.4 60.2 30.4 60.2"></path><ellipse transform="rotate(-45.001 18.11 45.68)" class="st3" cx="18.1" cy="45.7" rx="10.6" ry="19.2"></ellipse><path class="st3" d="M50.6 9.5l5-6.9 6.6 6.7-6.4 4.1"></path><ellipse transform="rotate(-45.001 9.987 38.25)" cx="10" cy="38.3" rx="1.4" ry="2.7"></ellipse><ellipse transform="rotate(-45.001 21.719 42.07)" cx="21.7" cy="42.1" rx="1.4" ry="2.7"></ellipse><ellipse transform="rotate(-45.001 19.581 52.195)" cx="19.6" cy="52.2" rx="1.4" ry="2.7"></ellipse>
		</symbol>
	
		<symbol id="gift" viewBox="0 0 64 64">
			<style>.st0{fill:#fff;stroke-width:3;stroke-miterlimit:10}.st0,.st1,.st2,.st3{stroke:#000}.st1,.st2,.st3,.st4{stroke-width:3;stroke-miterlimit:10}.st1,.st2,.st3,.st4{fill:none}.st2,.st3,.st4{stroke-linecap:round}.st3,.st4{stroke-linejoin:round}.st4{stroke:#fff}.st5{fill:#fff}</style><path class="st3" d="M36.9 33.7h20.9V44H36.9m-10.3 0H6.2V33.7h20.4"></path><path class="st3" d="M53.8 17.5H10.2c-2.2 0-4 1.8-4 4v35.9c0 2.2 1.8 4 4 4h43.6c2.2 0 4-1.8 4-4V21.5c0-2.2-1.8-4-4-4zm-27.2 1V61m10.3-42.5V61m-9.2-43.5l-11.1-4.2c-3.5-1.3-5-5.5-3.1-8.7 2.2-3.6 7.3-3.8 9.8-.4L32 16.1m4.3 1.4l11.1-4.2c3.5-1.3 5-5.5 3.1-8.7-2.2-3.6-7.3-3.8-9.8-.4L32 16.1"></path>
		</symbol>
	
		<symbol id="grill" viewBox="0 0 64 64">
			<style>.st0{fill:#fff;stroke-width:3;stroke-miterlimit:10}.st0,.st1,.st2,.st3{stroke:#000}.st1,.st2,.st3,.st4{stroke-width:3;stroke-miterlimit:10}.st1,.st2,.st3,.st4{fill:none}.st2,.st3,.st4{stroke-linecap:round}.st3,.st4{stroke-linejoin:round}.st4{stroke:#fff}.st5{fill:#fff}</style><ellipse class="st3" cx="33" cy="16.3" rx="27.8" ry="9.6"></ellipse><path class="st3" d="M60.8 16.3c0 5.3-3.5 24.2-27.8 24.2-25.5 0-27.8-18.9-27.8-24.2M33 40.5v20.7m15.1-23.9l6.1 16.2M16.6 37.3l-6.1 16.2m0-31.5L26.6 6.9m14 18.1l13.6-14.5M20.3 24.2L37.1 6.8M29.8 25L45.5 7.7"></path>
		</symbol>
	
		<symbol id="grocery" viewBox="0 0 64 64">
			<style>.st0{fill:none;stroke:#000;stroke-width:3;stroke-linecap:round;stroke-linejoin:round;stroke-miterlimit:10}</style><path class="st0" d="M35.2 28.8h2.5c8.1 0 14.7-6.6 14.7-14.7v-2.5H50c-8.1 0-14.7 6.6-14.7 14.7v2.5zM59.8 4.2l-7.3 7.2m4 20.1l-7 7.3M32.3 7.3l-7.1 7.2M25 39l1.8-1.8c5.7-5.7 5.7-15 0-20.8L25 14.7l-1.8 1.8c-5.7 5.7-5.7 15 0 20.8L25 39z"></path><path class="st0" d="M25 39l1.8-1.8c5.7-5.7 15-5.7 20.8 0l1.7 1.7-1.8 1.8c-5.7 5.7-15 5.7-20.8 0L25 39zM11.2 52.8l1.7-1.8c5.7-5.7 5.7-15 0-20.8l-1.7-1.7-1.8 1.8c-5.7 5.7-5.7 15 0 20.8l1.8 1.7z"></path><path class="st0" d="M11.2 52.8l1.7-1.8c5.7-5.7 15-5.7 20.8 0l1.7 1.7-1.8 1.8c-5.7 5.7-15 5.7-20.8 0l-1.6-1.7zM25 39L4.2 59.8"></path>
		</symbol>
	
		<symbol id="homegoods" viewBox="0 0 64 64">
			<style>.st0{fill:#fff;stroke-width:3;stroke-miterlimit:10}.st0,.st1,.st2,.st3{stroke:#000}.st1,.st2,.st3,.st4{stroke-width:3;stroke-miterlimit:10}.st1,.st2,.st3,.st4{fill:none}.st2,.st3,.st4{stroke-linecap:round}.st3,.st4{stroke-linejoin:round}.st4{stroke:#fff}.st5{fill:#fff}</style><path class="st3" d="M61.6 30.5L35.8 5.3c-1.5-1.5-4-1.5-5.5 0L4.6 30.5"></path><path class="st3" d="M56.9 26.9v34H8.8v-34"></path><path class="st3" d="M25.1 60.9V39.2h16v21.7"></path>
		</symbol>
	
		<symbol id="meat" viewBox="0 0 64 64">
			<style>.st0{fill:#fff;stroke-width:3;stroke-miterlimit:10}.st0,.st1,.st2,.st3{stroke:#000}.st1,.st2,.st3,.st4{stroke-width:3;stroke-miterlimit:10}.st1,.st2,.st3,.st4{fill:none}.st2,.st3,.st4{stroke-linecap:round}.st3,.st4{stroke-linejoin:round}.st4{stroke:#fff}.st5{fill:#fff}</style><path class="st1" d="M49.8 24.3l.1-2.4c.1-1.5.7-2.8 1.8-3.8 1.3-1.2 3.1-1.7 4.9-1.4l1.5.3c2 .4 3.8-1 4-3v-.3c.2-1.7-1.1-3.3-2.8-3.6l-1.8-.3c-1.5-.2-2.7-1.4-2.8-3l-.1-1.5c-.2-1.7-1.5-2.9-3.2-3-2.2-.1-3.9 1.9-3.4 4l.3 1.4c.4 1.9-.2 4-1.7 5.3l-.2.2c-1.1 1-2.6 1.5-4.1 1.5l-1.9.1"></path><path class="st1" d="M40.8 60l.5.5c12.2-13.8 14.4-32 4.7-41.7s-28-7.6-41.7 4.7l.5.5"></path><path class="st2" d="M11.9 34l18.5 17.6"></path><ellipse transform="rotate(-45.001 21.327 43.417)" class="st1" cx="21.3" cy="43.4" rx="8.3" ry="26.3"></ellipse>
		</symbol>
	
		<symbol id="milkgoods" viewBox="0 0 64 64">
			<style>.st0{fill:#fff;stroke-width:3;stroke-miterlimit:10}.st0,.st1,.st2,.st3{stroke:#000}.st1,.st2,.st3,.st4{stroke-width:3;stroke-miterlimit:10}.st1,.st2,.st3,.st4{fill:none}.st2,.st3,.st4{stroke-linecap:round}.st3,.st4{stroke-linejoin:round}.st4{stroke:#fff}.st5{fill:#fff}</style><path class="st3" d="M5.7 19.6v32.5c0 2.2 1.8 4 4 4h46.5c2.2 0 4-1.8 4-4V19.6H5.7zm0 0L40.3 6.4c1.3-.5 2.8-.3 3.9.6l16.1 12.6"></path><path class="st3" d="M44.8 56.1c.6-1.1.9-2.4.9-3.7 0-4.7-3.8-8.5-8.5-8.5s-8.5 3.8-8.5 8.5c0 1.3.3 2.6.9 3.7M5.7 39.9c.8.4 1.7.6 2.6.6 3.3 0 6-2.7 6-6s-2.7-6-6-6c-.9 0-1.8.2-2.6.6m34.7-9.5c-.9 1.7-1.5 3.6-1.5 5.6 0 6.4 5.2 11.5 11.5 11.5 4.1 0 7.7-2.1 9.8-5.4"></path>
		</symbol>
	
		<symbol id="nuts" viewBox="0 0 64 64">
			<style>.st0{fill:#fff;stroke-width:3;stroke-miterlimit:10}.st0,.st1,.st2,.st3{stroke:#000}.st1,.st2,.st3,.st4{stroke-width:3;stroke-miterlimit:10}.st1,.st2,.st3,.st4{fill:none}.st2,.st3,.st4{stroke-linecap:round}.st3,.st4{stroke-linejoin:round}.st4{stroke:#fff}.st5{fill:#fff}</style><path class="st3" d="M49.8 15.7C40.7 6.6 24 4.5 10 21.3c-11.7 14-.5 34.6-.5 34.6"></path><path class="st3" d="M21.4 27.1S10.1 36.8 9.5 56c0 0 20.6 11.2 34.6-.5 16.8-14 14.7-30.7 5.6-39.8"></path><path class="st3" d="M50.8 48.7c-14-16.6-18.1-32.9-18.1-32.9s-12.1 1.5-15.5-.6M58.8 5.1s-.1 6.9-8 10.9"></path>
		</symbol>
	
		<symbol id="petfood" viewBox="0 0 64 64">
			<style>.st0{fill:#fff;stroke-width:3;stroke-miterlimit:10}.st0,.st1,.st2,.st3{stroke:#000}.st1,.st2,.st3,.st4{stroke-width:3;stroke-miterlimit:10}.st1,.st2,.st3,.st4{fill:none}.st2,.st3,.st4{stroke-linecap:round}.st3,.st4{stroke-linejoin:round}.st4{stroke:#fff}.st5{fill:#fff}</style><path class="st3" d="M15.2 51.9c2.3 3 6.4 4 9.7 2.4l2.4-1.1c2.9-1.4 6.3-1.4 9.3 0l2.4 1.2c3.4 1.6 7.5.6 9.7-2.4 3-4 1.6-9.6-2.8-11.8l-.5-.3c-2.5-1.2-4.5-3.4-5.4-6.1v-.3a7.84 7.84 0 0 0-7.4-5.3h-1.4c-3.4 0-6.4 2.2-7.4 5.4-.9 2.7-2.9 5-5.4 6.2l-.4.2c-4.4 2.2-5.8 7.9-2.8 11.9zm.9-18.1c1.6-1.6 2.1-4.3.1-7.1s-4.7-3.7-7.1-2.5-3.8 4.5-1.5 8 6.7 3.3 8.5 1.6zm31.5 0c-1.6-1.6-2.1-4.3-.1-7.1 2-2.7 4.7-3.7 7.1-2.5 2.4 1.2 3.8 4.5 1.5 8s-6.8 3.3-8.5 1.6zM25.3 22.2c2.4-.8 4.2-3.3 3.5-7-.7-3.7-2.9-5.9-5.8-5.9s-6 2.7-5.4 7.3c.6 4.5 5.1 6.5 7.7 5.6zm13.4 0c-2.4-.8-4.2-3.3-3.5-7 .7-3.7 2.9-5.9 5.8-5.9s5.9 2.7 5.3 7.2-5 6.6-7.6 5.7z"></path>
		</symbol>
	
		<symbol id="preserves" viewBox="0 0 64 64">
			<style>.st0{fill:#fff;stroke-width:3;stroke-miterlimit:10}.st0,.st1,.st2,.st3{stroke:#000}.st1,.st2,.st3,.st4{stroke-width:3;stroke-miterlimit:10}.st1,.st2,.st3,.st4{fill:none}.st2,.st3,.st4{stroke-linecap:round}.st3,.st4{stroke-linejoin:round}.st4{stroke:#fff}.st5{fill:#fff}</style><path class="st3" d="M15.1 13.9l-2.7-4c-.4-.5-.7-1.1-.7-1.8s.3-1.4.8-1.8c.5-.5 1.1-.8 1.8-.8h18M10.3 25v25.4c0 4.6 3.8 8.4 8.4 8.4h13.7m-.1-53.3h18c.7 0 1.4.3 1.8.8.5.5.8 1.1.8 1.8s-.2 1.3-.7 1.8l-2.7 4 .5.5"></path><path class="st3" d="M54.4 25v25.4c0 4.6-3.8 8.4-8.4 8.4H32.3"></path><path class="st3" d="M49.2 13.9l9 8.3c1.4.8.8 2.8-.7 2.8h-50c-1.5 0-2-2-.8-2.7l8.4-8.4h34.1M10.7 33.1s2.2 6.4 15 6.5c12.9.1 13.9-6.2 27.3-6.5"></path>
		</symbol>
	
		<symbol id="sale" viewBox="0 0 64 64">
			<style>.st0{fill:#fff;stroke-width:3;stroke-miterlimit:10}.st0,.st1,.st2,.st3{stroke:#000}.st1,.st2,.st3,.st4{stroke-width:3;stroke-miterlimit:10}.st1,.st2,.st3,.st4{fill:none}.st2,.st3,.st4{stroke-linecap:round}.st3,.st4{stroke-linejoin:round}.st4{stroke:#fff}.st5{fill:#fff}</style><circle class="st3" cx="17.8" cy="18.7" r="8.8"></circle><circle class="st3" cx="45.8" cy="46.7" r="8.8"></circle><path class="st3" d="M50.8 13.1L12.4 51.6"></path>
		</symbol>
	
		<symbol id="seafood" viewBox="0 0 64 64">
			<style>.st0{fill:#fff;stroke-width:3;stroke-miterlimit:10}.st0,.st1,.st2,.st3{stroke:#000}.st1,.st2,.st3,.st4{stroke-width:3;stroke-miterlimit:10}.st1,.st2,.st3,.st4{fill:none}.st2,.st3,.st4{stroke-linecap:round}.st3,.st4{stroke-linejoin:round}.st4{stroke:#fff}.st5{fill:#fff}</style><circle class="st3" cx="47.7" cy="11.1" r="3.1"></circle><path class="st3" d="M60.5 3.5s-20.3-6.3-33.1 9.2S17.5 34.3 13 38.2s-10.8 3-10.8 3 5.4 10 14.1 6.5c-3.5 8.7 6.5 14.1 6.5 14.1s-1-6.3 3-10.8 10-1.6 25.5-14.4 9.2-33.1 9.2-33.1"></path><path class="st3" d="M48.5 30.9s-5.8-1.3-10.2-5.7C34 20.9 33 15.5 33 15.5"></path>
		</symbol>
	
		<symbol id="spices" viewBox="0 0 64 64">
			<style>.st0{fill:#fff;stroke-width:3;stroke-miterlimit:10}.st0,.st1,.st2,.st3{stroke:#000}.st1,.st2,.st3,.st4{stroke-width:3;stroke-miterlimit:10}.st1,.st2,.st3,.st4{fill:none}.st2,.st3,.st4{stroke-linecap:round}.st3,.st4{stroke-linejoin:round}.st4{stroke:#fff}.st5{fill:#fff}</style><path class="st3" d="M32 4h-6.8c-4 0-7.3 3.6-7.3 8v8.2L9.7 49.5c-1.4 5.1 2 10.4 6.9 10.4H32M32 4h6.8c4 0 7.3 3.6 7.3 8v8.2l8.2 29.3c1.4 5.1-2 10.4-6.9 10.4H32m-8.4-39.6h22.5"></path><circle cx="26.4" cy="9.9" r="2.1"></circle><circle cx="36.8" cy="6" r="2.1"></circle><circle cx="34.9" cy="14.2" r="2.1"></circle><path class="st3" d="M13.1 37.3s4.1 6.8 11.3 6.8c9.2 0 10.5-8.4 21.1-8.4 2 0 3.7.2 5.1.6"></path>
		</symbol>
	
		<symbol id="sweets" viewBox="0 0 64 64">
			<style>.st0{fill:#fff;stroke-width:3;stroke-miterlimit:10}.st0,.st1,.st2,.st3{stroke:#000}.st1,.st2,.st3,.st4{stroke-width:3;stroke-miterlimit:10}.st1,.st2,.st3,.st4{fill:none}.st2,.st3,.st4{stroke-linecap:round}.st3,.st4{stroke-linejoin:round}.st4{stroke:#fff}.st5{fill:#fff}</style><path class="st3" d="M55.8 41.3c-5.7 2.1-14.2 3.4-23.5 3.4-9.7 0-18.3-1.4-24.1-3.6L14 54.5c1.5 3.6 5.1 5.9 9 5.9h18.6c4 0 7.6-2.5 9.1-6.2l5.1-12.9z"></path><path class="st3" d="M8.2 41.1c-.8-1-9.7-11.5-2.2-18.8 3.4-3.2 7.5-3.6 11.2-2.9 5.9 1.1 10.9 5 10.9 5m-8.4-5.2C22.6 5.3 35.9 4.7 35.9 4.7s-1 4.7 2.6 8.4m7.3 4.2c6.8 2.2 13.4 4 14.9 11.2 1.6 7.4-5 12.8-5 12.8"></path><ellipse transform="matrix(.04803 -.9988 .9988 .04803 18.005 57.987)" class="st3" cx="39.4" cy="19.5" rx="6.6" ry="6.6"></ellipse><path class="st3" d="M47.2 3.5s2.1 4.4-3.2 11.2"></path>
		</symbol>
	
		<symbol id="vegetables" viewBox="0 0 64 64">
			<style>.st0{fill:#fff;stroke-width:3;stroke-miterlimit:10}.st0,.st1,.st2,.st3{stroke:#000}.st1,.st2,.st3,.st4{stroke-width:3;stroke-miterlimit:10}.st1,.st2,.st3,.st4{fill:none}.st2,.st3,.st4{stroke-linecap:round}.st3,.st4{stroke-linejoin:round}.st4{stroke:#fff}.st5{fill:#fff}</style><path class="st3" d="M51.6 55.3C45 62.5 23 59.4 14.3 57.9c-2.2-.4-4-2-4.5-4.2C7.6 45 2.9 23 9.5 15.8c8.2-9 24.3-7.4 35.9 3.5s14.4 27.1 6.2 36z"></path><path class="st3" d="M9.8 15.5c2.8 1 10.3 6.7 19 14.6 1.1 1 2.3 2.1 3.5 3.2m-9.7 1.9c1.4 1.3 2.9 2.6 4.3 4 8.6 8.1 15.5 15.6 18.2 19.6m-3.5-43.2s4.4-4.8 2.2-10.8m13.6 5.3s-7.5 2.9-11.6 9m3.1 3.8s2.7-3.9 9.9-2.1"></path>
		</symbol>
	
		<symbol id="wintergoods" viewBox="0 0 64 64">
			<style>.st0{fill:#fff;stroke-width:3;stroke-miterlimit:10}.st0,.st1,.st2,.st3{stroke:#000}.st1,.st2,.st3,.st4{stroke-width:3;stroke-miterlimit:10}.st1,.st2,.st3,.st4{fill:none}.st2,.st3,.st4{stroke-linecap:round}.st3,.st4{stroke-linejoin:round}.st4{stroke:#fff}.st5{fill:#fff}</style><path class="st3" d="M21.3 62h21.4c6.7 0 12.2-5.5 12.2-12.2V29.6c0-2.8-.7-5.6-2.1-8L46.5 9.9V3.2H18.4v6.7l-6.8 11.4C10 24 9.1 26.9 9.1 30v19.8c0 6.7 5.5 12.2 12.2 12.2zM18.4 9.9h27.8"></path><path class="st3" d="M31.2 55.3c14.3.8 17.3-10.6 13.3-15.9s-12-.7-12-.7h.1s-7.5-5.5-12-.7S17.7 54.5 32 55.3m2.7-24.1s-3.4 1.9-2.2 7.6"></path>
		</symbol>
	
</svg>
