<?xml version="1.0" standalone="no"?>
<!DOCTYPE svg PUBLIC "-//W3C//DTD SVG 20010904//EN"
 "http://www.w3.org/TR/2001/REC-SVG-20010904/DTD/svg10.dtd">
<svg version="1.0" xmlns="http://www.w3.org/2000/svg"
 width="700.000000pt" height="700.000000pt" viewBox="0 0 700.000000 700.000000"
 preserveAspectRatio="xMidYMid meet">
<metadata>
Created by potrace 1.11, written by Peter Selinger 2001-2013
</metadata>
<g transform="translate(0.000000,700.000000) scale(0.100000,-0.100000)"
fill="#000000" stroke="none">
<path d="M3357 6944 c-1 -1 -47 -5 -102 -8 -95 -7 -250 -26 -320 -40 -11 -2
-40 -7 -65 -11 -258 -42 -612 -161 -884 -296 -420 -209 -835 -535 -1106 -869
-25 -30 -47 -57 -50 -60 -3 -3 -23 -27 -45 -55 -163 -204 -372 -568 -464 -810
-13 -33 -27 -69 -31 -80 -28 -70 -92 -268 -105 -325 -2 -8 -10 -42 -18 -75
-13 -50 -23 -96 -52 -255 -1 -8 -6 -40 -10 -70 -4 -30 -9 -63 -11 -73 -26
-139 -25 -684 1 -827 3 -14 7 -44 10 -67 9 -75 33 -206 59 -313 143 -602 449
-1159 879 -1599 135 -138 259 -248 398 -353 111 -82 329 -228 343 -228 3 0 25
-12 49 -27 113 -71 383 -192 582 -258 128 -43 366 -106 455 -120 47 -8 69 -11
110 -20 14 -2 52 -7 85 -11 33 -3 69 -8 80 -10 105 -21 617 -21 735 0 14 3 47
7 74 10 152 18 350 59 531 112 1008 296 1834 1049 2223 2029 52 132 117 335
148 464 23 100 27 117 39 191 3 19 10 58 15 85 41 226 49 715 15 950 -2 17 -9
65 -15 108 -15 103 -18 120 -44 228 -8 37 -17 78 -20 90 -8 42 -66 232 -98
319 -90 251 -215 500 -363 725 -304 461 -714 844 -1190 1109 -164 91 -362 186
-388 186 -7 0 -17 4 -22 9 -34 31 -464 159 -625 185 -19 3 -46 8 -60 11 -14 2
-36 7 -50 10 -14 2 -47 7 -75 10 -27 3 -66 7 -85 9 -116 13 -224 19 -368 20
-90 1 -164 1 -165 0z m539 -1130 c43 -20 90 -76 98 -115 5 -26 9 -29 33 -24
101 21 153 25 268 21 72 -2 139 -6 150 -9 213 -52 345 -116 456 -219 276 -258
298 -679 60 -1150 -49 -96 -207 -350 -230 -368 -12 -10 -63 -81 -60 -84 2 -2
22 -15 44 -28 137 -85 259 -255 312 -432 16 -54 16 -53 38 -156 26 -121 21
-383 -10 -540 -3 -14 -7 -36 -10 -49 -45 -240 -209 -554 -390 -749 -74 -79
-211 -194 -265 -222 -14 -7 -27 -16 -30 -20 -19 -26 -231 -109 -343 -134 -333
-76 -626 -12 -839 183 -104 95 -200 244 -211 326 -12 92 67 152 151 115 34
-16 46 -30 83 -102 110 -212 324 -339 559 -333 219 6 392 59 563 172 99 65
251 219 324 329 59 89 153 271 153 297 0 7 4 17 8 22 14 15 50 140 73 250 31
145 32 402 1 534 -33 141 -88 248 -175 336 -40 40 -86 79 -103 88 l-31 16 -65
-62 c-137 -132 -248 -217 -358 -272 -175 -88 -322 -74 -406 38 -139 186 -6
397 302 478 84 22 290 31 369 16 81 -15 76 -17 137 73 134 198 261 492 293
678 3 17 8 47 11 65 8 45 8 176 -1 228 -17 109 -72 210 -149 275 -53 44 -207
115 -301 140 -123 31 -372 19 -485 -24 -23 -9 -28 -22 -53 -148 -34 -165 -34
-165 -47 -229 -5 -27 -12 -61 -15 -75 -3 -14 -8 -38 -11 -55 -7 -42 -22 -107
-45 -205 -12 -47 -23 -96 -25 -110 -3 -14 -10 -43 -16 -65 -5 -22 -12 -51 -14
-65 -3 -14 -7 -33 -10 -42 -3 -9 -7 -25 -9 -35 -2 -10 -18 -72 -35 -138 -18
-66 -33 -127 -35 -135 -37 -172 -211 -729 -323 -1035 -36 -97 -138 -348 -151
-372 -6 -10 -32 -65 -57 -123 -26 -58 -60 -127 -74 -155 -15 -27 -46 -86 -70
-130 -214 -399 -480 -680 -734 -776 -173 -64 -395 -54 -541 25 -196 106 -323
323 -327 560 -3 116 95 183 194 133 58 -30 76 -66 79 -157 6 -207 85 -325 250
-369 190 -52 374 25 569 237 39 42 92 109 118 147 26 39 50 72 55 73 4 2 7 7
7 12 0 5 23 48 51 97 145 250 286 570 416 948 52 151 59 173 147 480 37 127
73 253 81 280 21 71 135 524 141 560 3 17 10 48 16 70 5 22 12 51 15 65 2 14
8 41 14 61 10 38 109 523 109 534 0 12 -152 -75 -281 -160 -102 -68 -278 -199
-336 -250 -6 -5 -35 -30 -64 -55 -29 -25 -97 -87 -151 -139 -120 -115 -131
-123 -173 -124 -88 -2 -141 84 -99 164 24 48 249 260 434 411 204 166 416 304
613 399 60 28 108 58 111 67 6 25 17 74 23 102 2 13 10 31 16 39 7 8 10 15 7
17 -3 1 6 17 18 34 43 57 122 75 188 44z"/>
<path d="M4113 3839 c-92 -15 -211 -67 -259 -114 -60 -58 -61 -142 0 -200 28
-27 124 -27 181 0 82 39 204 129 263 194 13 14 41 45 63 68 26 28 35 44 27 49
-17 11 -215 13 -275 3z"/>
</g>
</svg>
