<?xml version="1.0" encoding="utf-8"?>
<!-- Generator: Adobe Illustrator 21.1.0, SVG Export Plug-In . SVG Version: 6.00 Build 0)  -->
<svg version="1.1" id="Слой_1" xmlns="http://www.w3.org/2000/svg" xmlns:xlink="http://www.w3.org/1999/xlink" x="0px" y="0px"
	 viewBox="0 0 36.9 36.9" style="enable-background:new 0 0 36.9 36.9;" xml:space="preserve">
<style type="text/css">
	.st0{fill:#9786BD;}
	.st1{fill:none;}
	.st2{fill:#FFFFFF;}
</style>
<circle class="st0" cx="18.4" cy="18.4" r="18.4"/>
<g>
	<path class="st1" d="M14.2,28.7c1.4,0,2.4,0.3,2.9,0.4c0.7,0.2,1.7,0.3,2.6,0.4c1,0.1,1.3,0.1,2.2,0l0.8-0.1c1.3,0,1.8-0.8,1.8-1.9
		c0-0.4-0.1-0.7-0.3-1c1-0.2,1.7-1,1.7-1.9c0-0.6-0.3-1.1-0.7-1.5c0.1-0.1,0.1-0.1,0.2-0.2c0.7-0.4,1.2-1,1.2-1.8
		c0-0.7-0.4-1.4-1.1-1.7c-0.1-0.1-0.2-0.2-0.2-0.2c0.6-0.4,1-1,1-1.7c0-1.1-1.1-2.1-2.3-2.1h-0.9c-0.3,0-0.9-0.1-2.4,0.1
		c-1.4,0.2-0.8-0.1-0.4-0.6c0.3-0.4,0.6-0.7,1-1.5c0.4-0.7,0.7-1.3,0.8-2c0.2-0.7,0.2-1.4,0.2-1.7c-0.3-0.7-0.4-1.3-1-1.9
		s-1-0.8-1.8-0.7c-0.2,0-1,0-1.4,0.8c-0.4,0.7,0.3,0.3-0.3,2.3c-0.6,1.9-2.8,3.1-4.1,4.6c-0.4,0.5-0.9,1.4-1.5,2.3
		c-0.4,0.6-1.3,0.8-1.8,0.8L12.3,29C12.9,28.8,13.5,28.7,14.2,28.7z"/>
	<path class="st2" d="M28.2,21.1c0-0.7-0.2-1.5-0.7-2.1c0.2-0.5,0.4-1,0.4-1.5c0-2.1-1.8-3.7-4-3.7l0,0H23l0,0
		c0.3-0.6,0.5-1.2,0.7-1.8c0.2-0.7,0.3-1.7,0.2-2.5c-0.2-0.9-0.4-2-1.3-2.9c-0.8-0.9-1.7-1.3-2.8-1.3l0,0c-0.1,0-0.2,0-0.3,0l0,0
		c-0.4,0-1.1,0.2-1.6,0.7c-0.4,0.4-0.6,0.8-0.8,1.2c-0.3,0.6-0.4,1.2-0.5,1.6c0,0.2-0.1,0.4-0.2,0.7c-0.2,0.8-1.2,1.7-2.2,2.5
		c-0.5,0.5-1.1,0.9-1.6,1.5c-0.4,0.4-0.7,0.9-1,1.4c-0.2,0.3-0.4,0.7-0.6,1c-0.1,0.1-0.4,0.2-0.7,0.2l0.3,1.6
		c0.5-0.1,1.4-0.3,1.8-0.8c0.6-0.9,1.1-1.9,1.5-2.3c2.2-2.4,3.6-2.4,4.1-4.6c0.2-0.7,0.2-1.8,0.9-2.6C19,7.3,19.3,7,19.7,6.9
		s0.7,0,0.9,0.1c0.3,0.1,0.6,0.3,0.9,0.6C21.9,8.4,22,9,22.2,9.8c0.1,0.3,0,1-0.2,1.7s-0.4,1.2-0.8,2c-0.4,0.7-0.7,1.1-1,1.5
		c-0.4,0.5-1,0.8,0.4,0.6c1.5-0.2,2.1-0.2,2.4-0.1h0.9c1.3,0,2.3,0.9,2.3,2.1c0,0.7-0.4,1.3-1,1.7c0,0,0.1,0.1,0.2,0.2
		c0.7,0.4,1.1,1,1.1,1.7c0,0.8-0.5,1.4-1.2,1.8c-0.1,0.1-0.2,0.1-0.2,0.2c0.5,0.4,0.7,0.9,0.7,1.5c0,0.9-0.7,1.7-1.7,1.9
		c0.2,0.3,0.3,0.6,0.3,1c0,1-0.5,1.9-1.8,1.9l-0.8,0.1c-0.9,0.1-1.2,0.1-2.2,0c-0.9-0.1-1.8-0.2-2.6-0.4c-0.5-0.1-1.5-0.4-2.9-0.4
		c-0.7,0-1.3,0.1-1.8,0.2l0.3,1.6c0.5-0.1,1-0.2,1.5-0.2c1.2,0,2.1,0.3,2.5,0.3c0.8,0.2,1.9,0.4,2.9,0.5c0.1,0,0.2,0,0.3,0
		c0.4,0,0.7,0,1,0c0.4,0,0.8,0,1.3-0.1l0,0l0.7-0.1c1.3,0,2.1-0.6,2.5-1.1c0.5-0.6,0.8-1.5,0.8-2.4v-0.1c0.2-0.1,0.3-0.3,0.5-0.4
		c0.6-0.7,0.9-1.5,0.9-2.4c0-0.4-0.1-0.8-0.2-1.1C27.9,22.8,28.2,22,28.2,21.1z"/>
</g>
</svg>
