<?xml version="1.0" encoding="utf-8"?>
<!-- Generator: Adobe Illustrator 21.1.0, SVG Export Plug-In . SVG Version: 6.00 Build 0)  -->
<svg version="1.1" xmlns="http://www.w3.org/2000/svg" xmlns:xlink="http://www.w3.org/1999/xlink" x="0px" y="0px"
	 viewBox="0 0 40 40" style="enable-background:new 0 0 40 40;" xml:space="preserve">
<style type="text/css">
	.st0{fill:none;stroke:#000000;stroke-width:1.5;stroke-linecap:round;stroke-linejoin:round;stroke-miterlimit:10;}
	.st1{fill:#FFFFFF;}
</style>
<g id="Слой_1">
	<g>
		<polyline class="st0" points="22.6,21.1 33.9,21.1 33.9,26.7 22.6,26.7 		"/>
		<polyline class="st0" points="17.1,26.7 6.1,26.7 6.1,21.1 17.1,21.1 		"/>
		<path class="st0" d="M31.7,12.4H8.3c-1.2,0-2.1,1-2.1,2.1v19.3c0,1.2,1,2.1,2.1,2.1h23.4c1.2,0,2.1-1,2.1-2.1V14.6
			C33.9,13.4,32.9,12.4,31.7,12.4z"/>
		<line class="st0" x1="17.1" y1="13" x2="17.1" y2="35.8"/>
		<line class="st0" x1="22.6" y1="13" x2="22.6" y2="35.8"/>
		<path class="st0" d="M17.7,12.4l-6-2.3C9.8,9.5,9,7.2,10.1,5.5l0,0c1.2-1.9,3.9-2,5.3-0.2l4.7,6.4"/>
		<path class="st0" d="M22.3,12.4l6-2.3c1.9-0.7,2.7-2.9,1.6-4.7l0,0c-1.2-1.9-3.9-2-5.3-0.2L20,11.7"/>
	</g>
</g>
<g id="Слой_2">
</g>
</svg>
