<?xml version="1.0" encoding="utf-8"?>
<!-- Generator: Adobe Illustrator 21.1.0, SVG Export Plug-In . SVG Version: 6.00 Build 0)  -->
<svg version="1.1" xmlns="http://www.w3.org/2000/svg" xmlns:xlink="http://www.w3.org/1999/xlink" x="0px" y="0px"
	 viewBox="0 0 40 40" style="enable-background:new 0 0 40 40;" xml:space="preserve">
<style type="text/css">
	.st0{fill:none;stroke:#000000;stroke-width:1.5;stroke-linecap:round;stroke-linejoin:round;stroke-miterlimit:10;}
	.st1{fill:#FFFFFF;}
</style>
<g id="Слой_1">
	<g>
		<path class="st0" d="M11.6,30.8c-0.9,1.1-1.7,2.2-2.3,3.5c-0.1,0.3-0.3,0.6-0.6,0.9c-1.1,1.1-3,1.1-4.1,0C3.5,34,3.6,32.1,4.8,31
			c0.2-0.2,0.4-0.3,0.6-0.4c1.3-0.7,2.6-1.4,3.7-2.4"/>
		<path class="st0" d="M31.1,11.7c1-0.9,2.1-1.6,3.4-2.2c0.3-0.1,0.6-0.3,0.9-0.6c1.1-1.1,1.1-3,0-4.1c-1.1-1.1-3.1-1.1-4.1,0.1
			c-0.2,0.2-0.3,0.4-0.4,0.6c-0.6,1.2-1.4,2.4-2.2,3.5"/>
		<path class="st0" d="M11.8,30.9L9,28.1c-1.1-1.1-1.1-2.9,0-4L24.2,8.9c1.1-1.1,2.9-1.1,4,0l2.8,2.8c1.1,1.1,1.1,2.9,0,4L15.9,30.9
			C14.7,32,12.9,32,11.8,30.9z"/>
	</g>
</g>
<g id="Слой_2">
</g>
</svg>
