<?xml version="1.0" encoding="utf-8"?>
<!-- Generator: Adobe Illustrator 21.1.0, SVG Export Plug-In . SVG Version: 6.00 Build 0)  -->
<svg version="1.1" xmlns="http://www.w3.org/2000/svg" xmlns:xlink="http://www.w3.org/1999/xlink" x="0px" y="0px"
	 viewBox="0 0 40 40" style="enable-background:new 0 0 40 40;" xml:space="preserve">
<style type="text/css">
	.st0{fill:none;stroke:#000000;stroke-width:1.5;stroke-linecap:round;stroke-linejoin:round;stroke-miterlimit:10;}
	.st1{fill:#FFFFFF;}
</style>
<g id="Слой_1">
	<g>
		<g>
			<path class="st0" d="M32.4,33.5c-4,4.3-17.3,2.5-22.6,1.6c-1.3-0.2-2.4-1.2-2.8-2.6c-1.3-5.3-4.1-18.6-0.2-23
				c5-5.4,14.7-4.5,21.8,2.1S37.4,28,32.4,33.5z"/>
			<path class="st0" d="M7.1,9.3c1.7,0.6,6.3,4.1,11.5,8.9c0.7,0.6,1.4,1.3,2.1,1.9"/>
			<path class="st0" d="M14.8,21.2c0.9,0.8,1.7,1.6,2.6,2.4c5.2,4.9,9.4,9.5,11,11.9"/>
		</g>
		<path class="st0" d="M26.4,9.3c0,0,2.7-2.9,1.3-6.6"/>
		<path class="st0" d="M35.9,6c0,0-4.5,1.8-7,5.5"/>
		<path class="st0" d="M30.8,13.7c0,0,1.6-2.3,6-1.3"/>
	</g>
</g>
<g id="Слой_2">
</g>
</svg>
