<?xml version="1.0" encoding="utf-8"?>
<!-- Generator: Adobe Illustrator 21.1.0, SVG Export Plug-In . SVG Version: 6.00 Build 0)  -->
<svg version="1.1" xmlns="http://www.w3.org/2000/svg" xmlns:xlink="http://www.w3.org/1999/xlink" x="0px" y="0px"
	 viewBox="0 0 40 40" style="enable-background:new 0 0 40 40;" xml:space="preserve">
<style type="text/css">
	.st0{fill:none;stroke:#000000;stroke-width:1.5;stroke-linecap:round;stroke-linejoin:round;stroke-miterlimit:10;}
	.st1{fill:#FFFFFF;}
</style>
<g id="Слой_1">
	<g>
		<path class="st0" d="M8.6,35.2c-8.3-3.8-3.4-13,0.3-13.3c2.2-0.1,3.3,1.1,3.7,1.9c0.2,0.3,0.5,0.4,0.8,0.3c0.8-0.3,2.5-0.5,4,1
			C20.1,27.8,17.7,38,9,35.4"/>
		<path class="st0" d="M31.7,34.9c-8.4,3.6-11.9-6.3-9.6-9.2c1.5-1.8,3.2-1.7,4-1.5c0.2,0.1,0.5-0.1,0.6-0.3
			c0.3-0.8,1.2-2.3,3.5-2.4c3.7-0.2,9.7,8.5,1.8,13.2"/>
		<path class="st0" d="M21.2,8.5c0.1,2,0.8,9.5,5,14.8"/>
		<path class="st0" d="M13.3,23.8c0,0,2.6-12,10.4-17.9"/>
		<path class="st0" d="M7,8.5c8.1-7.5,14-0.7,14-0.7s-2.4,3.7-6.8,3.8S7,8.5,7,8.5z"/>
	</g>
</g>
<g id="Слой_2">
</g>
</svg>
