<?xml version="1.0" encoding="utf-8"?>
<!-- Generator: Adobe Illustrator 21.1.0, SVG Export Plug-In . SVG Version: 6.00 Build 0)  -->
<svg version="1.1" xmlns="http://www.w3.org/2000/svg" xmlns:xlink="http://www.w3.org/1999/xlink" x="0px" y="0px"
	 viewBox="0 0 40 40" style="enable-background:new 0 0 40 40;" xml:space="preserve">
<style type="text/css">
	.st0{fill:none;stroke:#000000;stroke-width:1.5;stroke-linecap:round;stroke-linejoin:round;stroke-miterlimit:10;}
	.st1{fill:#FFFFFF;}
</style>
<g id="Слой_1">
	<g>
		<path class="st0" d="M9.8,9.3L8.3,7C8,6.7,7.8,6.3,7.8,5.9c0-0.4,0.2-0.8,0.4-1.1c0.3-0.3,0.7-0.4,1.1-0.4h10.5"/>
		<path class="st0" d="M7,15.8c0,0.1,0,0.2,0,0.3v14.6c0,2.7,2.2,4.9,4.9,4.9h8"/>
		<path class="st0" d="M19.9,4.4h10.5c0.4,0,0.8,0.2,1.1,0.4C31.8,5.1,32,5.5,32,5.9c0,0.4-0.1,0.7-0.4,1L30,9.3l0.3,0.3"/>
		<path class="st0" d="M32.8,15.8c0,0.1,0,0.2,0,0.3v14.6c0,2.7-2.2,4.9-4.9,4.9h-8"/>
		<path class="st0" d="M29.8,9.3l5.3,4.9c0.8,0.4,0.5,1.6-0.4,1.6H5.4c-0.9,0-1.2-1.1-0.5-1.6l4.9-4.9H29.8"/>
		<path class="st0" d="M7.2,20.6c0,0,1.3,3.7,8.8,3.8c7.5,0.1,8.1-3.6,16-3.8"/>
	</g>
</g>
<g id="Слой_2">
</g>
</svg>
