<?xml version="1.0" encoding="utf-8"?>
<!-- Generator: Adobe Illustrator 21.1.0, SVG Export Plug-In . SVG Version: 6.00 Build 0)  -->
<svg version="1.1" xmlns="http://www.w3.org/2000/svg" xmlns:xlink="http://www.w3.org/1999/xlink" x="0px" y="0px"
	 viewBox="0 0 40 40" style="enable-background:new 0 0 40 40;" xml:space="preserve">
<style type="text/css">
	.st0{fill:none;stroke:#000000;stroke-width:1.5;stroke-linecap:round;stroke-linejoin:round;stroke-miterlimit:10;}
	.st1{fill:#FFFFFF;}
</style>
<g id="Слой_1">
	<g>
		<path class="st0" d="M14.2,17.4c-3.7-5.1-5.1-10-3-12.1c2.7-2.7,10.2,0.5,16.8,7.1s9.8,14.1,7.1,16.8c-2.1,2.1-7,0.6-12.2-3.1"/>
		<path class="st0" d="M7.3,32.7c4.9,4.9,9.2,3.6,11.8,1c2.9-2.9,1.4-7.4,4.2-10.1l0,0c1.9-1.9,1.9-4.9,0-6.8l0,0"/>
		<path class="st0" d="M7.3,32.7c-4.9-4.9-3.6-9.2-1-11.8c2.9-2.9,7.4-1.4,10.1-4.2l0,0c1.9-1.9,4.9-1.9,6.8,0l0,0"/>
		<path class="st0" d="M24.3,8.8c0,0,0.6-9.6,8.5-1.7"/>
		<path class="st0" d="M31.1,15.6c0,0,9.6-0.6,1.7-8.5"/>
		<path class="st0" d="M8.3,24c0,0-1.9,3.1,0.8,5"/>
	</g>
</g>
<g id="Слой_2">
</g>
</svg>
