<?xml version="1.0" encoding="utf-8"?>
<!-- Generator: Adobe Illustrator 21.1.0, SVG Export Plug-In . SVG Version: 6.00 Build 0)  -->
<svg version="1.1" xmlns="http://www.w3.org/2000/svg" xmlns:xlink="http://www.w3.org/1999/xlink" x="0px" y="0px"
	 viewBox="0 0 40 40" style="enable-background:new 0 0 40 40;" xml:space="preserve">
<style type="text/css">
	.st0{fill:none;stroke:#000000;stroke-width:1.5;stroke-linecap:round;stroke-linejoin:round;stroke-miterlimit:10;}
	.st1{fill:#FFFFFF;}
</style>
<g id="Слой_1">
	<g>
		<path class="st0" d="M9.6,32.4L9.6,32.4c1.5,1.9,4,2.5,6.1,1.5l1.5-0.7c1.8-0.9,4-0.9,5.8,0l1.5,0.7c2.1,1,4.7,0.4,6.1-1.5l0,0
			c1.9-2.5,1-6.1-1.8-7.4l-0.3-0.2C27,24,25.8,22.6,25.2,21l0-0.1c-0.7-2-2.6-3.3-4.7-3.3h-0.9c-2.1,0-4,1.4-4.7,3.4l0,0
			c-0.6,1.7-1.8,3.1-3.4,3.9l-0.2,0.1C8.5,26.3,7.7,29.9,9.6,32.4z"/>
		<path class="st0" d="M10.1,21c1-1,1.3-2.7,0.1-4.4c-1.3-1.7-2.9-2.3-4.5-1.6s-2.4,2.8-0.9,5S9,22.1,10.1,21z"/>
		<path class="st0" d="M29.9,21c-1-1-1.3-2.7-0.1-4.4c1.3-1.7,2.9-2.3,4.5-1.6s2.4,2.8,0.9,5S31,22.1,29.9,21z"/>
		<g>
			<path class="st0" d="M15.9,13.7c1.5-0.5,2.6-2.1,2.2-4.4s-1.8-3.7-3.7-3.7c-1.9,0-3.7,1.7-3.4,4.6S14.3,14.3,15.9,13.7z"/>
			<path class="st0" d="M24.3,13.7c-1.5-0.5-2.6-2.1-2.2-4.4s1.8-3.7,3.7-3.7c1.9,0,3.7,1.7,3.4,4.6C28.8,13.1,25.9,14.3,24.3,13.7z
				"/>
		</g>
	</g>
</g>
<g id="Слой_2">
</g>
</svg>
