<?xml version="1.0" encoding="utf-8"?>
<!-- Generator: Adobe Illustrator 21.1.0, SVG Export Plug-In . SVG Version: 6.00 Build 0)  -->
<svg version="1.1" xmlns="http://www.w3.org/2000/svg" xmlns:xlink="http://www.w3.org/1999/xlink" x="0px" y="0px"
	 viewBox="0 0 40 40" style="enable-background:new 0 0 40 40;" xml:space="preserve">
<style type="text/css">
	.st0{fill:none;stroke:#000000;stroke-width:1.5;stroke-linecap:round;stroke-linejoin:round;stroke-miterlimit:10;}
	.st1{fill:#FFFFFF;}
</style>
<g id="Слой_1">
	<g>
		<path class="st0" d="M18.7,17.7L18.7,17.7c0-5.5-4.4-9.9-9.9-9.9h0v0C8.8,13.3,13.2,17.7,18.7,17.7L18.7,17.7z"/>
		<line class="st0" x1="4.6" y1="3.6" x2="8.7" y2="7.7"/>
		<line class="st0" x1="20.3" y1="5.4" x2="24.5" y2="9.6"/>
		<line class="st0" x1="6.4" y1="19.4" x2="10.5" y2="23.5"/>
		<path class="st0" d="M24.6,23.6L24.6,23.6c-3.9-3.9-10.1-3.9-14,0l0,0l0,0C14.5,27.5,20.7,27.5,24.6,23.6L24.6,23.6z"/>
		<path class="st0" d="M24.6,23.6L24.6,23.6c-3.9-3.9-3.9-10.1,0-14l0,0l0,0C28.5,13.5,28.5,19.8,24.6,23.6L24.6,23.6z"/>
		<path class="st0" d="M32.6,31.6L32.6,31.6c-3.9-3.9-10.1-3.9-14,0l0,0l0,0C22.5,35.5,28.7,35.5,32.6,31.6L32.6,31.6z"/>
		<path class="st0" d="M32.6,31.6L32.6,31.6c-3.9-3.9-3.9-10.1,0-14l0,0l0,0C36.4,21.5,36.4,27.8,32.6,31.6L32.6,31.6z"/>
		<line class="st0" x1="24.6" y1="23.6" x2="36.6" y2="35.6"/>
	</g>
</g>
<g id="Слой_2">
</g>
</svg>
