<?xml version="1.0" encoding="utf-8"?>
<!-- Generator: Adobe Illustrator 21.1.0, SVG Export Plug-In . SVG Version: 6.00 Build 0)  -->
<svg version="1.1" xmlns="http://www.w3.org/2000/svg" xmlns:xlink="http://www.w3.org/1999/xlink" x="0px" y="0px"
	 viewBox="0 0 40 40" style="enable-background:new 0 0 40 40;" xml:space="preserve">
<style type="text/css">
	.st0{fill:none;stroke:#000000;stroke-width:1.5;stroke-linecap:round;stroke-linejoin:round;stroke-miterlimit:10;}
	.st1{fill:#FFFFFF;}
</style>
<g id="Слой_1">
</g>
<g id="Слой_2">
	<g>
		<path class="st0" d="M17.9,3.9c1.3-0.6,2.9,0,3.5,1.4c0.6,1.3,0,2.9-1.4,3.5C19.6,9,19.2,9.1,18.7,9c-0.2,0.3-0.4,0.5-0.7,0.6
			c-0.8,0.3-1.7,0-2.1-0.8c0-0.1-0.1-0.2-0.1-0.3c-0.7,0.1-1.4-0.3-1.7-1c-0.4-0.8,0-1.8,0.9-2.2c0.5-0.2,1.1-0.2,1.5,0.1
			C16.7,4.8,17.2,4.2,17.9,3.9z"/>
		<path class="st0" d="M5.1,8.1C3.4,7.9,2.2,6.4,2.4,4.8c0.2-1.7,1.7-2.9,3.3-2.7c0.5,0.1,1,0.2,1.4,0.5c0.3-0.2,0.7-0.2,1-0.2
			c1,0.1,1.7,1,1.6,2c0,0.1,0,0.3-0.1,0.4C10.5,5,11,5.8,10.9,6.7c-0.1,1-1,1.8-2.1,1.7C8.2,8.3,7.7,7.9,7.4,7.4
			C6.8,7.9,6,8.2,5.1,8.1z"/>
		<path class="st0" d="M11.8,20.8c-1.5-0.6-2.2-2.4-1.5-3.9c0.1-0.2,0.2-0.4,0.3-0.6c-1-0.8-1.5-2.3-0.9-3.6c0.7-1.5,2.5-2.2,4-1.6
			c0.9,0.4,1.6,1.2,1.8,2.2c1.2-0.5,2.6-0.5,3.8,0"/>
		<path class="st0" d="M9.2,23.9L23.8,9.3l14.8,20c0.8,1.1,0.7,2.6-0.3,3.5L33,38.3c-0.9,0.9-2.4,1-3.5,0.3L9.2,23.9z"/>
		<path class="st0" d="M27.5,15.9l-5.4,5.4c-1.7,1.7-1.6,4.4,0.2,6l0,0c1.7,1.4,4.1,1.3,5.7-0.2l4.7-4.8"/>
	</g>
</g>
</svg>
