<?xml version="1.0" encoding="utf-8"?>
<!-- Generator: Adobe Illustrator 21.1.0, SVG Export Plug-In . SVG Version: 6.00 Build 0)  -->
<svg version="1.1" id="Слой_1" xmlns="http://www.w3.org/2000/svg" xmlns:xlink="http://www.w3.org/1999/xlink" x="0px" y="0px"
	 viewBox="0 0 64 64" style="enable-background:new 0 0 64 64;" xml:space="preserve">
<style type="text/css">
	.st0{fill:#FFFFFF;stroke:#000000;stroke-width:3;stroke-miterlimit:10;}
	.st1{fill:none;stroke:#000000;stroke-width:3;stroke-miterlimit:10;}
	.st2{fill:none;stroke:#000000;stroke-width:3;stroke-linecap:round;stroke-miterlimit:10;}
	.st3{fill:none;stroke:#000000;stroke-width:3;stroke-linecap:round;stroke-linejoin:round;stroke-miterlimit:10;}
	.st4{fill:none;stroke:#FFFFFF;stroke-width:3;stroke-linecap:round;stroke-linejoin:round;stroke-miterlimit:10;}
	.st5{fill:#FFFFFF;}
</style>
<path class="st3" d="M25,2.8c-2.6,2.6-2.6,6.9,0,9.6l0,0c2.6,2.6,2.6,6.9,0,9.6"/>
<g>
	<path class="st3" d="M32,27.6l-24.2,0c-2.3,0-4.1,1.9-4,4.2c0.8,15.7,5.7,22.7,9.1,25.7c1.5,1.3,3.5,2,5.5,2h27.2c2,0,4-0.7,5.5-2
		c3.4-3,8.4-10,9.1-25.7c0.1-2.3-1.7-4.2-4-4.2L32,27.6"/>
	<path class="st3" d="M36.7,27.6l6.7-9.5l7.5-10.6c0.4-0.6,0.6-1.2,0.6-1.8C51.5,4.6,51,3.6,50,3c-1.5-0.9-3.4-0.4-4.3,1.1L38.6,16
		l-7.3,11"/>
</g>
</svg>
