<?xml version="1.0" encoding="utf-8"?>
<!-- Generator: Adobe Illustrator 21.1.0, SVG Export Plug-In . SVG Version: 6.00 Build 0)  -->
<svg version="1.1" id="Слой_1" xmlns="http://www.w3.org/2000/svg" xmlns:xlink="http://www.w3.org/1999/xlink" x="0px" y="0px"
	 viewBox="0 0 64 64" style="enable-background:new 0 0 64 64;" xml:space="preserve">
<style type="text/css">
	.st0{fill:#FFFFFF;stroke:#000000;stroke-width:3;stroke-miterlimit:10;}
	.st1{fill:none;stroke:#000000;stroke-width:3;stroke-miterlimit:10;}
	.st2{fill:none;stroke:#000000;stroke-width:3;stroke-linecap:round;stroke-miterlimit:10;}
	.st3{fill:none;stroke:#000000;stroke-width:3;stroke-linecap:round;stroke-linejoin:round;stroke-miterlimit:10;}
	.st4{fill:none;stroke:#FFFFFF;stroke-width:3;stroke-linecap:round;stroke-linejoin:round;stroke-miterlimit:10;}
	.st5{fill:#FFFFFF;}
</style>
<g>
	<path class="st3" d="M18.5,25.2L3.9,39.9c-1.6,1.6-1.7,4.3-0.1,5.9l8.4,8.4l6.3,6.3c1.6,1.6,4.2,1.6,5.9-0.1l14.8-14.8"/>
	<path class="st3" d="M29.5,24l-2.3-2.3c-1.6-1.6-1.6-4.3,0-5.9l3.4-3.4c2.7-2.7,6.5-4.3,10.3-4.3h4.6l5.3-5.3
		c0.6-0.6,1.6-0.6,2.2,0l8,8c0.6,0.6,0.6,1.6,0,2.2l-5.3,5.3v5c0,3.9-1.5,7.6-4.3,10.3l-3.2,3.2c-1.6,1.6-4.3,1.6-5.9,0l-6.6-6.6"/>
	<line class="st3" x1="45.4" y1="8.1" x2="55.6" y2="18.3"/>
	<path class="st3" d="M26.7,21.2L26.7,21.2c-1.4-1.4-3.7-1.4-5.1,0.1L19.8,23c-1.4,1.4-1.4,3.7-0.1,5.1l2.7,2.7"/>
	<path class="st3" d="M42.9,37.4L42.9,37.4c1.4,1.4,1.4,3.7-0.1,5.1l-1.8,1.8c-1.4,1.4-3.7,1.4-5.1,0.1l-7.1-7.1"/>
</g>
</svg>
