<?xml version="1.0" encoding="utf-8"?>
<!-- Generator: Adobe Illustrator 21.1.0, SVG Export Plug-In . SVG Version: 6.00 Build 0)  -->
<svg version="1.1" id="Слой_1" xmlns="http://www.w3.org/2000/svg" xmlns:xlink="http://www.w3.org/1999/xlink" x="0px" y="0px"
	 viewBox="0 0 64 64" style="enable-background:new 0 0 64 64;" xml:space="preserve">
<style type="text/css">
	.st0{fill:#FFFFFF;stroke:#000000;stroke-width:3;stroke-miterlimit:10;}
	.st1{fill:none;stroke:#000000;stroke-width:3;stroke-miterlimit:10;}
	.st2{fill:none;stroke:#000000;stroke-width:3;stroke-linecap:round;stroke-miterlimit:10;}
	.st3{fill:none;stroke:#000000;stroke-width:3;stroke-linecap:round;stroke-linejoin:round;stroke-miterlimit:10;}
	.st4{fill:none;stroke:#FFFFFF;stroke-width:3;stroke-linecap:round;stroke-linejoin:round;stroke-miterlimit:10;}
	.st5{fill:#FFFFFF;}
</style>
<g>
	<path class="st3" d="M4,32.9c0,0,30-39.9,49-21S30.4,60.2,30.4,60.2"/>
	
		<ellipse transform="matrix(0.7071 -0.7071 0.7071 0.7071 -26.9955 26.1847)" class="st3" cx="18.1" cy="45.7" rx="10.6" ry="19.2"/>
	<polyline class="st3" points="50.6,9.5 55.6,2.6 62.2,9.3 55.8,13.4 	"/>
	<ellipse transform="matrix(0.7071 -0.7071 0.7071 0.7071 -24.1221 18.2653)" cx="10" cy="38.3" rx="1.4" ry="2.7"/>
	<ellipse transform="matrix(0.7071 -0.7071 0.7071 0.7071 -23.3865 27.6796)" cx="21.7" cy="42.1" rx="1.4" ry="2.7"/>
	<ellipse transform="matrix(0.7071 -0.7071 0.7071 0.7071 -31.1719 29.134)" cx="19.6" cy="52.2" rx="1.4" ry="2.7"/>
</g>
</svg>
