<?xml version="1.0" encoding="utf-8"?>
<!-- Generator: Adobe Illustrator 22.0.1, SVG Export Plug-In . SVG Version: 6.00 Build 0)  -->
<svg version="1.1" id="Слой_1" xmlns="http://www.w3.org/2000/svg" xmlns:xlink="http://www.w3.org/1999/xlink" x="0px" y="0px"
	 viewBox="0 0 64 64" style="enable-background:new 0 0 64 64;" xml:space="preserve">
<style type="text/css">
	.st0{fill:none;stroke:#000000;stroke-width:3;stroke-linecap:round;stroke-linejoin:round;stroke-miterlimit:10;}
</style>
<g>
	<path class="st0" d="M35.2,28.8h2.5c8.1,0,14.7-6.6,14.7-14.7v-2.5H50c-8.1,0-14.7,6.6-14.7,14.7V28.8z"/>
	<line class="st0" x1="59.8" y1="4.2" x2="52.5" y2="11.4"/>
	<line class="st0" x1="56.5" y1="31.5" x2="49.5" y2="38.8"/>
	<line class="st0" x1="32.3" y1="7.3" x2="25.2" y2="14.5"/>
	<path class="st0" d="M25,39l1.8-1.8c5.7-5.7,5.7-15,0-20.8L25,14.7l-1.8,1.8c-5.7,5.7-5.7,15,0,20.8L25,39z"/>
	<path class="st0" d="M25,39l1.8-1.8c5.7-5.7,15-5.7,20.8,0l1.7,1.7l-1.8,1.8c-5.7,5.7-15,5.7-20.8,0L25,39z"/>
	<path class="st0" d="M11.2,52.8l1.7-1.8c5.7-5.7,5.7-15,0-20.8l-1.7-1.7l-1.8,1.8c-5.7,5.7-5.7,15,0,20.8L11.2,52.8z"/>
	<path class="st0" d="M11.2,52.8l1.7-1.8c5.7-5.7,15-5.7,20.8,0l1.7,1.7l-1.8,1.8c-5.7,5.7-15,5.7-20.8,0L11.2,52.8z"/>
	<line class="st0" x1="25" y1="39" x2="4.2" y2="59.8"/>
</g>
</svg>
