<?xml version="1.0" encoding="utf-8"?>
<!-- Generator: Adobe Illustrator 21.1.0, SVG Export Plug-In . SVG Version: 6.00 Build 0)  -->
<svg version="1.1" id="Слой_1" xmlns="http://www.w3.org/2000/svg" xmlns:xlink="http://www.w3.org/1999/xlink" x="0px" y="0px"
	 viewBox="0 0 64 64" style="enable-background:new 0 0 64 64;" xml:space="preserve">
<style type="text/css">
	.st0{fill:#FFFFFF;stroke:#000000;stroke-width:3;stroke-miterlimit:10;}
	.st1{fill:none;stroke:#000000;stroke-width:3;stroke-miterlimit:10;}
	.st2{fill:none;stroke:#000000;stroke-width:3;stroke-linecap:round;stroke-miterlimit:10;}
	.st3{fill:none;stroke:#000000;stroke-width:3;stroke-linecap:round;stroke-linejoin:round;stroke-miterlimit:10;}
	.st4{fill:none;stroke:#FFFFFF;stroke-width:3;stroke-linecap:round;stroke-linejoin:round;stroke-miterlimit:10;}
	.st5{fill:#FFFFFF;}
</style>
<g>
	<g>
		<path class="st1" d="M49.8,24.3l0.1-2.4c0.1-1.5,0.7-2.8,1.8-3.8c1.3-1.2,3.1-1.7,4.9-1.4l1.5,0.3c2,0.4,3.8-1,4-3l0-0.3
			c0.2-1.7-1.1-3.3-2.8-3.6l-1.8-0.3c-1.5-0.2-2.7-1.4-2.8-3l-0.1-1.5c-0.2-1.7-1.5-2.9-3.2-3c-2.2-0.1-3.9,1.9-3.4,4l0.3,1.4
			c0.4,1.9-0.2,4-1.7,5.3l-0.2,0.2c-1.1,1-2.6,1.5-4.1,1.5l-1.9,0.1"/>
	</g>
	<g>
		<path class="st1" d="M40.8,60l0.5,0.5c12.2-13.8,14.4-32,4.7-41.7s-28-7.6-41.7,4.7l0.5,0.5"/>
		<g>
			<line class="st2" x1="11.9" y1="34" x2="30.4" y2="51.6"/>
			
				<ellipse transform="matrix(0.7071 -0.7071 0.7071 0.7071 -24.4537 27.7971)" class="st1" cx="21.3" cy="43.4" rx="8.3" ry="26.3"/>
		</g>
	</g>
</g>
</svg>
