<?xml version="1.0" encoding="utf-8"?>
<!-- Generator: Adobe Illustrator 21.1.0, SVG Export Plug-In . SVG Version: 6.00 Build 0)  -->
<svg version="1.1" id="Слой_1" xmlns="http://www.w3.org/2000/svg" xmlns:xlink="http://www.w3.org/1999/xlink" x="0px" y="0px"
	 viewBox="0 0 64 64" style="enable-background:new 0 0 64 64;" xml:space="preserve">
<style type="text/css">
	.st0{fill:#FFFFFF;stroke:#000000;stroke-width:3;stroke-miterlimit:10;}
	.st1{fill:none;stroke:#000000;stroke-width:3;stroke-miterlimit:10;}
	.st2{fill:none;stroke:#000000;stroke-width:3;stroke-linecap:round;stroke-miterlimit:10;}
	.st3{fill:none;stroke:#000000;stroke-width:3;stroke-linecap:round;stroke-linejoin:round;stroke-miterlimit:10;}
	.st4{fill:none;stroke:#FFFFFF;stroke-width:3;stroke-linecap:round;stroke-linejoin:round;stroke-miterlimit:10;}
	.st5{fill:#FFFFFF;}
</style>
<path class="st3" d="M5.7,19.6v32.5c0,2.2,1.8,4,4,4h46.5c2.2,0,4-1.8,4-4V19.6H5.7z"/>
<path class="st3" d="M5.7,19.6L40.3,6.4c1.3-0.5,2.8-0.3,3.9,0.6l16.1,12.6"/>
<path class="st3" d="M44.8,56.1c0.6-1.1,0.9-2.4,0.9-3.7c0-4.7-3.8-8.5-8.5-8.5c-4.7,0-8.5,3.8-8.5,8.5c0,1.3,0.3,2.6,0.9,3.7"/>
<path class="st3" d="M5.7,39.9c0.8,0.4,1.7,0.6,2.6,0.6c3.3,0,6-2.7,6-6c0-3.3-2.7-6-6-6c-0.9,0-1.8,0.2-2.6,0.6"/>
<path class="st3" d="M40.4,19.6c-0.9,1.7-1.5,3.6-1.5,5.6c0,6.4,5.2,11.5,11.5,11.5c4.1,0,7.7-2.1,9.8-5.4"/>
</svg>
