<?xml version="1.0" encoding="utf-8"?>
<!-- Generator: Adobe Illustrator 21.1.0, SVG Export Plug-In . SVG Version: 6.00 Build 0)  -->
<svg version="1.1" id="Слой_1" xmlns="http://www.w3.org/2000/svg" xmlns:xlink="http://www.w3.org/1999/xlink" x="0px" y="0px"
	 viewBox="0 0 64 64" style="enable-background:new 0 0 64 64;" xml:space="preserve">
<style type="text/css">
	.st0{fill:#FFFFFF;stroke:#000000;stroke-width:3;stroke-miterlimit:10;}
	.st1{fill:none;stroke:#000000;stroke-width:3;stroke-miterlimit:10;}
	.st2{fill:none;stroke:#000000;stroke-width:3;stroke-linecap:round;stroke-miterlimit:10;}
	.st3{fill:none;stroke:#000000;stroke-width:3;stroke-linecap:round;stroke-linejoin:round;stroke-miterlimit:10;}
	.st4{fill:none;stroke:#FFFFFF;stroke-width:3;stroke-linecap:round;stroke-linejoin:round;stroke-miterlimit:10;}
	.st5{fill:#FFFFFF;}
</style>
<path class="st3" d="M15.2,51.9L15.2,51.9c2.3,3,6.4,4,9.7,2.4l2.4-1.1c2.9-1.4,6.3-1.4,9.3,0l2.4,1.2c3.4,1.6,7.5,0.6,9.7-2.4l0,0
	c3-4,1.6-9.6-2.8-11.8l-0.5-0.3c-2.5-1.2-4.5-3.4-5.4-6.1L40,33.5c-1.1-3.2-4.1-5.3-7.4-5.3h-1.4c-3.4,0-6.4,2.2-7.4,5.4l0,0
	c-0.9,2.7-2.9,5-5.4,6.2L18,40C13.6,42.2,12.2,47.9,15.2,51.9z"/>
<path class="st3" d="M16.1,33.8c1.6-1.6,2.1-4.3,0.1-7.1s-4.7-3.7-7.1-2.5s-3.8,4.5-1.5,8S14.3,35.5,16.1,33.8z"/>
<path class="st3" d="M47.6,33.8c-1.6-1.6-2.1-4.3-0.1-7.1c2-2.7,4.7-3.7,7.1-2.5c2.4,1.2,3.8,4.5,1.5,8S49.3,35.5,47.6,33.8z"/>
<g>
	<path class="st3" d="M25.3,22.2c2.4-0.8,4.2-3.3,3.5-7c-0.7-3.7-2.9-5.9-5.8-5.9S17,12,17.6,16.6C18.2,21.1,22.7,23.1,25.3,22.2z"
		/>
	<path class="st3" d="M38.7,22.2c-2.4-0.8-4.2-3.3-3.5-7c0.7-3.7,2.9-5.9,5.8-5.9s5.9,2.7,5.3,7.2S41.3,23.1,38.7,22.2z"/>
</g>
</svg>
