<?xml version="1.0" encoding="utf-8"?>
<!-- Generator: Adobe Illustrator 21.1.0, SVG Export Plug-In . SVG Version: 6.00 Build 0)  -->
<svg version="1.1" id="Слой_1" xmlns="http://www.w3.org/2000/svg" xmlns:xlink="http://www.w3.org/1999/xlink" x="0px" y="0px"
	 viewBox="0 0 64 64" style="enable-background:new 0 0 64 64;" xml:space="preserve">
<style type="text/css">
	.st0{fill:#FFFFFF;stroke:#000000;stroke-width:3;stroke-miterlimit:10;}
	.st1{fill:none;stroke:#000000;stroke-width:3;stroke-miterlimit:10;}
	.st2{fill:none;stroke:#000000;stroke-width:3;stroke-linecap:round;stroke-miterlimit:10;}
	.st3{fill:none;stroke:#000000;stroke-width:3;stroke-linecap:round;stroke-linejoin:round;stroke-miterlimit:10;}
	.st4{fill:none;stroke:#FFFFFF;stroke-width:3;stroke-linecap:round;stroke-linejoin:round;stroke-miterlimit:10;}
	.st5{fill:#FFFFFF;}
</style>
<g>
	<g>
		<path class="st3" d="M51.6,55.3C45,62.5,23,59.4,14.3,57.9c-2.2-0.4-4-2-4.5-4.2C7.6,45,2.9,23,9.5,15.8c8.2-9,24.3-7.4,35.9,3.5
			S59.8,46.4,51.6,55.3z"/>
		<path class="st3" d="M9.8,15.5c2.8,1,10.3,6.7,19,14.6c1.1,1,2.3,2.1,3.5,3.2"/>
		<path class="st3" d="M22.6,35.2c1.4,1.3,2.9,2.6,4.3,4c8.6,8.1,15.5,15.6,18.2,19.6"/>
	</g>
	<path class="st3" d="M41.6,15.6c0,0,4.4-4.8,2.2-10.8"/>
	<path class="st3" d="M57.4,10.1c0,0-7.5,2.9-11.6,9"/>
	<path class="st3" d="M48.9,22.9c0,0,2.7-3.9,9.9-2.1"/>
</g>
</svg>
