<?xml version="1.0" encoding="utf-8"?>
<!-- Generator: Adobe Illustrator 22.0.0, SVG Export Plug-In . SVG Version: 6.00 Build 0)  -->
<svg version="1.1" id="Слой_1" xmlns="http://www.w3.org/2000/svg" xmlns:xlink="http://www.w3.org/1999/xlink" x="0px" y="0px"
	 viewBox="0 0 32 32" style="enable-background:new 0 0 32 32;" xml:space="preserve">
<style type="text/css">
	.st0{fill-rule:evenodd;clip-rule:evenodd;fill:#B0B8C1;}
	.st1{fill:#B0B8C1;}
	.st2{fill:#FFFFFF;}
	.st3{fill:#C15044;}
</style>
<path class="st0" d="M15,23.7h1.3c0,0,0.4,0,0.6-0.2c0.2-0.2,0.2-0.6,0.2-0.6s0-1.7,0.8-1.9c0.8-0.2,1.9,1.6,3,2.4
	c0.8,0.6,1.5,0.4,1.5,0.4l2.9,0c0,0,1.5-0.1,0.8-1.2c-0.1-0.1-0.4-0.9-2.2-2.4c-1.8-1.6-1.6-1.4,0.6-4.2c1.4-1.7,1.9-2.8,1.7-3.2
	c-0.2-0.4-1.2-0.3-1.2-0.3l-3.3,0c0,0-0.2,0-0.4,0.1c-0.2,0.1-0.3,0.3-0.3,0.3s-0.5,1.3-1.2,2.5c-1.5,2.4-2.1,2.5-2.3,2.4
	c-0.6-0.4-0.4-1.4-0.4-2.1c0-2.3,0.4-3.3-0.7-3.5c-0.4-0.1-0.6-0.1-1.5-0.1c-1.2,0-2.2,0-2.8,0.3c-0.4,0.2-0.7,0.6-0.5,0.6
	c0.2,0,0.7,0.1,1,0.5c0.3,0.4,0.3,1.4,0.3,1.4s0.2,2.7-0.5,3.1c-0.4,0.2-1-0.2-2.4-2.4c-0.7-1.1-1.2-2.3-1.2-2.3s-0.1-0.2-0.3-0.4
	c-0.2-0.1-0.5-0.2-0.5-0.2l-3.1,0c0,0-0.5,0-0.6,0.2c-0.2,0.2,0,0.5,0,0.5s2.5,5.5,5.3,8.3C12.1,23.9,15,23.7,15,23.7z"/>
</svg>
