<?xml version="1.0" encoding="utf-8"?>
<!-- Generator: Adobe Illustrator 21.1.0, SVG Export Plug-In . SVG Version: 6.00 Build 0)  -->
<svg version="1.1" xmlns="http://www.w3.org/2000/svg" xmlns:xlink="http://www.w3.org/1999/xlink" x="0px" y="0px"
	 viewBox="0 0 40 40" style="enable-background:new 0 0 40 40;" xml:space="preserve">
<style type="text/css">
	.st0{fill:none;stroke:#000000;stroke-width:1.5;stroke-linecap:round;stroke-linejoin:round;stroke-miterlimit:10;}
	.st1{fill:#FFFFFF;}
</style>
<g id="Слой_1">
	<g>
		<g>
			<path class="st0" d="M25.3,15.3v5.4c0,1.5-1.2,2.6-2.6,2.6h-4.7c-1.5,0-2.6-1.2-2.6-2.6v-5.4"/>
		</g>
		<line class="st0" x1="20.3" y1="23.5" x2="20.3" y2="39.6"/>
		<g>
			<path class="st0" d="M20.6,15.7c-8.1,0-12.8-2.9-13.3-3.3c-1.9-1.3-2.4-3.8-1.2-5.7c1.2-1.9,3.8-2.4,5.7-1.2
				C12,5.6,15,7.4,20.6,7.4c5.6,0,8.4-1.8,8.5-1.9c1.9-1.3,4.4-0.8,5.7,1c1.3,1.9,0.8,4.4-1,5.7C33.3,12.7,28.8,15.7,20.6,15.7z"/>
		</g>
		<line class="st0" x1="13.9" y1="9.9" x2="16.5" y2="7.4"/>
		<line class="st0" x1="24" y1="10.1" x2="27.1" y2="6.6"/>
		<line class="st0" x1="18.5" y1="10.6" x2="21.5" y2="7.5"/>
		<line class="st0" x1="4.7" y1="5.7" x2="5.8" y2="6.5"/>
		<line class="st0" x1="36.3" y1="5.7" x2="35.2" y2="6.5"/>
	</g>
</g>
<g id="Слой_2">
</g>
</svg>
