<?xml version="1.0" encoding="utf-8"?>
<!-- Generator: Adobe Illustrator 21.1.0, SVG Export Plug-In . SVG Version: 6.00 Build 0)  -->
<svg version="1.1" xmlns="http://www.w3.org/2000/svg" xmlns:xlink="http://www.w3.org/1999/xlink" x="0px" y="0px"
	 viewBox="0 0 40 40" style="enable-background:new 0 0 40 40;" xml:space="preserve">
<style type="text/css">
	.st0{fill:none;stroke:#000000;stroke-width:1.5;stroke-linecap:round;stroke-linejoin:round;stroke-miterlimit:10;}
	.st1{fill:#FFFFFF;}
</style>
<g id="Слой_1">
	<g>
		<g>
			<path class="st0" d="M29.1,15.5l0.1-1.3c0-0.8,0.4-1.5,1-2c0.7-0.6,1.7-0.9,2.6-0.7l0.8,0.2c1,0.2,2-0.5,2.1-1.6l0-0.1
				C35.7,9,35.1,8.2,34.2,8l-1-0.2c-0.8-0.1-1.4-0.8-1.5-1.6l-0.1-0.8c-0.1-0.9-0.8-1.6-1.7-1.6c-1.2-0.1-2,1-1.8,2.1l0.2,0.8
				c0.2,1-0.1,2.1-0.9,2.8l-0.1,0.1c-0.6,0.5-1.4,0.8-2.2,0.8l-1,0"/>
		</g>
		<g>
			<path class="st0" d="M24.3,34.5l0.3,0.3c6.5-7.3,7.6-16.9,2.5-22.1s-14.8-4-22.1,2.5l0.3,0.3"/>
			<g>
				<line class="st0" x1="9" y1="20.7" x2="18.8" y2="30"/>
				
					<ellipse transform="matrix(0.7071 -0.7071 0.7071 0.7071 -14.0327 17.4202)" class="st0" cx="14" cy="25.6" rx="4.4" ry="13.9"/>
			</g>
		</g>
	</g>
</g>
<g id="Слой_2">
</g>
</svg>
