<?xml version="1.0" encoding="utf-8"?>
<!-- Generator: Adobe Illustrator 21.1.0, SVG Export Plug-In . SVG Version: 6.00 Build 0)  -->
<svg version="1.1" xmlns="http://www.w3.org/2000/svg" xmlns:xlink="http://www.w3.org/1999/xlink" x="0px" y="0px"
	 viewBox="0 0 40 40" style="enable-background:new 0 0 40 40;" xml:space="preserve">
<style type="text/css">
	.st0{fill:none;stroke:#000000;stroke-width:1.5;stroke-linecap:round;stroke-linejoin:round;stroke-miterlimit:10;}
	.st1{fill:#FFFFFF;}
</style>
<g id="Слой_1">
	<g>
		<path class="st0" d="M14.2,36h11.6c3.7,0,6.6-3,6.6-6.6v-11c0-1.5-0.4-3-1.1-4.4l-3.5-6.3V4H12.6v3.7l-3.7,6.2
			c-0.9,1.4-1.3,3-1.3,4.7v10.8C7.5,33,10.5,36,14.2,36z"/>
		<line class="st0" x1="12.6" y1="7.7" x2="27.7" y2="7.7"/>
		<path class="st0" d="M19.6,32.4c7.8,0.4,9.4-5.8,7.2-8.7s-6.6-0.4-6.6-0.4l0.1,0c0,0-4.1-3-6.6-0.4s-1.6,9,6.2,9.4"/>
		<path class="st0" d="M21.5,19.2c0,0-1.9,1.1-1.2,4.1"/>
	</g>
</g>
<g id="Слой_2">
</g>
</svg>
