<?xml version="1.0" encoding="utf-8"?>
<!-- Generator: Adobe Illustrator 21.1.0, SVG Export Plug-In . SVG Version: 6.00 Build 0)  -->
<svg version="1.1" xmlns="http://www.w3.org/2000/svg" xmlns:xlink="http://www.w3.org/1999/xlink" x="0px" y="0px"
	 viewBox="0 0 40 40" style="enable-background:new 0 0 40 40;" xml:space="preserve">
<style type="text/css">
	.st0{fill:none;stroke:#000000;stroke-width:1.5;stroke-linecap:round;stroke-linejoin:round;stroke-miterlimit:10;}
	.st1{fill:#FFFFFF;}
</style>
<g id="Слой_1">
	<g>
		<path class="st0" d="M7.1,15.2c0,0-4.5,20.6,10.9,20.6s10.8-20.3,10.8-20.3L7.1,15.2z"/>
		<path class="st0" d="M29.4,19.8c0,0,1.4-1.3,3.5-1c3.5,0.6,3.2,8.3-3.2,8.3"/>
		<path class="st0" d="M16.9,3.8c-1.2,1.1-1.2,3,0,4.1l0,0c1.2,1.1,1.2,3,0,4.1"/>
		<path class="st0" d="M11.9,8.6c-1.2,1.2-1.2,3.2,0,4.5c0.6,0.6,0.9,1.4,0.9,2.2"/>
		<path class="st0" d="M23.2,8.6c-1.2,1.2-1.2,3.2,0,4.5c0.6,0.6,0.9,1.4,0.9,2.2c0,0,0,0.1,0,0.1"/>
	</g>
</g>
<g id="Слой_2">
</g>
</svg>
