<?xml version="1.0" encoding="utf-8"?>
<!-- Generator: Adobe Illustrator 21.1.0, SVG Export Plug-In . SVG Version: 6.00 Build 0)  -->
<svg version="1.1" xmlns="http://www.w3.org/2000/svg" xmlns:xlink="http://www.w3.org/1999/xlink" x="0px" y="0px"
	 viewBox="0 0 40 40" style="enable-background:new 0 0 40 40;" xml:space="preserve">
<style type="text/css">
	.st0{fill:none;stroke:#000000;stroke-width:1.5;stroke-linecap:round;stroke-linejoin:round;stroke-miterlimit:10;}
	.st1{fill:#FFFFFF;}
</style>
<g id="Слой_1">
	<g>
		<path class="st0" d="M33.4,25.2c-3.2,1.2-8,1.9-13.2,1.9c-5.4,0-10.3-0.8-13.5-2l0,0l3.2,7.6c0.9,2,2.8,3.3,5,3.3h10.5
			c2.3,0,4.3-1.4,5.1-3.5L33.4,25.2L33.4,25.2z"/>
		<path class="st0" d="M6.6,25.1c-0.4-0.6-5.5-6.5-1.2-10.6c1.9-1.8,4.2-2,6.3-1.6c3.3,0.6,6.1,2.8,6.1,2.8"/>
		<path class="st0" d="M13.1,12.8c1.6-7.8,9.1-8.2,9.1-8.2s-0.6,2.6,1.5,4.7"/>
		<path class="st0" d="M27.8,11.7c3.8,1.2,7.5,2.2,8.4,6.3c0.9,4.1-2.8,7.2-2.8,7.2"/>
		
			<ellipse transform="matrix(4.802959e-02 -0.9988 0.9988 4.802959e-02 10.0243 36.5215)" class="st0" cx="24.2" cy="13" rx="3.7" ry="3.7"/>
		<path class="st0" d="M28.5,4c0,0,1.2,2.5-1.8,6.3"/>
	</g>
</g>
<g id="Слой_2">
</g>
</svg>
