<?xml version="1.0" encoding="utf-8"?>
<!-- Generator: Adobe Illustrator 21.1.0, SVG Export Plug-In . SVG Version: 6.00 Build 0)  -->
<svg version="1.1" xmlns="http://www.w3.org/2000/svg" xmlns:xlink="http://www.w3.org/1999/xlink" x="0px" y="0px"
	 viewBox="0 0 40 40" style="enable-background:new 0 0 40 40;" xml:space="preserve">
<style type="text/css">
	.st0{fill:none;stroke:#000000;stroke-width:1.5;stroke-linecap:round;stroke-linejoin:round;stroke-miterlimit:10;}
	.st1{fill:#FFFFFF;}
</style>
<g id="Слой_1">
	<g>
		<path class="st0" d="M4.7,13.2v18.6c0,1.3,1,2.3,2.3,2.3h26.7c1.3,0,2.3-1,2.3-2.3V13.2H4.7z"/>
		<path class="st0" d="M4.7,13.2l19.8-7.6c0.8-0.3,1.6-0.2,2.2,0.3l9.2,7.2"/>
		<path class="st0" d="M27.1,34.2c0.3-0.6,0.5-1.4,0.5-2.1c0-2.7-2.2-4.9-4.9-4.9c-2.7,0-4.9,2.2-4.9,4.9c0,0.8,0.2,1.5,0.5,2.1"/>
		<path class="st0" d="M4.7,24.9c0.5,0.2,1,0.3,1.5,0.3c1.9,0,3.4-1.5,3.4-3.4c0-1.9-1.5-3.4-3.4-3.4c-0.5,0-1,0.1-1.5,0.3"/>
		<path class="st0" d="M24.6,13.2c-0.5,1-0.8,2-0.8,3.2c0,3.6,3,6.6,6.6,6.6c2.4,0,4.4-1.2,5.6-3.1"/>
	</g>
</g>
<g id="Слой_2">
</g>
</svg>
