<?xml version="1.0" encoding="utf-8"?>
<!-- Generator: Adobe Illustrator 21.1.0, SVG Export Plug-In . SVG Version: 6.00 Build 0)  -->
<svg version="1.1" xmlns="http://www.w3.org/2000/svg" xmlns:xlink="http://www.w3.org/1999/xlink" x="0px" y="0px"
	 viewBox="0 0 40 40" style="enable-background:new 0 0 40 40;" xml:space="preserve">
<style type="text/css">
	.st0{fill:none;stroke:#000000;stroke-width:1.5;stroke-linecap:round;stroke-linejoin:round;stroke-miterlimit:10;}
	.st1{fill:#FFFFFF;}
</style>
<g id="Слой_1">
	<g>
		<path class="st0" d="M16,4.6c-1.5,1.5-1.5,3.9,0,5.4l0,0c1.5,1.5,1.5,3.9,0,5.4"/>
		<g>
			<path class="st0" d="M20,18.8l-13.8,0c-1.3,0-2.3,1.1-2.3,2.4c0.4,8.9,3.3,12.9,5.2,14.6c0.9,0.8,2,1.1,3.1,1.1h15.5
				c1.1,0,2.3-0.4,3.1-1.1c1.9-1.7,4.8-5.7,5.2-14.6c0.1-1.3-1-2.4-2.3-2.4L20,18.8"/>
			<path class="st0" d="M22.7,18.8l3.8-5.4l4.3-6.1c0.2-0.3,0.3-0.7,0.3-1c0-0.6-0.3-1.2-0.9-1.5c-0.8-0.5-1.9-0.2-2.4,0.6l-4.1,6.8
				l-4.1,6.3"/>
		</g>
	</g>
</g>
<g id="Слой_2">
</g>
</svg>
