<?xml version="1.0" encoding="utf-8"?>
<!-- Generator: Adobe Illustrator 21.1.0, SVG Export Plug-In . SVG Version: 6.00 Build 0)  -->
<svg version="1.1" xmlns="http://www.w3.org/2000/svg" xmlns:xlink="http://www.w3.org/1999/xlink" x="0px" y="0px"
	 viewBox="0 0 40 40" style="enable-background:new 0 0 40 40;" xml:space="preserve">
<style type="text/css">
	.st0{fill:none;stroke:#000000;stroke-width:1.5;stroke-linecap:round;stroke-linejoin:round;stroke-miterlimit:10;}
	.st1{fill:#FFFFFF;}
</style>
<g id="Слой_1">
	<g>
		<path class="st0" d="M12.7,17.1L4.9,25c-0.9,0.9-0.9,2.3,0,3.2l4.6,4.6l3.4,3.4c0.9,0.9,2.3,0.8,3.2,0l8-8"/>
		<path class="st0" d="M18.6,16.4l-1.3-1.3c-0.9-0.9-0.9-2.3,0-3.2l1.8-1.8c1.5-1.5,3.5-2.3,5.6-2.3h2.5L30.1,5
			c0.3-0.3,0.9-0.3,1.2,0l4.3,4.3c0.3,0.3,0.3,0.9,0,1.2l-2.9,2.9V16c0,2.1-0.8,4.1-2.3,5.6l-1.7,1.7c-0.9,0.9-2.3,0.9-3.2,0
			L22,19.7"/>
		<line class="st0" x1="27.2" y1="7.8" x2="32.7" y2="13.3"/>
		<path class="st0" d="M17.1,14.9L17.1,14.9c-0.7-0.7-2-0.7-2.7,0l-1,1c-0.8,0.8-0.8,2,0,2.7l1.5,1.5"/>
		<path class="st0" d="M25.9,23.6L25.9,23.6c0.7,0.7,0.7,2,0,2.7l-1,1c-0.8,0.8-2,0.8-2.7,0l-3.9-3.9"/>
	</g>
</g>
<g id="Слой_2">
</g>
</svg>
