<?xml version="1.0" encoding="utf-8"?>
<!-- Generator: Adobe Illustrator 21.1.0, SVG Export Plug-In . SVG Version: 6.00 Build 0)  -->
<svg version="1.1" xmlns="http://www.w3.org/2000/svg" xmlns:xlink="http://www.w3.org/1999/xlink" x="0px" y="0px"
	 viewBox="0 0 40 40" style="enable-background:new 0 0 40 40;" xml:space="preserve">
<style type="text/css">
	.st0{fill:none;stroke:#000000;stroke-width:1.5;stroke-linecap:round;stroke-linejoin:round;stroke-miterlimit:10;}
	.st1{fill:#FFFFFF;}
</style>
<g id="Слой_1">
	<g>
		<path class="st0" d="M23.3,4.9c-3.2,0.6-4.1,6.5-9,10.6S3.2,20,3.2,24.9c0,8,19.6,13.3,26.7,9.8C39.1,30.1,36.1,2.7,23.3,4.9z"/>
		<path class="st0" d="M8.6,27c0.8,0.8,13.9,8.2,19.6,4.1c3.2-2.3,3.4-10.3,1.7-15.9c-1.4-4.6-2.7-6.2-4.4-7.1"/>
		<polyline class="st0" points="12.1,24 21,20.5 24.1,12.2 		"/>
		<path class="st0" d="M25.5,26.7c-0.8-0.8-4.5-5.9-4.5-5.9"/>
	</g>
</g>
<g id="Слой_2">
</g>
</svg>
