<?xml version="1.0" encoding="utf-8"?>
<!-- Generator: Adobe Illustrator 21.1.0, SVG Export Plug-In . SVG Version: 6.00 Build 0)  -->
<svg version="1.1" xmlns="http://www.w3.org/2000/svg" xmlns:xlink="http://www.w3.org/1999/xlink" x="0px" y="0px"
	 viewBox="0 0 40 40" style="enable-background:new 0 0 40 40;" xml:space="preserve">
<style type="text/css">
	.st0{fill:none;stroke:#000000;stroke-width:1.5;stroke-linecap:round;stroke-linejoin:round;stroke-miterlimit:10;}
	.st1{fill:#FFFFFF;}
</style>
<g id="Слой_1">
	<g>
		<path class="st0" d="M4.7,20.6c0,0,16.1-21.4,26.3-11.3S18.9,35.2,18.9,35.2"/>
		<ellipse transform="matrix(0.7071 -0.7071 0.7071 0.7071 -15.771 16.7338)" class="st0" cx="12.3" cy="27.4" rx="5.7" ry="10.3"/>
		<polyline class="st0" points="29.7,8 32.4,4.3 36,7.9 32.3,10.6 		"/>
		<ellipse transform="matrix(0.7071 -0.7071 0.7071 0.7071 -14.229 12.4837)" cx="8" cy="23.4" rx="0.8" ry="1.4"/>
		<ellipse transform="matrix(0.7071 -0.7071 0.7071 0.7071 -13.8341 17.5361)" cx="14.3" cy="25.5" rx="0.8" ry="1.4"/>
		<ellipse transform="matrix(0.7071 -0.7071 0.7071 0.7071 -18.0123 18.3166)" cx="13.1" cy="30.9" rx="0.8" ry="1.4"/>
	</g>
</g>
<g id="Слой_2">
</g>
</svg>
