<?xml version="1.0" encoding="utf-8"?>
<!-- Generator: Adobe Illustrator 21.1.0, SVG Export Plug-In . SVG Version: 6.00 Build 0)  -->
<svg version="1.1" xmlns="http://www.w3.org/2000/svg" xmlns:xlink="http://www.w3.org/1999/xlink" x="0px" y="0px"
	 viewBox="0 0 40 40" style="enable-background:new 0 0 40 40;" xml:space="preserve">
<style type="text/css">
	.st0{fill:none;stroke:#000000;stroke-width:1.5;stroke-linecap:round;stroke-linejoin:round;stroke-miterlimit:10;}
	.st1{fill:#FFFFFF;}
</style>
<g id="Слой_1">
	<g>
		<g>
			<line class="st0" x1="20.3" y1="15" x2="20.3" y2="7.7"/>
			<polyline class="st0" points="24.1,3.5 20.3,7.2 16.6,3.5 			"/>
		</g>
		<g>
			<line class="st0" x1="16.3" y1="17.5" x2="9.9" y2="13.8"/>
			<polyline class="st0" points="8.1,8.4 9.5,13.5 4.3,14.9 			"/>
		</g>
		<g>
			<line class="st0" x1="16.6" y1="22" x2="9.9" y2="25.8"/>
			<polyline class="st0" points="4.3,24.7 9.5,26.1 8.1,31.2 			"/>
		</g>
		<g>
			<line class="st0" x1="20.3" y1="31.8" x2="20.3" y2="24"/>
			<polyline class="st0" points="16.6,36.1 20.3,32.4 24.1,36.1 			"/>
		</g>
		<g>
			<line class="st0" x1="30.8" y1="25.8" x2="24.1" y2="22"/>
			<polyline class="st0" points="32.6,31.2 31.2,26.1 36.3,24.7 			"/>
		</g>
		<g>
			<line class="st0" x1="30.8" y1="13.8" x2="24.4" y2="17.5"/>
			<polyline class="st0" points="36.3,14.9 31.2,13.5 32.6,8.4 			"/>
		</g>
		<circle class="st0" cx="20.3" cy="19.5" r="4.5"/>
	</g>
</g>
<g id="Слой_2">
</g>
</svg>
