<?xml version="1.0" encoding="utf-8"?>
<!-- Generator: Adobe Illustrator 21.1.0, SVG Export Plug-In . SVG Version: 6.00 Build 0)  -->
<svg version="1.1" xmlns="http://www.w3.org/2000/svg" xmlns:xlink="http://www.w3.org/1999/xlink" x="0px" y="0px"
	 viewBox="0 0 40 40" style="enable-background:new 0 0 40 40;" xml:space="preserve">
<style type="text/css">
	.st0{fill:none;stroke:#000000;stroke-width:1.5;stroke-linecap:round;stroke-linejoin:round;stroke-miterlimit:10;}
	.st1{fill:#FFFFFF;}
</style>
<g id="Слой_1">
	<g>
		<g>
			<path class="st0" d="M21.3,4.9c0.1,0.9-0.1,1.7-0.4,2.6c-0.3,0.7-0.9,1.4-1.6,2l0,0c-2.5,2.1-2.7,5.5-0.4,7.8"/>
			<path class="st0" d="M23.2,11.6c-1,1.2-0.8,2.8,0.5,3.7l0,0c1.3,1,1.5,2.6,0.4,3.8"/>
		</g>
		<path class="st0" d="M16,22.8c0,0-2,1.7-2,3.4"/>
		<path class="st0" d="M20.5,22.8c0,0-2,1.7-2,3.4"/>
		<path class="st0" d="M25.4,22.8c0,0-2,1.7-2,3.4"/>
		<path class="st0" d="M20,22c9.3,0,14,5.7,15.5,7.9c0.4,0.5,0.5,1.2,0.5,1.8v0c0,1.8-1.5,3.3-3.3,3.3H20.9h-1.8H7.3
			c-1.8,0-3.3-1.5-3.3-3.3v0c0-0.6,0.2-1.3,0.5-1.8C6,27.7,10.7,22,20,22"/>
	</g>
</g>
<g id="Слой_2">
</g>
</svg>
