<?xml version="1.0" encoding="utf-8"?>
<!-- Generator: Adobe Illustrator 21.1.0, SVG Export Plug-In . SVG Version: 6.00 Build 0)  -->
<svg version="1.1" xmlns="http://www.w3.org/2000/svg" xmlns:xlink="http://www.w3.org/1999/xlink" x="0px" y="0px"
	 viewBox="0 0 40 40" style="enable-background:new 0 0 40 40;" xml:space="preserve">
<style type="text/css">
	.st0{fill:none;stroke:#000000;stroke-width:1.5;stroke-linecap:round;stroke-linejoin:round;stroke-miterlimit:10;}
	.st1{fill:#FFFFFF;}
</style>
<g id="Слой_1">
	<path class="st0" d="M20,4h-3.9c-2.3,0-4.2,2.1-4.2,4.6v4.7L7.2,30.1C6.4,33,8.4,36,11.2,36H20"/>
	<path class="st0" d="M20,4h3.9c2.3,0,4.2,2.1,4.2,4.6v4.7l4.7,16.8c0.8,2.9-1.2,5.9-4,5.9H20"/>
	<line class="st0" x1="15.2" y1="13.4" x2="28.1" y2="13.4"/>
	<circle cx="16.8" cy="7.4" r="1.2"/>
	<circle cx="22.7" cy="5.2" r="1.2"/>
	<circle cx="21.6" cy="9.9" r="1.2"/>
	<path class="st0" d="M9.2,23.1c0,0,2.4,3.9,6.4,3.9c5.3,0,6-4.8,12.1-4.8c1.1,0,2.1,0.1,2.9,0.4"/>
</g>
<g id="Слой_2">
</g>
</svg>
