<?xml version="1.0" encoding="utf-8"?>
<!-- Generator: Adobe Illustrator 21.1.0, SVG Export Plug-In . SVG Version: 6.00 Build 0)  -->
<svg version="1.1" xmlns="http://www.w3.org/2000/svg" xmlns:xlink="http://www.w3.org/1999/xlink" x="0px" y="0px"
	 viewBox="0 0 40 40" style="enable-background:new 0 0 40 40;" xml:space="preserve">
<style type="text/css">
	.st0{fill:none;stroke:#000000;stroke-width:1.5;stroke-linecap:round;stroke-linejoin:round;stroke-miterlimit:10;}
	.st1{fill:#FFFFFF;}
</style>
<g id="Слой_1">
</g>
<g id="Слой_2">
	<path class="st0" d="M35,28.3c0.8,0.1,1.1,1.1,0.6,1.6c-2.2,2.2-7.3,6.3-15.6,6.3c-8.9,0-13.8-4-15.7-6.3c-0.5-0.6-0.2-1.5,0.6-1.6
		c2.1-0.2,5.8-1,8.5-3.3c-2.7-1.1-4.9-2.7-6.2-3.8c-0.6-0.5-0.3-1.6,0.5-1.7c2.1-0.3,5.3-1.1,7.4-3.4c0.4-0.5,0.8-0.9,1.2-1.5
		c-2-0.7-3.7-1.7-4.8-2.6c-0.7-0.5-0.4-1.5,0.4-1.7c1.5-0.3,3.4-0.9,4.7-2.3c1.5-1.6,2.5-3.8,3.1-5.2c0.2-0.4,0.8-0.4,0.9,0
		C21,4.3,22,6.5,23.5,8.1c1.3,1.4,3.2,2,4.7,2.3c0.8,0.2,1.1,1.2,0.4,1.7c-1.1,0.9-2.8,1.9-4.8,2.6c0.4,0.5,0.8,1,1.2,1.5
		c2.1,2.2,5.3,3.1,7.4,3.4c0.8,0.1,1.1,1.2,0.5,1.7c-1.4,1.1-3.5,2.7-6.2,3.8C29.2,27.2,32.8,28,35,28.3z"/>
</g>
</svg>
